<svg xmlns="http://www.w3.org/2000/svg" xmlns:xlink="http://www.w3.org/1999/xlink" width="1366" zoomAndPan="magnify" viewBox="0 0 1024.5 576" height="768" preserveAspectRatio="xMidYMid meet" version="1.0"><defs><clipPath id="4a002051a0"><path d="M 57.570312 2.390625 L 230.34375 2.390625 L 230.34375 103.140625 L 57.570312 103.140625 Z M 57.570312 2.390625 " clip-rule="nonzero"/></clipPath><clipPath id="387d71b2f2"><path d="M 187.109375 2.390625 L 100.75 2.390625 L 57.570312 52.765625 L 100.75 103.140625 L 187.109375 103.140625 L 230.289062 52.765625 Z M 187.109375 2.390625 " clip-rule="nonzero"/></clipPath><clipPath id="72aa87deed"><path d="M 0.570312 0.390625 L 173.289062 0.390625 L 173.289062 101.140625 L 0.570312 101.140625 Z M 0.570312 0.390625 " clip-rule="nonzero"/></clipPath><clipPath id="be84002c42"><path d="M 130.109375 0.390625 L 43.75 0.390625 L 0.570312 50.765625 L 43.75 101.140625 L 130.109375 101.140625 L 173.289062 50.765625 Z M 130.109375 0.390625 " clip-rule="nonzero"/></clipPath><clipPath id="ea91ef3e30"><rect x="0" width="174" y="0" height="102"/></clipPath><clipPath id="89a6f7942d"><path d="M 0 0.140625 L 1024 0.140625 L 1024 74.785156 L 0 74.785156 Z M 0 0.140625 " clip-rule="nonzero"/></clipPath><clipPath id="c122b5e42a"><path d="M 0 0.140625 L 1024 0.140625 L 1024 74.785156 L 0 74.785156 Z M 0 0.140625 " clip-rule="nonzero"/></clipPath><clipPath id="52eecb7dd6"><rect x="0" width="1024" y="0" height="75"/></clipPath></defs><g clip-path="url(#4a002051a0)"><g clip-path="url(#387d71b2f2)"><g transform="matrix(1, 0, 0, 1, 57, 2)"><g clip-path="url(#ea91ef3e30)"><g clip-path="url(#72aa87deed)"><g clip-path="url(#be84002c42)"><path fill="#f9ffdc" d="M 0.570312 0.390625 L 173.34375 0.390625 L 173.34375 101.140625 L 0.570312 101.140625 Z M 0.570312 0.390625 " fill-opacity="1" fill-rule="nonzero"/></g></g></g></g></g></g><g clip-path="url(#89a6f7942d)"><g transform="matrix(1, 0, 0, 1, 0, -0.000000000000058398)"><g clip-path="url(#52eecb7dd6)"><g clip-path="url(#c122b5e42a)"><path fill="#f9ffdc" d="M 0 0.140625 L 1024.058594 0.140625 L 1024.058594 74.785156 L 0 74.785156 Z M 0 0.140625 " fill-opacity="1" fill-rule="nonzero"/></g></g></g></g></svg>