<svg xmlns="http://www.w3.org/2000/svg" xmlns:xlink="http://www.w3.org/1999/xlink" width="1366" zoomAndPan="magnify" viewBox="0 0 1024.5 576" height="768" preserveAspectRatio="xMidYMid meet" version="1.0"><defs><clipPath id="6adf59c072"><path d="M 46.113281 0.890625 L 222.820312 0.890625 L 222.820312 101.640625 L 46.113281 101.640625 Z M 46.113281 0.890625 " clip-rule="nonzero"/></clipPath><clipPath id="2c17a2af3b"><path d="M 179.347656 0.890625 L 89.292969 0.890625 L 46.113281 51.265625 L 89.292969 101.640625 L 179.347656 101.640625 L 222.527344 51.265625 Z M 179.347656 0.890625 " clip-rule="nonzero"/></clipPath><clipPath id="faacdb68d6"><path d="M 0.113281 0.890625 L 176.613281 0.890625 L 176.613281 101.640625 L 0.113281 101.640625 Z M 0.113281 0.890625 " clip-rule="nonzero"/></clipPath><clipPath id="d034f4f57a"><path d="M 133.347656 0.890625 L 43.292969 0.890625 L 0.113281 51.265625 L 43.292969 101.640625 L 133.347656 101.640625 L 176.527344 51.265625 Z M 133.347656 0.890625 " clip-rule="nonzero"/></clipPath><clipPath id="a76208a473"><rect x="0" width="177" y="0" height="102"/></clipPath><clipPath id="1b24e1278c"><path d="M 46.117188 0.890625 L 222.277344 0.890625 L 222.277344 101.339844 L 46.117188 101.339844 Z M 46.117188 0.890625 " clip-rule="nonzero"/></clipPath><clipPath id="f9bdd43b6d"><path d="M 179.34375 0.890625 L 89.292969 0.890625 L 46.117188 51.261719 L 89.292969 101.632812 L 179.34375 101.632812 L 222.519531 51.261719 Z M 179.34375 0.890625 " clip-rule="nonzero"/></clipPath><clipPath id="e37e8ce148"><path d="M 0 0.140625 L 1024 0.140625 L 1024 73.289062 L 0 73.289062 Z M 0 0.140625 " clip-rule="nonzero"/></clipPath><clipPath id="8a9798dfdb"><path d="M 0 0.140625 L 1024 0.140625 L 1024 73.289062 L 0 73.289062 Z M 0 0.140625 " clip-rule="nonzero"/></clipPath><clipPath id="354610b4bb"><rect x="0" width="1024" y="0" height="74"/></clipPath><clipPath id="d063919e96"><path d="M 0 0.140625 L 1024 0.140625 L 1024 73.277344 L 0 73.277344 Z M 0 0.140625 " clip-rule="nonzero"/></clipPath><clipPath id="e1202d9319"><path d="M 88 29.738281 L 206.785156 29.738281 L 206.785156 90.035156 L 88 90.035156 Z M 88 29.738281 " clip-rule="nonzero"/></clipPath><clipPath id="4a2c19a0eb"><path d="M 109.597656 42.269531 C 153.898438 36.121094 161.019531 29.601562 169.34375 29.902344 C 178.1875 30.277344 195.953125 42.417969 196.402344 41.671875 C 196.703125 41.070312 181.1875 32.226562 181.5625 31.324219 C 181.859375 30.652344 187.183594 31.925781 189.730469 32.898438 C 192.28125 33.800781 194.828125 35.222656 196.929688 36.949219 C 199.027344 38.671875 200.976562 40.84375 202.476562 43.09375 C 203.902344 45.417969 205.101562 48.042969 205.773438 50.742188 C 206.375 53.363281 206.675781 56.289062 206.449219 58.988281 C 206.222656 61.683594 205.476562 64.535156 204.425781 67.007812 C 203.375 69.480469 201.800781 71.957031 200.003906 73.980469 C 198.128906 76.003906 195.878906 77.800781 193.554688 79.152344 C 191.15625 80.5 188.457031 81.550781 185.757812 82.074219 C 183.0625 82.523438 180.136719 82.675781 177.4375 82.300781 C 174.738281 81.925781 171.964844 81.027344 169.566406 79.828125 C 167.09375 78.628906 164.769531 76.976562 162.820312 75.027344 C 160.871094 73.078125 159.222656 70.757812 157.949219 68.28125 C 156.75 65.882812 155.925781 63.109375 155.550781 60.410156 C 155.175781 57.636719 155.25 54.789062 155.773438 52.089844 C 156.296875 49.390625 157.273438 46.691406 158.621094 44.292969 C 159.972656 41.96875 161.769531 39.644531 163.796875 37.847656 C 165.820312 36.046875 168.292969 34.472656 170.765625 33.425781 C 173.316406 32.300781 176.089844 31.625 178.789062 31.398438 C 181.5625 31.175781 184.410156 31.398438 187.109375 32.074219 C 189.730469 32.75 192.355469 33.875 194.679688 35.296875 C 197.003906 36.796875 199.179688 38.746094 200.828125 40.84375 C 202.550781 42.945312 203.976562 45.492188 204.949219 48.042969 C 205.847656 50.589844 206.449219 53.515625 206.523438 56.214844 C 206.597656 58.910156 206.148438 61.835938 205.398438 64.382812 C 204.574219 67.007812 203.300781 69.632812 201.726562 71.804688 C 200.152344 74.054688 198.054688 76.078125 195.878906 77.726562 C 193.628906 79.300781 191.980469 80.277344 188.457031 81.402344 C 180.8125 83.800781 163.496094 85.75 150.527344 87.171875 C 137.03125 88.597656 116.269531 90.621094 108.847656 89.871094 C 106.148438 89.648438 105.023438 89.121094 103.300781 88.449219 C 101.5 87.699219 99.777344 86.796875 98.203125 85.671875 C 96.628906 84.550781 95.203125 83.199219 93.929688 81.777344 C 92.65625 80.277344 91.605469 78.628906 90.707031 76.976562 C 89.882812 75.253906 89.207031 73.378906 88.757812 71.503906 C 88.308594 69.632812 88.15625 67.683594 88.15625 65.734375 C 88.15625 63.859375 88.457031 61.835938 88.980469 60.035156 C 89.429688 58.164062 90.179688 56.363281 91.082031 54.640625 C 91.980469 52.988281 93.179688 51.339844 94.453125 49.917969 C 95.726562 48.492188 97.226562 47.21875 98.800781 46.167969 C 100.449219 45.117188 102.175781 44.21875 103.972656 43.542969 C 105.773438 42.945312 109.671875 42.269531 109.671875 42.269531 " clip-rule="nonzero"/></clipPath><clipPath id="67411aed3f"><path d="M 0.0351562 0.738281 L 118.777344 0.738281 L 118.777344 61.035156 L 0.0351562 61.035156 Z M 0.0351562 0.738281 " clip-rule="nonzero"/></clipPath><clipPath id="78caac3a9e"><path d="M 21.597656 13.269531 C 65.898438 7.121094 73.019531 0.601562 81.34375 0.902344 C 90.1875 1.277344 107.953125 13.417969 108.402344 12.671875 C 108.703125 12.070312 93.1875 3.226562 93.5625 2.324219 C 93.859375 1.652344 99.183594 2.925781 101.730469 3.898438 C 104.28125 4.800781 106.828125 6.222656 108.929688 7.949219 C 111.027344 9.671875 112.976562 11.84375 114.476562 14.09375 C 115.902344 16.417969 117.101562 19.042969 117.773438 21.742188 C 118.375 24.363281 118.675781 27.289062 118.449219 29.988281 C 118.222656 32.683594 117.476562 35.535156 116.425781 38.007812 C 115.375 40.480469 113.800781 42.957031 112.003906 44.980469 C 110.128906 47.003906 107.878906 48.800781 105.554688 50.152344 C 103.15625 51.5 100.457031 52.550781 97.757812 53.074219 C 95.0625 53.523438 92.136719 53.675781 89.4375 53.300781 C 86.738281 52.925781 83.964844 52.027344 81.566406 50.828125 C 79.09375 49.628906 76.769531 47.976562 74.820312 46.027344 C 72.871094 44.078125 71.222656 41.757812 69.949219 39.28125 C 68.75 36.882812 67.925781 34.109375 67.550781 31.410156 C 67.175781 28.636719 67.25 25.789062 67.773438 23.089844 C 68.296875 20.390625 69.273438 17.691406 70.621094 15.292969 C 71.972656 12.96875 73.769531 10.644531 75.796875 8.847656 C 77.820312 7.046875 80.292969 5.472656 82.765625 4.425781 C 85.316406 3.300781 88.089844 2.625 90.789062 2.398438 C 93.5625 2.175781 96.410156 2.398438 99.109375 3.074219 C 101.730469 3.75 104.355469 4.875 106.679688 6.296875 C 109.003906 7.796875 111.179688 9.746094 112.828125 11.84375 C 114.550781 13.945312 115.976562 16.492188 116.949219 19.042969 C 117.847656 21.589844 118.449219 24.515625 118.523438 27.214844 C 118.597656 29.910156 118.148438 32.835938 117.398438 35.382812 C 116.574219 38.007812 115.300781 40.632812 113.726562 42.804688 C 112.152344 45.054688 110.054688 47.078125 107.878906 48.726562 C 105.628906 50.300781 103.980469 51.277344 100.457031 52.402344 C 92.8125 54.800781 75.496094 56.75 62.527344 58.171875 C 49.03125 59.597656 28.269531 61.621094 20.847656 60.871094 C 18.148438 60.648438 17.023438 60.121094 15.300781 59.449219 C 13.5 58.699219 11.777344 57.796875 10.203125 56.671875 C 8.628906 55.550781 7.203125 54.199219 5.929688 52.777344 C 4.65625 51.277344 3.605469 49.628906 2.707031 47.976562 C 1.882812 46.253906 1.207031 44.378906 0.757812 42.503906 C 0.308594 40.632812 0.15625 38.683594 0.15625 36.734375 C 0.15625 34.859375 0.457031 32.835938 0.980469 31.035156 C 1.429688 29.164062 2.179688 27.363281 3.082031 25.640625 C 3.980469 23.988281 5.179688 22.339844 6.453125 20.917969 C 7.726562 19.492188 9.226562 18.21875 10.800781 17.167969 C 12.449219 16.117188 14.175781 15.21875 15.972656 14.542969 C 17.773438 13.945312 21.671875 13.269531 21.671875 13.269531 " clip-rule="nonzero"/></clipPath><clipPath id="25dfc5f756"><rect x="0" width="119" y="0" height="62"/></clipPath><clipPath id="ae8d0a5069"><path d="M 68.632812 37 L 114.875 37 L 114.875 84.359375 L 68.632812 84.359375 Z M 68.632812 37 " clip-rule="nonzero"/></clipPath><clipPath id="bf06f815a5"><path d="M 114.84375 53.589844 C 114.84375 68.433594 113.121094 72.253906 110.871094 75.179688 C 108.621094 78.027344 105.324219 80.652344 102.023438 82.152344 C 98.652344 83.648438 94.527344 84.398438 90.855469 84.175781 C 87.257812 83.949219 83.210938 82.675781 80.0625 80.800781 C 76.988281 78.925781 73.988281 75.929688 72.113281 72.78125 C 70.164062 69.707031 68.964844 65.660156 68.742188 61.984375 C 68.515625 58.386719 69.265625 54.265625 70.765625 50.890625 C 72.265625 47.59375 74.886719 44.292969 77.738281 41.96875 C 80.585938 39.722656 84.484375 37.996094 88.082031 37.398438 C 91.679688 36.722656 95.804688 36.949219 99.328125 38.070312 C 102.851562 39.121094 108.996094 43.917969 108.996094 43.917969 " clip-rule="nonzero"/></clipPath><clipPath id="91ad26f121"><path d="M 0.632812 0 L 46.875 0 L 46.875 47.359375 L 0.632812 47.359375 Z M 0.632812 0 " clip-rule="nonzero"/></clipPath><clipPath id="27f28ef95a"><path d="M 46.84375 16.589844 C 46.84375 31.433594 45.121094 35.253906 42.871094 38.179688 C 40.621094 41.027344 37.324219 43.652344 34.023438 45.152344 C 30.652344 46.648438 26.527344 47.398438 22.855469 47.175781 C 19.257812 46.949219 15.210938 45.675781 12.0625 43.800781 C 8.988281 41.925781 5.988281 38.929688 4.113281 35.78125 C 2.164062 32.707031 0.964844 28.660156 0.742188 24.984375 C 0.515625 21.386719 1.265625 17.265625 2.765625 13.890625 C 4.265625 10.59375 6.886719 7.292969 9.738281 4.96875 C 12.585938 2.722656 16.484375 0.996094 20.082031 0.398438 C 23.679688 -0.277344 27.804688 -0.0507812 31.328125 1.070312 C 34.851562 2.121094 40.996094 6.917969 40.996094 6.917969 " clip-rule="nonzero"/></clipPath><clipPath id="6c8c23aa06"><rect x="0" width="47" y="0" height="48"/></clipPath><clipPath id="6f876695c1"><path d="M 62.1875 31.328125 L 108.429688 31.328125 L 108.429688 78.808594 L 62.1875 78.808594 Z M 62.1875 31.328125 " clip-rule="nonzero"/></clipPath><clipPath id="6eed5c5d17"><path d="M 108.398438 48.042969 C 108.398438 62.886719 106.671875 66.707031 104.425781 69.632812 C 102.175781 72.480469 98.875 75.105469 95.503906 76.601562 C 92.203125 78.101562 88.082031 78.851562 84.410156 78.628906 C 80.734375 78.402344 76.761719 77.128906 73.613281 75.253906 C 70.464844 73.378906 67.542969 70.382812 65.59375 67.308594 C 63.71875 64.160156 62.519531 60.109375 62.292969 56.511719 C 62.070312 52.839844 62.820312 48.71875 64.320312 45.34375 C 65.816406 42.046875 68.367188 38.746094 71.289062 36.496094 C 74.140625 34.25 77.960938 32.523438 81.558594 31.851562 C 85.160156 31.175781 89.355469 31.398438 92.878906 32.523438 C 96.328125 33.574219 102.550781 38.371094 102.550781 38.371094 " clip-rule="nonzero"/></clipPath><clipPath id="402cc0d386"><path d="M 0.1875 0.328125 L 46.425781 0.328125 L 46.425781 47.808594 L 0.1875 47.808594 Z M 0.1875 0.328125 " clip-rule="nonzero"/></clipPath><clipPath id="7d5ff77862"><path d="M 46.398438 17.042969 C 46.398438 31.886719 44.671875 35.707031 42.425781 38.632812 C 40.175781 41.480469 36.875 44.105469 33.503906 45.601562 C 30.203125 47.101562 26.082031 47.851562 22.410156 47.628906 C 18.734375 47.402344 14.761719 46.128906 11.613281 44.253906 C 8.464844 42.378906 5.542969 39.382812 3.59375 36.308594 C 1.71875 33.160156 0.519531 29.109375 0.292969 25.511719 C 0.0703125 21.839844 0.820312 17.71875 2.320312 14.34375 C 3.816406 11.046875 6.367188 7.746094 9.289062 5.496094 C 12.140625 3.25 15.960938 1.523438 19.558594 0.851562 C 23.160156 0.175781 27.355469 0.398438 30.878906 1.523438 C 34.328125 2.574219 40.550781 7.371094 40.550781 7.371094 " clip-rule="nonzero"/></clipPath><clipPath id="f7d516994a"><rect x="0" width="47" y="0" height="48"/></clipPath><clipPath id="70f1085f65"><path d="M 57.492188 28.546875 L 106.28125 28.546875 L 106.28125 76.082031 L 57.492188 76.082031 Z M 57.492188 28.546875 " clip-rule="nonzero"/></clipPath><clipPath id="1494189bd4"><path d="M 82.609375 28.625 C 92.578125 30.652344 94.902344 31.925781 96.925781 33.425781 C 98.953125 35 100.824219 36.949219 102.175781 38.972656 C 103.597656 41.070312 104.722656 43.542969 105.398438 45.941406 C 106.074219 48.417969 106.375 51.039062 106.222656 53.589844 C 106.148438 56.0625 105.546875 58.6875 104.574219 61.085938 C 103.675781 63.410156 102.25 65.734375 100.675781 67.609375 C 99.027344 69.554688 97.003906 71.28125 94.828125 72.554688 C 92.65625 73.90625 90.179688 74.878906 87.707031 75.402344 C 85.234375 75.929688 82.535156 76.078125 80.0625 75.855469 C 77.511719 75.554688 74.964844 74.804688 72.640625 73.753906 C 70.390625 72.707031 68.140625 71.207031 66.34375 69.480469 C 64.46875 67.757812 62.894531 65.582031 61.695312 63.410156 C 60.496094 61.160156 59.671875 58.613281 59.222656 56.136719 C 58.847656 53.664062 58.847656 50.964844 59.222656 48.492188 C 59.671875 45.941406 60.496094 43.394531 61.695312 41.21875 C 62.894531 38.972656 64.46875 36.796875 66.34375 35.074219 C 68.140625 33.347656 70.390625 31.851562 72.640625 30.800781 C 74.964844 29.75 77.511719 29 80.0625 28.777344 C 82.535156 28.476562 85.234375 28.625 87.707031 29.152344 C 90.179688 29.675781 92.65625 30.726562 94.828125 32 C 97.003906 33.273438 99.027344 35.074219 100.675781 36.949219 C 102.324219 38.898438 103.675781 41.21875 104.574219 43.542969 C 105.546875 45.867188 106.148438 48.492188 106.222656 51.039062 C 106.375 53.515625 106.074219 56.214844 105.398438 58.613281 C 104.722656 61.085938 103.597656 63.484375 102.175781 65.582031 C 100.824219 67.683594 98.953125 69.632812 96.925781 71.128906 C 94.902344 72.707031 92.578125 73.90625 90.179688 74.730469 C 87.78125 75.554688 84.933594 75.855469 82.609375 76.003906 C 80.585938 76.078125 78.785156 75.929688 76.914062 75.628906 C 75.039062 75.253906 73.164062 74.652344 71.441406 73.90625 C 69.714844 73.15625 68.066406 72.105469 66.566406 70.90625 C 65.066406 69.78125 63.71875 68.355469 62.519531 66.859375 C 61.320312 65.359375 60.34375 63.710938 59.597656 61.984375 C 58.769531 60.261719 58.246094 58.386719 57.871094 56.511719 C 57.570312 54.640625 57.421875 52.691406 57.570312 50.816406 C 57.648438 48.941406 58.023438 46.992188 58.621094 45.195312 C 59.144531 43.394531 59.972656 41.59375 60.945312 39.945312 C 61.917969 38.371094 63.121094 36.796875 64.46875 35.449219 C 65.816406 34.175781 67.390625 32.972656 68.964844 32 C 70.617188 31.027344 72.414062 30.199219 74.214844 29.601562 C 76.011719 29.078125 79.835938 28.625 79.835938 28.625 " clip-rule="nonzero"/></clipPath><clipPath id="9e961d235d"><path d="M 0.492188 0.546875 L 49.28125 0.546875 L 49.28125 48.082031 L 0.492188 48.082031 Z M 0.492188 0.546875 " clip-rule="nonzero"/></clipPath><clipPath id="f872555bc4"><path d="M 25.609375 0.625 C 35.578125 2.652344 37.902344 3.925781 39.925781 5.425781 C 41.953125 7 43.824219 8.949219 45.175781 10.972656 C 46.597656 13.070312 47.722656 15.542969 48.398438 17.941406 C 49.074219 20.417969 49.375 23.039062 49.222656 25.589844 C 49.148438 28.0625 48.546875 30.6875 47.574219 33.085938 C 46.675781 35.410156 45.25 37.734375 43.675781 39.609375 C 42.027344 41.554688 40.003906 43.28125 37.828125 44.554688 C 35.65625 45.90625 33.179688 46.878906 30.707031 47.402344 C 28.234375 47.929688 25.535156 48.078125 23.0625 47.855469 C 20.511719 47.554688 17.964844 46.804688 15.640625 45.753906 C 13.390625 44.707031 11.140625 43.207031 9.34375 41.480469 C 7.46875 39.757812 5.894531 37.582031 4.695312 35.410156 C 3.496094 33.160156 2.671875 30.613281 2.222656 28.136719 C 1.847656 25.664062 1.847656 22.964844 2.222656 20.492188 C 2.671875 17.941406 3.496094 15.394531 4.695312 13.21875 C 5.894531 10.972656 7.46875 8.796875 9.34375 7.074219 C 11.140625 5.347656 13.390625 3.851562 15.640625 2.800781 C 17.964844 1.75 20.511719 1 23.0625 0.777344 C 25.535156 0.476562 28.234375 0.625 30.707031 1.152344 C 33.179688 1.675781 35.65625 2.726562 37.828125 4 C 40.003906 5.273438 42.027344 7.074219 43.675781 8.949219 C 45.324219 10.898438 46.675781 13.21875 47.574219 15.542969 C 48.546875 17.867188 49.148438 20.492188 49.222656 23.039062 C 49.375 25.515625 49.074219 28.214844 48.398438 30.613281 C 47.722656 33.085938 46.597656 35.484375 45.175781 37.582031 C 43.824219 39.683594 41.953125 41.632812 39.925781 43.128906 C 37.902344 44.707031 35.578125 45.90625 33.179688 46.730469 C 30.78125 47.554688 27.933594 47.855469 25.609375 48.003906 C 23.585938 48.078125 21.785156 47.929688 19.914062 47.628906 C 18.039062 47.253906 16.164062 46.652344 14.441406 45.90625 C 12.714844 45.15625 11.066406 44.105469 9.566406 42.90625 C 8.066406 41.78125 6.71875 40.355469 5.519531 38.859375 C 4.320312 37.359375 3.34375 35.710938 2.597656 33.984375 C 1.769531 32.261719 1.246094 30.386719 0.871094 28.511719 C 0.570312 26.640625 0.421875 24.691406 0.570312 22.816406 C 0.648438 20.941406 1.023438 18.992188 1.621094 17.195312 C 2.144531 15.394531 2.972656 13.59375 3.945312 11.945312 C 4.917969 10.371094 6.121094 8.796875 7.46875 7.449219 C 8.816406 6.175781 10.390625 4.972656 11.964844 4 C 13.617188 3.027344 15.414062 2.199219 17.214844 1.601562 C 19.011719 1.078125 22.835938 0.625 22.835938 0.625 " clip-rule="nonzero"/></clipPath><clipPath id="2e67d96b6b"><rect x="0" width="50" y="0" height="49"/></clipPath><clipPath id="71857e406b"><path d="M 160.414062 27.644531 L 207.882812 27.644531 L 207.882812 75.527344 L 160.414062 75.527344 Z M 160.414062 27.644531 " clip-rule="nonzero"/></clipPath><clipPath id="bb68d2634d"><path d="M 160.496094 51.339844 C 162.519531 41.445312 163.796875 39.046875 165.292969 37.097656 C 166.867188 35.074219 168.816406 33.199219 170.839844 31.773438 C 172.941406 30.425781 175.414062 29.300781 177.8125 28.625 C 180.210938 27.953125 182.910156 27.652344 185.382812 27.800781 C 187.933594 27.878906 190.558594 28.476562 192.878906 29.375 C 195.203125 30.351562 197.527344 31.699219 199.476562 33.347656 C 201.351562 35 203.074219 37.023438 204.425781 39.195312 C 205.699219 41.371094 206.675781 43.84375 207.199219 46.316406 C 207.796875 48.71875 207.875 51.414062 207.648438 53.890625 C 207.347656 56.4375 206.675781 58.988281 205.625 61.3125 C 204.5 63.558594 203 65.808594 201.277344 67.609375 C 199.550781 69.480469 197.453125 71.054688 195.203125 72.253906 C 192.957031 73.453125 190.40625 74.28125 187.933594 74.730469 C 185.460938 75.105469 182.761719 75.105469 180.285156 74.652344 C 177.8125 74.28125 175.265625 73.453125 173.089844 72.253906 C 170.839844 71.054688 168.667969 69.480469 166.945312 67.609375 C 165.21875 65.808594 163.71875 63.558594 162.671875 61.3125 C 161.621094 58.988281 160.945312 56.4375 160.648438 53.890625 C 160.347656 51.414062 160.496094 48.71875 161.019531 46.316406 C 161.621094 43.84375 162.59375 41.296875 163.871094 39.195312 C 165.21875 37.023438 166.945312 35 168.816406 33.347656 C 170.765625 31.699219 173.089844 30.351562 175.414062 29.375 C 177.738281 28.476562 180.363281 27.878906 182.835938 27.726562 C 185.382812 27.652344 188.007812 27.953125 190.480469 28.625 C 192.878906 29.300781 195.355469 30.425781 197.378906 31.773438 C 199.476562 33.199219 201.425781 35.074219 202.925781 37.097656 C 204.5 39.046875 205.699219 41.445312 206.523438 43.84375 C 207.347656 46.242188 207.722656 49.015625 207.796875 51.339844 C 207.875 53.363281 207.648438 55.164062 207.199219 57.039062 C 206.75 58.910156 206.148438 60.710938 205.25 62.433594 C 204.425781 64.085938 203.375 65.734375 202.101562 67.15625 C 200.902344 68.582031 199.476562 69.929688 197.976562 71.054688 C 196.402344 72.105469 194.679688 73.078125 192.957031 73.753906 C 191.230469 74.503906 189.28125 74.953125 187.410156 75.253906 C 185.609375 75.480469 183.585938 75.554688 181.710938 75.328125 C 179.835938 75.179688 177.964844 74.730469 176.164062 74.128906 C 174.441406 73.453125 172.640625 72.554688 171.066406 71.503906 C 169.492188 70.53125 167.992188 69.257812 166.71875 67.832031 C 165.445312 66.484375 164.320312 64.910156 163.421875 63.183594 C 162.519531 61.535156 161.769531 59.738281 161.320312 57.9375 C 160.796875 56.136719 160.496094 52.316406 160.496094 52.316406 " clip-rule="nonzero"/></clipPath><clipPath id="56a28a87bd"><path d="M 0.414062 0.644531 L 47.882812 0.644531 L 47.882812 48.527344 L 0.414062 48.527344 Z M 0.414062 0.644531 " clip-rule="nonzero"/></clipPath><clipPath id="305c334fd9"><path d="M 0.496094 24.339844 C 2.519531 14.445312 3.796875 12.046875 5.292969 10.097656 C 6.867188 8.074219 8.816406 6.199219 10.839844 4.773438 C 12.941406 3.425781 15.414062 2.300781 17.8125 1.625 C 20.210938 0.953125 22.910156 0.652344 25.382812 0.800781 C 27.933594 0.878906 30.558594 1.476562 32.878906 2.375 C 35.203125 3.351562 37.527344 4.699219 39.476562 6.347656 C 41.351562 8 43.074219 10.023438 44.425781 12.195312 C 45.699219 14.371094 46.675781 16.84375 47.199219 19.316406 C 47.796875 21.71875 47.875 24.414062 47.648438 26.890625 C 47.347656 29.4375 46.675781 31.988281 45.625 34.3125 C 44.5 36.558594 43 38.808594 41.277344 40.609375 C 39.550781 42.480469 37.453125 44.054688 35.203125 45.253906 C 32.957031 46.453125 30.40625 47.28125 27.933594 47.730469 C 25.460938 48.105469 22.761719 48.105469 20.285156 47.652344 C 17.8125 47.28125 15.265625 46.453125 13.089844 45.253906 C 10.839844 44.054688 8.667969 42.480469 6.945312 40.609375 C 5.21875 38.808594 3.71875 36.558594 2.671875 34.3125 C 1.621094 31.988281 0.945312 29.4375 0.648438 26.890625 C 0.347656 24.414062 0.496094 21.71875 1.019531 19.316406 C 1.621094 16.84375 2.59375 14.296875 3.871094 12.195312 C 5.21875 10.023438 6.945312 8 8.816406 6.347656 C 10.765625 4.699219 13.089844 3.351562 15.414062 2.375 C 17.738281 1.476562 20.363281 0.878906 22.835938 0.726562 C 25.382812 0.652344 28.007812 0.953125 30.480469 1.625 C 32.878906 2.300781 35.355469 3.425781 37.378906 4.773438 C 39.476562 6.199219 41.425781 8.074219 42.925781 10.097656 C 44.5 12.046875 45.699219 14.445312 46.523438 16.84375 C 47.347656 19.242188 47.722656 22.015625 47.796875 24.339844 C 47.875 26.363281 47.648438 28.164062 47.199219 30.039062 C 46.75 31.910156 46.148438 33.710938 45.25 35.433594 C 44.425781 37.085938 43.375 38.734375 42.101562 40.15625 C 40.902344 41.582031 39.476562 42.929688 37.976562 44.054688 C 36.402344 45.105469 34.679688 46.078125 32.957031 46.753906 C 31.230469 47.503906 29.28125 47.953125 27.410156 48.253906 C 25.609375 48.480469 23.585938 48.554688 21.710938 48.328125 C 19.835938 48.179688 17.964844 47.730469 16.164062 47.128906 C 14.441406 46.453125 12.640625 45.554688 11.066406 44.503906 C 9.492188 43.53125 7.992188 42.257812 6.71875 40.832031 C 5.445312 39.484375 4.320312 37.910156 3.421875 36.183594 C 2.519531 34.535156 1.769531 32.738281 1.320312 30.9375 C 0.796875 29.136719 0.496094 25.316406 0.496094 25.316406 " clip-rule="nonzero"/></clipPath><clipPath id="2a94c0a100"><rect x="0" width="48" y="0" height="49"/></clipPath><clipPath id="fe4937c1ca"><path d="M 159.339844 31.703125 L 205.582031 31.703125 L 205.582031 79.183594 L 159.339844 79.183594 Z M 159.339844 31.703125 " clip-rule="nonzero"/></clipPath><clipPath id="0f23baebbb"><path d="M 205.550781 48.417969 C 205.625 63.257812 203.902344 67.082031 201.652344 70.007812 C 199.328125 72.855469 196.03125 75.480469 192.730469 76.976562 C 189.359375 78.476562 185.234375 79.226562 181.636719 79.003906 C 177.964844 78.777344 173.914062 77.503906 170.839844 75.628906 C 167.691406 73.753906 164.695312 70.757812 162.820312 67.683594 C 160.945312 64.535156 159.671875 60.484375 159.445312 56.886719 C 159.222656 53.214844 159.972656 49.089844 161.472656 45.71875 C 162.96875 42.417969 165.59375 39.121094 168.441406 36.871094 C 171.367188 34.625 175.191406 32.898438 178.789062 32.226562 C 182.386719 31.550781 186.582031 31.773438 190.03125 32.898438 C 193.554688 33.949219 199.703125 38.746094 199.703125 38.746094 " clip-rule="nonzero"/></clipPath><clipPath id="9fe973066d"><path d="M 0.339844 0.703125 L 46.582031 0.703125 L 46.582031 48.183594 L 0.339844 48.183594 Z M 0.339844 0.703125 " clip-rule="nonzero"/></clipPath><clipPath id="a9ceefe692"><path d="M 46.550781 17.417969 C 46.625 32.257812 44.902344 36.082031 42.652344 39.007812 C 40.328125 41.855469 37.03125 44.480469 33.730469 45.976562 C 30.359375 47.476562 26.234375 48.226562 22.636719 48.003906 C 18.964844 47.777344 14.914062 46.503906 11.839844 44.628906 C 8.691406 42.753906 5.695312 39.757812 3.820312 36.683594 C 1.945312 33.535156 0.671875 29.484375 0.445312 25.886719 C 0.222656 22.214844 0.972656 18.089844 2.472656 14.71875 C 3.96875 11.417969 6.59375 8.121094 9.441406 5.871094 C 12.367188 3.625 16.191406 1.898438 19.789062 1.226562 C 23.386719 0.550781 27.582031 0.773438 31.03125 1.898438 C 34.554688 2.949219 40.703125 7.746094 40.703125 7.746094 " clip-rule="nonzero"/></clipPath><clipPath id="64c26084b6"><rect x="0" width="47" y="0" height="49"/></clipPath><clipPath id="54bfc25401"><path d="M 159.265625 32.753906 L 205.507812 32.753906 L 205.507812 80.234375 L 159.265625 80.234375 Z M 159.265625 32.753906 " clip-rule="nonzero"/></clipPath><clipPath id="d36bf19cc1"><path d="M 205.476562 49.464844 C 205.476562 64.382812 203.75 68.207031 201.5 71.054688 C 199.253906 73.980469 195.953125 76.527344 192.582031 78.027344 C 189.28125 79.527344 185.160156 80.277344 181.488281 80.050781 C 177.8125 79.828125 173.839844 78.628906 170.691406 76.753906 C 167.542969 74.804688 164.621094 71.878906 162.671875 68.730469 C 160.796875 65.582031 159.597656 61.609375 159.371094 57.9375 C 159.148438 54.265625 159.898438 50.140625 161.394531 46.84375 C 162.894531 43.46875 165.445312 40.171875 168.367188 37.921875 C 171.214844 35.671875 175.039062 33.949219 178.636719 33.273438 C 182.234375 32.601562 186.433594 32.898438 189.957031 33.949219 C 193.40625 35.074219 199.628906 39.796875 199.628906 39.796875 " clip-rule="nonzero"/></clipPath><clipPath id="2d151893be"><path d="M 0.265625 0.753906 L 46.507812 0.753906 L 46.507812 48.234375 L 0.265625 48.234375 Z M 0.265625 0.753906 " clip-rule="nonzero"/></clipPath><clipPath id="ed6bc1aca4"><path d="M 46.476562 17.464844 C 46.476562 32.382812 44.75 36.207031 42.5 39.054688 C 40.253906 41.980469 36.953125 44.527344 33.582031 46.027344 C 30.28125 47.527344 26.160156 48.277344 22.488281 48.050781 C 18.8125 47.828125 14.839844 46.628906 11.691406 44.753906 C 8.542969 42.804688 5.621094 39.878906 3.671875 36.730469 C 1.796875 33.582031 0.597656 29.609375 0.371094 25.9375 C 0.148438 22.265625 0.898438 18.140625 2.394531 14.84375 C 3.894531 11.46875 6.445312 8.171875 9.367188 5.921875 C 12.214844 3.671875 16.039062 1.949219 19.636719 1.273438 C 23.234375 0.601562 27.433594 0.898438 30.957031 1.949219 C 34.40625 3.074219 40.628906 7.796875 40.628906 7.796875 " clip-rule="nonzero"/></clipPath><clipPath id="a2ae63e56a"><rect x="0" width="47" y="0" height="49"/></clipPath><clipPath id="d951e9870f"><path d="M 158.289062 33.277344 L 204.53125 33.277344 L 204.53125 80.757812 L 158.289062 80.757812 Z M 158.289062 33.277344 " clip-rule="nonzero"/></clipPath><clipPath id="b1c25a821b"><path d="M 204.5 49.992188 C 204.5 64.832031 202.777344 68.65625 200.527344 71.582031 C 198.277344 74.429688 194.980469 77.054688 191.605469 78.550781 C 188.308594 80.050781 184.183594 80.800781 180.511719 80.578125 C 176.839844 80.351562 172.867188 79.078125 169.71875 77.203125 C 166.570312 75.328125 163.644531 72.332031 161.769531 69.183594 C 159.820312 66.109375 158.621094 62.058594 158.398438 58.386719 C 158.171875 54.789062 158.921875 50.664062 160.421875 47.292969 C 161.921875 43.992188 164.542969 40.621094 167.394531 38.371094 C 170.242188 36.121094 174.066406 34.398438 177.664062 33.800781 C 181.261719 33.125 185.460938 33.347656 188.984375 34.472656 C 192.507812 35.523438 198.652344 40.320312 198.652344 40.320312 " clip-rule="nonzero"/></clipPath><clipPath id="2b3a38fde8"><path d="M 0.289062 0.277344 L 46.53125 0.277344 L 46.53125 47.757812 L 0.289062 47.757812 Z M 0.289062 0.277344 " clip-rule="nonzero"/></clipPath><clipPath id="392387973b"><path d="M 46.5 16.992188 C 46.5 31.832031 44.777344 35.65625 42.527344 38.582031 C 40.277344 41.429688 36.980469 44.054688 33.605469 45.550781 C 30.308594 47.050781 26.183594 47.800781 22.511719 47.578125 C 18.839844 47.351562 14.867188 46.078125 11.71875 44.203125 C 8.570312 42.328125 5.644531 39.332031 3.769531 36.183594 C 1.820312 33.109375 0.621094 29.058594 0.398438 25.386719 C 0.171875 21.789062 0.921875 17.664062 2.421875 14.292969 C 3.921875 10.992188 6.542969 7.621094 9.394531 5.371094 C 12.242188 3.121094 16.066406 1.398438 19.664062 0.800781 C 23.261719 0.125 27.460938 0.347656 30.984375 1.472656 C 34.507812 2.523438 40.652344 7.320312 40.652344 7.320312 " clip-rule="nonzero"/></clipPath><clipPath id="6712f1f049"><rect x="0" width="47" y="0" height="48"/></clipPath><clipPath id="061e0b17ed"><path d="M 157.785156 34 L 205.1875 34 L 205.1875 81.5625 L 157.785156 81.5625 Z M 157.785156 34 " clip-rule="nonzero"/></clipPath><clipPath id="10cefe7f07"><path d="M 205.101562 57.863281 C 203.074219 67.757812 201.800781 70.15625 200.300781 72.105469 C 198.726562 74.128906 196.777344 76.003906 194.753906 77.351562 C 192.65625 78.777344 190.183594 79.902344 187.785156 80.578125 C 185.382812 81.25 182.6875 81.550781 180.210938 81.402344 C 177.664062 81.25 175.039062 80.726562 172.714844 79.75 C 170.390625 78.851562 168.066406 77.429688 166.195312 75.855469 C 164.246094 74.203125 162.519531 72.179688 161.246094 70.007812 C 159.972656 67.832031 158.921875 65.359375 158.398438 62.886719 C 157.871094 60.484375 157.722656 57.789062 158.023438 55.3125 C 158.246094 52.765625 158.996094 50.214844 160.046875 47.890625 C 161.097656 45.644531 162.59375 43.394531 164.320312 41.59375 C 166.042969 39.796875 168.21875 38.148438 170.390625 36.949219 C 172.640625 35.75 175.191406 34.921875 177.664062 34.546875 C 180.136719 34.097656 182.835938 34.097656 185.308594 34.546875 C 187.785156 34.921875 190.332031 35.824219 192.507812 36.949219 C 194.753906 38.148438 196.929688 39.796875 198.652344 41.59375 C 200.378906 43.394531 201.875 45.644531 202.925781 47.890625 C 203.976562 50.214844 204.648438 52.765625 204.949219 55.3125 C 205.25 57.789062 205.101562 60.484375 204.574219 62.886719 C 203.976562 65.359375 203 67.832031 201.726562 70.007812 C 200.378906 72.179688 198.652344 74.203125 196.777344 75.855469 C 194.828125 77.429688 192.582031 78.851562 190.183594 79.75 C 187.859375 80.726562 185.234375 81.25 182.761719 81.402344 C 180.210938 81.550781 177.589844 81.25 175.113281 80.578125 C 172.714844 79.902344 170.316406 78.777344 168.21875 77.351562 C 166.117188 76.003906 164.167969 74.128906 162.671875 72.105469 C 161.171875 70.15625 159.898438 67.757812 159.074219 65.359375 C 158.246094 62.960938 157.871094 60.1875 157.871094 57.863281 C 157.796875 55.839844 158.097656 54.039062 158.472656 52.164062 C 158.921875 50.367188 159.597656 48.492188 160.496094 46.84375 C 161.394531 45.195312 162.445312 43.542969 163.71875 42.121094 C 164.917969 40.695312 166.417969 39.421875 167.992188 38.371094 C 169.492188 37.246094 171.214844 36.347656 173.015625 35.671875 C 174.738281 35 176.613281 34.546875 178.488281 34.25 C 180.363281 34.023438 182.3125 34.023438 184.183594 34.25 C 186.058594 34.472656 188.007812 34.921875 189.730469 35.597656 C 191.53125 36.273438 193.253906 37.171875 194.753906 38.222656 C 196.328125 39.269531 197.828125 40.546875 199.101562 41.96875 C 200.300781 43.394531 201.425781 44.96875 202.328125 46.617188 C 203.226562 48.265625 203.902344 50.140625 204.351562 51.941406 C 204.800781 53.738281 205.101562 57.5625 205.101562 57.5625 " clip-rule="nonzero"/></clipPath><clipPath id="4e6ebf4b34"><path d="M 0.785156 0 L 48.1875 0 L 48.1875 47.5625 L 0.785156 47.5625 Z M 0.785156 0 " clip-rule="nonzero"/></clipPath><clipPath id="ab072f7fcd"><path d="M 48.101562 23.863281 C 46.074219 33.757812 44.800781 36.15625 43.300781 38.105469 C 41.726562 40.128906 39.777344 42.003906 37.753906 43.351562 C 35.65625 44.777344 33.183594 45.902344 30.785156 46.578125 C 28.382812 47.25 25.6875 47.550781 23.210938 47.402344 C 20.664062 47.25 18.039062 46.726562 15.714844 45.75 C 13.390625 44.851562 11.066406 43.429688 9.195312 41.855469 C 7.246094 40.203125 5.519531 38.179688 4.246094 36.007812 C 2.972656 33.832031 1.921875 31.359375 1.398438 28.886719 C 0.871094 26.484375 0.722656 23.789062 1.023438 21.3125 C 1.246094 18.765625 1.996094 16.214844 3.046875 13.890625 C 4.097656 11.644531 5.59375 9.394531 7.320312 7.59375 C 9.042969 5.796875 11.21875 4.148438 13.390625 2.949219 C 15.640625 1.75 18.191406 0.921875 20.664062 0.546875 C 23.136719 0.0976562 25.835938 0.0976562 28.308594 0.546875 C 30.785156 0.921875 33.332031 1.824219 35.507812 2.949219 C 37.753906 4.148438 39.929688 5.796875 41.652344 7.59375 C 43.378906 9.394531 44.875 11.644531 45.925781 13.890625 C 46.976562 16.214844 47.648438 18.765625 47.949219 21.3125 C 48.25 23.789062 48.101562 26.484375 47.574219 28.886719 C 46.976562 31.359375 46 33.832031 44.726562 36.007812 C 43.378906 38.179688 41.652344 40.203125 39.777344 41.855469 C 37.828125 43.429688 35.582031 44.851562 33.183594 45.75 C 30.859375 46.726562 28.234375 47.25 25.761719 47.402344 C 23.210938 47.550781 20.589844 47.25 18.113281 46.578125 C 15.714844 45.902344 13.316406 44.777344 11.21875 43.351562 C 9.117188 42.003906 7.167969 40.128906 5.671875 38.105469 C 4.171875 36.15625 2.898438 33.757812 2.074219 31.359375 C 1.246094 28.960938 0.871094 26.1875 0.871094 23.863281 C 0.796875 21.839844 1.097656 20.039062 1.472656 18.164062 C 1.921875 16.367188 2.597656 14.492188 3.496094 12.84375 C 4.394531 11.195312 5.445312 9.542969 6.71875 8.121094 C 7.917969 6.695312 9.417969 5.421875 10.992188 4.371094 C 12.492188 3.246094 14.214844 2.347656 16.015625 1.671875 C 17.738281 1 19.613281 0.546875 21.488281 0.25 C 23.363281 0.0234375 25.3125 0.0234375 27.183594 0.25 C 29.058594 0.472656 31.007812 0.921875 32.730469 1.597656 C 34.53125 2.273438 36.253906 3.171875 37.753906 4.222656 C 39.328125 5.269531 40.828125 6.546875 42.101562 7.96875 C 43.300781 9.394531 44.425781 10.96875 45.328125 12.617188 C 46.226562 14.265625 46.902344 16.140625 47.351562 17.941406 C 47.800781 19.738281 48.101562 23.5625 48.101562 23.5625 " clip-rule="nonzero"/></clipPath><clipPath id="2f89a95241"><rect x="0" width="49" y="0" height="48"/></clipPath><clipPath id="4a9031bdd7"><path d="M 158.289062 33.503906 L 204.53125 33.503906 L 204.53125 80.984375 L 158.289062 80.984375 Z M 158.289062 33.503906 " clip-rule="nonzero"/></clipPath><clipPath id="70660501e2"><path d="M 204.5 50.214844 C 204.5 65.058594 202.777344 68.882812 200.527344 71.804688 C 198.277344 74.652344 194.980469 77.277344 191.605469 78.777344 C 188.308594 80.277344 184.183594 81.027344 180.511719 80.800781 C 176.839844 80.578125 172.867188 79.300781 169.71875 77.429688 C 166.570312 75.554688 163.644531 72.554688 161.769531 69.480469 C 159.820312 66.332031 158.621094 62.285156 158.398438 58.6875 C 158.171875 55.015625 158.921875 50.890625 160.421875 47.515625 C 161.921875 44.21875 164.542969 40.921875 167.394531 38.671875 C 170.242188 36.421875 174.066406 34.699219 177.664062 34.023438 C 181.261719 33.347656 185.460938 33.574219 188.984375 34.699219 C 192.507812 35.75 198.652344 40.546875 198.652344 40.546875 " clip-rule="nonzero"/></clipPath><clipPath id="4850f684f7"><path d="M 0.289062 0.503906 L 46.53125 0.503906 L 46.53125 47.984375 L 0.289062 47.984375 Z M 0.289062 0.503906 " clip-rule="nonzero"/></clipPath><clipPath id="07f857d518"><path d="M 46.5 17.214844 C 46.5 32.058594 44.777344 35.882812 42.527344 38.804688 C 40.277344 41.652344 36.980469 44.277344 33.605469 45.777344 C 30.308594 47.277344 26.183594 48.027344 22.511719 47.800781 C 18.839844 47.578125 14.867188 46.300781 11.71875 44.429688 C 8.570312 42.554688 5.644531 39.554688 3.769531 36.480469 C 1.820312 33.332031 0.621094 29.285156 0.398438 25.6875 C 0.171875 22.015625 0.921875 17.890625 2.421875 14.515625 C 3.921875 11.21875 6.542969 7.921875 9.394531 5.671875 C 12.242188 3.421875 16.066406 1.699219 19.664062 1.023438 C 23.261719 0.347656 27.460938 0.574219 30.984375 1.699219 C 34.507812 2.75 40.652344 7.546875 40.652344 7.546875 " clip-rule="nonzero"/></clipPath><clipPath id="6fc55dd8a2"><rect x="0" width="47" y="0" height="48"/></clipPath><clipPath id="38a5813bb3"><path d="M 159.714844 33.578125 L 205.957031 33.578125 L 205.957031 81 L 159.714844 81 Z M 159.714844 33.578125 " clip-rule="nonzero"/></clipPath><clipPath id="1f5355eda0"><path d="M 205.925781 50.292969 C 205.925781 65.207031 204.199219 69.03125 201.953125 71.878906 C 199.703125 74.804688 196.402344 77.351562 193.105469 78.851562 C 189.730469 80.351562 185.609375 81.175781 181.9375 80.949219 C 178.339844 80.726562 174.289062 79.453125 171.140625 77.578125 C 168.066406 75.703125 165.070312 72.707031 163.195312 69.554688 C 161.320312 66.40625 160.046875 62.433594 159.820312 58.761719 C 159.597656 55.089844 160.347656 50.964844 161.847656 47.667969 C 163.34375 44.292969 165.96875 40.996094 168.816406 38.746094 C 171.742188 36.496094 175.5625 34.773438 179.164062 34.097656 C 182.761719 33.5 186.957031 33.722656 190.40625 34.773438 C 193.929688 35.898438 200.078125 40.695312 200.078125 40.695312 " clip-rule="nonzero"/></clipPath><clipPath id="ae36640db4"><path d="M 0.714844 0.578125 L 46.957031 0.578125 L 46.957031 48 L 0.714844 48 Z M 0.714844 0.578125 " clip-rule="nonzero"/></clipPath><clipPath id="46ba70456b"><path d="M 46.925781 17.292969 C 46.925781 32.207031 45.199219 36.03125 42.953125 38.878906 C 40.703125 41.804688 37.402344 44.351562 34.105469 45.851562 C 30.730469 47.351562 26.609375 48.175781 22.9375 47.949219 C 19.339844 47.726562 15.289062 46.453125 12.140625 44.578125 C 9.066406 42.703125 6.070312 39.707031 4.195312 36.554688 C 2.320312 33.40625 1.046875 29.433594 0.820312 25.761719 C 0.597656 22.089844 1.347656 17.964844 2.847656 14.667969 C 4.34375 11.292969 6.96875 7.996094 9.816406 5.746094 C 12.742188 3.496094 16.5625 1.773438 20.164062 1.097656 C 23.761719 0.5 27.957031 0.722656 31.40625 1.773438 C 34.929688 2.898438 41.078125 7.695312 41.078125 7.695312 " clip-rule="nonzero"/></clipPath><clipPath id="d89bb5b06d"><rect x="0" width="47" y="0" height="48"/></clipPath><clipPath id="d30dbcbcaf"><path d="M 159.5625 33.726562 L 206 33.726562 L 206 81.210938 L 159.5625 81.210938 Z M 159.5625 33.726562 " clip-rule="nonzero"/></clipPath><clipPath id="9ad69e90e9"><path d="M 205.847656 50.441406 C 205.847656 65.359375 204.125 69.183594 201.875 72.03125 C 199.628906 74.878906 196.328125 77.503906 192.957031 79.003906 C 189.65625 80.5 185.460938 81.25 181.859375 81.027344 C 178.1875 80.800781 174.214844 79.601562 171.066406 77.652344 C 167.917969 75.777344 164.917969 72.78125 163.046875 69.707031 C 161.171875 66.558594 159.898438 62.511719 159.671875 58.910156 C 159.445312 55.238281 160.273438 51.117188 161.769531 47.742188 C 163.269531 44.445312 165.820312 41.144531 168.742188 38.898438 C 171.589844 36.648438 175.414062 34.921875 179.011719 34.25 C 182.609375 33.574219 186.808594 33.875 190.332031 34.921875 C 193.78125 36.046875 200.003906 40.769531 200.003906 40.769531 " clip-rule="nonzero"/></clipPath><clipPath id="7d11540ebe"><path d="M 0.5625 0.726562 L 47 0.726562 L 47 48.210938 L 0.5625 48.210938 Z M 0.5625 0.726562 " clip-rule="nonzero"/></clipPath><clipPath id="1df829cb42"><path d="M 46.847656 17.441406 C 46.847656 32.359375 45.125 36.183594 42.875 39.03125 C 40.628906 41.878906 37.328125 44.503906 33.957031 46.003906 C 30.65625 47.5 26.460938 48.25 22.859375 48.027344 C 19.1875 47.800781 15.214844 46.601562 12.066406 44.652344 C 8.917969 42.777344 5.917969 39.78125 4.046875 36.707031 C 2.171875 33.558594 0.898438 29.511719 0.671875 25.910156 C 0.445312 22.238281 1.273438 18.117188 2.769531 14.742188 C 4.269531 11.445312 6.820312 8.144531 9.742188 5.898438 C 12.589844 3.648438 16.414062 1.921875 20.011719 1.25 C 23.609375 0.574219 27.808594 0.875 31.332031 1.921875 C 34.78125 3.046875 41.003906 7.769531 41.003906 7.769531 " clip-rule="nonzero"/></clipPath><clipPath id="49ae0432dc"><rect x="0" width="47" y="0" height="49"/></clipPath><clipPath id="1f6a60e490"><path d="M 163.535156 29.679688 L 209.78125 29.679688 L 209.78125 77.160156 L 163.535156 77.160156 Z M 163.535156 29.679688 " clip-rule="nonzero"/></clipPath><clipPath id="118fc41a84"><path d="M 209.746094 46.394531 C 209.824219 61.234375 208.097656 65.058594 205.847656 67.980469 C 203.527344 70.832031 200.226562 73.453125 196.929688 74.953125 C 193.554688 76.453125 189.433594 77.203125 185.835938 76.976562 C 182.160156 76.753906 178.113281 75.480469 175.039062 73.605469 C 171.890625 71.730469 168.890625 68.730469 167.019531 65.582031 C 165.144531 62.511719 163.871094 58.460938 163.644531 54.789062 C 163.421875 51.191406 164.167969 47.066406 165.667969 43.695312 C 167.167969 40.394531 169.792969 37.023438 172.640625 34.773438 C 175.5625 32.523438 179.386719 30.800781 182.984375 30.199219 C 186.582031 29.527344 190.78125 29.75 194.230469 30.875 C 197.753906 31.925781 203.902344 36.722656 203.902344 36.722656 " clip-rule="nonzero"/></clipPath><clipPath id="cf590c43ac"><path d="M 0.535156 0.679688 L 46.78125 0.679688 L 46.78125 48.160156 L 0.535156 48.160156 Z M 0.535156 0.679688 " clip-rule="nonzero"/></clipPath><clipPath id="6cfd0acd1c"><path d="M 46.746094 17.394531 C 46.824219 32.234375 45.097656 36.058594 42.847656 38.980469 C 40.527344 41.832031 37.226562 44.453125 33.929688 45.953125 C 30.554688 47.453125 26.433594 48.203125 22.835938 47.976562 C 19.160156 47.753906 15.113281 46.480469 12.039062 44.605469 C 8.890625 42.730469 5.890625 39.730469 4.019531 36.582031 C 2.144531 33.511719 0.871094 29.460938 0.644531 25.789062 C 0.421875 22.191406 1.167969 18.066406 2.667969 14.695312 C 4.167969 11.394531 6.792969 8.023438 9.640625 5.773438 C 12.5625 3.523438 16.386719 1.800781 19.984375 1.199219 C 23.582031 0.527344 27.78125 0.75 31.230469 1.875 C 34.753906 2.925781 40.902344 7.722656 40.902344 7.722656 " clip-rule="nonzero"/></clipPath><clipPath id="8b8bad2bd9"><rect x="0" width="47" y="0" height="49"/></clipPath><clipPath id="da4e8ea411"><path d="M 161.136719 32.078125 L 207.382812 32.078125 L 207.382812 79.558594 L 161.136719 79.558594 Z M 161.136719 32.078125 " clip-rule="nonzero"/></clipPath><clipPath id="5a193ee508"><path d="M 207.347656 48.792969 C 207.421875 63.632812 205.699219 67.457031 203.449219 70.382812 C 201.125 73.230469 197.828125 75.855469 194.53125 77.351562 C 191.15625 78.851562 187.035156 79.601562 183.433594 79.375 C 179.761719 79.152344 175.714844 77.878906 172.640625 76.003906 C 169.492188 74.128906 166.492188 71.128906 164.621094 67.980469 C 162.746094 64.910156 161.472656 60.859375 161.246094 57.1875 C 161.019531 53.589844 161.769531 49.464844 163.269531 46.09375 C 164.769531 42.792969 167.394531 39.421875 170.242188 37.171875 C 173.164062 34.921875 176.988281 33.199219 180.585938 32.601562 C 184.183594 31.925781 188.382812 32.148438 191.832031 33.273438 C 195.355469 34.324219 201.5 39.121094 201.5 39.121094 " clip-rule="nonzero"/></clipPath><clipPath id="2957d38b9a"><path d="M 0.136719 0.078125 L 46.382812 0.078125 L 46.382812 47.558594 L 0.136719 47.558594 Z M 0.136719 0.078125 " clip-rule="nonzero"/></clipPath><clipPath id="08d4794a69"><path d="M 46.347656 16.792969 C 46.421875 31.632812 44.699219 35.457031 42.449219 38.382812 C 40.125 41.230469 36.828125 43.855469 33.53125 45.351562 C 30.15625 46.851562 26.035156 47.601562 22.433594 47.375 C 18.761719 47.152344 14.714844 45.878906 11.640625 44.003906 C 8.492188 42.128906 5.492188 39.128906 3.621094 35.980469 C 1.746094 32.910156 0.472656 28.859375 0.246094 25.1875 C 0.0195312 21.589844 0.769531 17.464844 2.269531 14.09375 C 3.769531 10.792969 6.394531 7.421875 9.242188 5.171875 C 12.164062 2.921875 15.988281 1.199219 19.585938 0.601562 C 23.183594 -0.0742188 27.382812 0.148438 30.832031 1.273438 C 34.355469 2.324219 40.5 7.121094 40.5 7.121094 " clip-rule="nonzero"/></clipPath><clipPath id="1b9202c47c"><rect x="0" width="47" y="0" height="48"/></clipPath><clipPath id="7b4cc6b3be"><path d="M 161.539062 31.542969 L 209 31.542969 L 209 79 L 161.539062 79 Z M 161.539062 31.542969 " clip-rule="nonzero"/></clipPath><clipPath id="836d31fb39"><path d="M 202.027344 38.597656 C 207.574219 47.066406 208.398438 49.617188 208.699219 52.089844 C 209.074219 54.640625 208.996094 57.261719 208.472656 59.738281 C 208.023438 62.210938 207.125 64.757812 205.847656 66.933594 C 204.648438 69.105469 202.925781 71.207031 201.050781 72.929688 C 199.179688 74.578125 196.929688 76.003906 194.679688 76.976562 C 192.355469 78.027344 189.730469 78.628906 187.257812 78.851562 C 184.710938 79.078125 182.011719 78.851562 179.613281 78.253906 C 177.136719 77.652344 174.738281 76.601562 172.566406 75.179688 C 170.46875 73.828125 168.441406 72.105469 166.867188 70.082031 C 165.292969 68.132812 164.019531 65.808594 163.121094 63.484375 C 162.296875 61.085938 161.769531 58.460938 161.695312 55.914062 C 161.621094 53.441406 161.996094 50.816406 162.746094 48.34375 C 163.496094 45.941406 164.695312 43.542969 166.117188 41.519531 C 167.617188 39.496094 169.492188 37.621094 171.515625 36.121094 C 173.539062 34.625 175.9375 33.5 178.414062 32.75 C 180.8125 32 183.433594 31.625 185.984375 31.699219 C 188.457031 31.773438 191.082031 32.300781 193.480469 33.125 C 195.804688 34.023438 198.128906 35.296875 200.078125 36.871094 C 202.101562 38.445312 203.824219 40.472656 205.25 42.570312 C 206.597656 44.742188 207.648438 47.140625 208.25 49.617188 C 208.847656 52.089844 209.074219 54.714844 208.847656 57.261719 C 208.625 59.738281 208.023438 62.359375 206.972656 64.683594 C 206 66.933594 204.574219 69.257812 202.925781 71.054688 C 201.203125 72.929688 199.101562 74.652344 196.929688 75.855469 C 194.753906 77.128906 192.207031 78.027344 189.730469 78.476562 C 187.257812 79.003906 184.636719 79.078125 182.085938 78.703125 C 179.613281 78.402344 177.0625 77.578125 174.816406 76.453125 C 172.566406 75.328125 170.316406 73.605469 168.59375 72.03125 C 167.167969 70.605469 166.042969 69.183594 165.070312 67.53125 C 164.09375 65.957031 163.269531 64.160156 162.671875 62.359375 C 162.144531 60.5625 161.769531 58.6875 161.621094 56.8125 C 161.472656 54.9375 161.621094 52.988281 161.921875 51.117188 C 162.222656 49.242188 162.820312 47.367188 163.570312 45.644531 C 164.320312 43.917969 165.371094 42.269531 166.492188 40.769531 C 167.617188 39.269531 169.042969 37.847656 170.46875 36.722656 C 171.964844 35.523438 173.617188 34.472656 175.339844 33.722656 C 177.0625 32.898438 178.9375 32.375 180.738281 32 C 182.609375 31.625 184.558594 31.476562 186.433594 31.625 C 188.308594 31.699219 190.257812 32.074219 192.054688 32.601562 C 193.855469 33.125 195.65625 33.949219 197.304688 34.921875 C 198.878906 35.824219 201.800781 38.371094 201.800781 38.371094 " clip-rule="nonzero"/></clipPath><clipPath id="e1fa1be1a9"><path d="M 0.539062 0.542969 L 48 0.542969 L 48 48 L 0.539062 48 Z M 0.539062 0.542969 " clip-rule="nonzero"/></clipPath><clipPath id="c1659e4469"><path d="M 41.027344 7.597656 C 46.574219 16.066406 47.398438 18.617188 47.699219 21.089844 C 48.074219 23.640625 47.996094 26.261719 47.472656 28.738281 C 47.023438 31.210938 46.125 33.757812 44.847656 35.933594 C 43.648438 38.105469 41.925781 40.207031 40.050781 41.929688 C 38.179688 43.578125 35.929688 45.003906 33.679688 45.976562 C 31.355469 47.027344 28.730469 47.628906 26.257812 47.851562 C 23.710938 48.078125 21.011719 47.851562 18.613281 47.253906 C 16.136719 46.652344 13.738281 45.601562 11.566406 44.179688 C 9.46875 42.828125 7.441406 41.105469 5.867188 39.082031 C 4.292969 37.132812 3.019531 34.808594 2.121094 32.484375 C 1.296875 30.085938 0.769531 27.460938 0.695312 24.914062 C 0.621094 22.441406 0.996094 19.816406 1.746094 17.34375 C 2.496094 14.941406 3.695312 12.542969 5.117188 10.519531 C 6.617188 8.496094 8.492188 6.621094 10.515625 5.121094 C 12.539062 3.625 14.9375 2.5 17.414062 1.75 C 19.8125 1 22.433594 0.625 24.984375 0.699219 C 27.457031 0.773438 30.082031 1.300781 32.480469 2.125 C 34.804688 3.023438 37.128906 4.296875 39.078125 5.871094 C 41.101562 7.445312 42.824219 9.472656 44.25 11.570312 C 45.597656 13.742188 46.648438 16.140625 47.25 18.617188 C 47.847656 21.089844 48.074219 23.714844 47.847656 26.261719 C 47.625 28.738281 47.023438 31.359375 45.972656 33.683594 C 45 35.933594 43.574219 38.257812 41.925781 40.054688 C 40.203125 41.929688 38.101562 43.652344 35.929688 44.855469 C 33.753906 46.128906 31.207031 47.027344 28.730469 47.476562 C 26.257812 48.003906 23.636719 48.078125 21.085938 47.703125 C 18.613281 47.402344 16.0625 46.578125 13.816406 45.453125 C 11.566406 44.328125 9.316406 42.605469 7.59375 41.03125 C 6.167969 39.605469 5.042969 38.183594 4.070312 36.53125 C 3.09375 34.957031 2.269531 33.160156 1.671875 31.359375 C 1.144531 29.5625 0.769531 27.6875 0.621094 25.8125 C 0.472656 23.9375 0.621094 21.988281 0.921875 20.117188 C 1.222656 18.242188 1.820312 16.367188 2.570312 14.644531 C 3.320312 12.917969 4.371094 11.269531 5.492188 9.769531 C 6.617188 8.269531 8.042969 6.847656 9.46875 5.722656 C 10.964844 4.523438 12.617188 3.472656 14.339844 2.722656 C 16.0625 1.898438 17.9375 1.375 19.738281 1 C 21.609375 0.625 23.558594 0.476562 25.433594 0.625 C 27.308594 0.699219 29.257812 1.074219 31.054688 1.601562 C 32.855469 2.125 34.65625 2.949219 36.304688 3.921875 C 37.878906 4.824219 40.800781 7.371094 40.800781 7.371094 " clip-rule="nonzero"/></clipPath><clipPath id="0b8e9408c5"><rect x="0" width="48" y="0" height="48"/></clipPath><clipPath id="8e4795d8fd"><path d="M 62.335938 33.351562 L 108.578125 33.351562 L 108.578125 80.835938 L 62.335938 80.835938 Z M 62.335938 33.351562 " clip-rule="nonzero"/></clipPath><clipPath id="425d1c7381"><path d="M 108.546875 50.066406 C 108.546875 64.984375 106.824219 68.808594 104.574219 71.65625 C 102.324219 74.578125 99.027344 77.128906 95.652344 78.628906 C 92.355469 80.125 88.230469 80.875 84.558594 80.652344 C 80.886719 80.425781 76.914062 79.226562 73.765625 77.351562 C 70.617188 75.402344 67.691406 72.480469 65.816406 69.332031 C 63.867188 66.183594 62.667969 62.210938 62.445312 58.535156 C 62.21875 54.863281 62.96875 50.742188 64.46875 47.441406 C 65.96875 44.070312 68.589844 40.769531 71.441406 38.523438 C 74.289062 36.273438 78.113281 34.546875 81.710938 33.875 C 85.308594 33.199219 89.507812 33.5 93.03125 34.546875 C 96.554688 35.671875 102.699219 40.394531 102.699219 40.394531 " clip-rule="nonzero"/></clipPath><clipPath id="8bca9af094"><path d="M 0.335938 0.351562 L 46.578125 0.351562 L 46.578125 47.835938 L 0.335938 47.835938 Z M 0.335938 0.351562 " clip-rule="nonzero"/></clipPath><clipPath id="e018e99cbc"><path d="M 46.546875 17.066406 C 46.546875 31.984375 44.824219 35.808594 42.574219 38.65625 C 40.324219 41.578125 37.027344 44.128906 33.652344 45.628906 C 30.355469 47.125 26.230469 47.875 22.558594 47.652344 C 18.886719 47.425781 14.914062 46.226562 11.765625 44.351562 C 8.617188 42.402344 5.691406 39.480469 3.816406 36.332031 C 1.867188 33.183594 0.667969 29.210938 0.445312 25.535156 C 0.21875 21.863281 0.96875 17.742188 2.46875 14.441406 C 3.96875 11.070312 6.589844 7.769531 9.441406 5.523438 C 12.289062 3.273438 16.113281 1.546875 19.710938 0.875 C 23.308594 0.199219 27.507812 0.5 31.03125 1.546875 C 34.554688 2.671875 40.699219 7.394531 40.699219 7.394531 " clip-rule="nonzero"/></clipPath><clipPath id="ef1989c59f"><rect x="0" width="47" y="0" height="48"/></clipPath><clipPath id="57bd07b3a1"><path d="M 58.511719 30.503906 L 104.757812 30.503906 L 104.757812 77.984375 L 58.511719 77.984375 Z M 58.511719 30.503906 " clip-rule="nonzero"/></clipPath><clipPath id="92690bebaf"><path d="M 104.722656 47.21875 C 104.722656 62.058594 103 65.882812 100.75 68.808594 C 98.5 71.65625 95.203125 74.28125 91.832031 75.777344 C 88.53125 77.277344 84.410156 78.027344 80.734375 77.800781 C 77.0625 77.578125 73.089844 76.304688 69.941406 74.429688 C 66.792969 72.554688 63.867188 69.554688 61.917969 66.484375 C 60.046875 63.335938 58.847656 59.285156 58.621094 55.6875 C 58.398438 52.015625 59.144531 47.890625 60.644531 44.519531 C 62.144531 41.21875 64.695312 37.921875 67.617188 35.671875 C 70.464844 33.425781 74.289062 31.699219 77.886719 31.027344 C 81.484375 30.351562 85.683594 30.574219 89.207031 31.699219 C 92.65625 32.75 98.875 37.546875 98.875 37.546875 " clip-rule="nonzero"/></clipPath><clipPath id="85170b5834"><path d="M 0.511719 0.503906 L 46.757812 0.503906 L 46.757812 47.984375 L 0.511719 47.984375 Z M 0.511719 0.503906 " clip-rule="nonzero"/></clipPath><clipPath id="ac5914c05a"><path d="M 46.722656 17.21875 C 46.722656 32.058594 45 35.882812 42.75 38.808594 C 40.5 41.65625 37.203125 44.28125 33.832031 45.777344 C 30.53125 47.277344 26.410156 48.027344 22.734375 47.800781 C 19.0625 47.578125 15.089844 46.304688 11.941406 44.429688 C 8.792969 42.554688 5.867188 39.554688 3.917969 36.484375 C 2.046875 33.335938 0.847656 29.285156 0.621094 25.6875 C 0.398438 22.015625 1.144531 17.890625 2.644531 14.519531 C 4.144531 11.21875 6.695312 7.921875 9.617188 5.671875 C 12.464844 3.425781 16.289062 1.699219 19.886719 1.027344 C 23.484375 0.351562 27.683594 0.574219 31.207031 1.699219 C 34.65625 2.75 40.875 7.546875 40.875 7.546875 " clip-rule="nonzero"/></clipPath><clipPath id="4159068a81"><rect x="0" width="47" y="0" height="48"/></clipPath><clipPath id="0e7db0ad2d"><path d="M 59.335938 31.328125 L 105.582031 31.328125 L 105.582031 78.808594 L 59.335938 78.808594 Z M 59.335938 31.328125 " clip-rule="nonzero"/></clipPath><clipPath id="c2a5de073a"><path d="M 105.546875 48.042969 C 105.546875 62.960938 103.824219 66.78125 101.574219 69.632812 C 99.328125 72.480469 96.027344 75.105469 92.65625 76.601562 C 89.355469 78.101562 85.234375 78.851562 81.558594 78.628906 C 77.886719 78.402344 73.914062 77.203125 70.765625 75.253906 C 67.617188 73.378906 64.695312 70.382812 62.820312 67.308594 C 60.871094 64.160156 59.671875 60.109375 59.445312 56.511719 C 59.222656 52.839844 59.972656 48.71875 61.46875 45.34375 C 62.96875 42.046875 65.59375 38.746094 68.441406 36.496094 C 71.289062 34.25 75.113281 32.523438 78.710938 31.851562 C 82.308594 31.175781 86.507812 31.476562 90.03125 32.523438 C 93.554688 33.648438 99.703125 38.371094 99.703125 38.371094 " clip-rule="nonzero"/></clipPath><clipPath id="cdbad14346"><path d="M 0.335938 0.328125 L 46.546875 0.328125 L 46.546875 47.808594 L 0.335938 47.808594 Z M 0.335938 0.328125 " clip-rule="nonzero"/></clipPath><clipPath id="06ef9d16ef"><path d="M 46.546875 17.042969 C 46.546875 31.960938 44.824219 35.78125 42.574219 38.632812 C 40.328125 41.480469 37.027344 44.105469 33.65625 45.601562 C 30.355469 47.101562 26.234375 47.851562 22.558594 47.628906 C 18.886719 47.402344 14.914062 46.203125 11.765625 44.253906 C 8.617188 42.378906 5.695312 39.382812 3.820312 36.308594 C 1.871094 33.160156 0.671875 29.109375 0.445312 25.511719 C 0.222656 21.839844 0.972656 17.71875 2.46875 14.34375 C 3.96875 11.046875 6.59375 7.746094 9.441406 5.496094 C 12.289062 3.25 16.113281 1.523438 19.710938 0.851562 C 23.308594 0.175781 27.507812 0.476562 31.03125 1.523438 C 34.554688 2.648438 40.703125 7.371094 40.703125 7.371094 " clip-rule="nonzero"/></clipPath><clipPath id="7e5511f2ee"><rect x="0" width="47" y="0" height="48"/></clipPath><clipPath id="c50ba14a49"><path d="M 59.414062 32 L 105.863281 32 L 105.863281 79.410156 L 59.414062 79.410156 Z M 59.414062 32 " clip-rule="nonzero"/></clipPath><clipPath id="fc1bee6b74"><path d="M 105.699219 48.640625 C 105.699219 63.558594 103.972656 67.382812 101.726562 70.230469 C 99.476562 73.078125 96.179688 75.703125 92.804688 77.203125 C 89.507812 78.703125 85.308594 79.453125 81.710938 79.226562 C 78.035156 79.003906 74.0625 77.800781 70.914062 75.855469 C 67.765625 73.980469 64.769531 70.980469 62.894531 67.90625 C 61.019531 64.757812 59.746094 60.710938 59.519531 57.113281 C 59.296875 53.441406 60.121094 49.316406 61.621094 45.941406 C 63.121094 42.644531 65.667969 39.347656 68.589844 37.097656 C 71.441406 34.847656 75.261719 33.125 78.863281 32.449219 C 82.460938 31.773438 86.65625 32.074219 90.179688 33.125 C 93.628906 34.25 99.851562 38.972656 99.851562 38.972656 " clip-rule="nonzero"/></clipPath><clipPath id="595e0bead3"><path d="M 0.414062 0 L 46.789062 0 L 46.789062 47.410156 L 0.414062 47.410156 Z M 0.414062 0 " clip-rule="nonzero"/></clipPath><clipPath id="fef6294eaa"><path d="M 46.699219 16.640625 C 46.699219 31.558594 44.972656 35.382812 42.726562 38.230469 C 40.476562 41.078125 37.179688 43.703125 33.804688 45.203125 C 30.507812 46.703125 26.308594 47.453125 22.710938 47.226562 C 19.035156 47.003906 15.0625 45.800781 11.914062 43.855469 C 8.765625 41.980469 5.769531 38.980469 3.894531 35.90625 C 2.019531 32.757812 0.746094 28.710938 0.519531 25.113281 C 0.296875 21.441406 1.121094 17.316406 2.621094 13.941406 C 4.121094 10.644531 6.667969 7.347656 9.589844 5.097656 C 12.441406 2.847656 16.261719 1.125 19.863281 0.449219 C 23.460938 -0.226562 27.65625 0.0742188 31.179688 1.125 C 34.628906 2.25 40.851562 6.972656 40.851562 6.972656 " clip-rule="nonzero"/></clipPath><clipPath id="f6517532e6"><rect x="0" width="47" y="0" height="48"/></clipPath><clipPath id="6a8053de7c"><path d="M 159 35.078125 L 205.414062 35.078125 L 205.414062 82.558594 L 159 82.558594 Z M 159 35.078125 " clip-rule="nonzero"/></clipPath><clipPath id="cd2e639120"><path d="M 205.25 51.789062 C 205.25 66.632812 203.527344 70.457031 201.277344 73.378906 C 199.027344 76.226562 195.730469 78.851562 192.355469 80.351562 C 189.058594 81.851562 184.859375 82.601562 181.261719 82.375 C 177.589844 82.152344 173.617188 80.875 170.46875 79.003906 C 167.316406 77.128906 164.320312 74.128906 162.445312 70.980469 C 160.570312 67.90625 159.296875 63.859375 159.074219 60.1875 C 158.847656 56.589844 159.671875 52.464844 161.171875 49.089844 C 162.671875 45.792969 165.21875 42.417969 168.144531 40.171875 C 170.992188 37.921875 174.816406 36.199219 178.414062 35.597656 C 182.011719 34.921875 186.210938 35.148438 189.730469 36.273438 C 193.179688 37.324219 199.402344 42.121094 199.402344 42.121094 " clip-rule="nonzero"/></clipPath><clipPath id="77a6f635f5"><path d="M 0 0.078125 L 46.339844 0.078125 L 46.339844 47.558594 L 0 47.558594 Z M 0 0.078125 " clip-rule="nonzero"/></clipPath><clipPath id="bd429d3f6d"><path d="M 46.25 16.789062 C 46.25 31.632812 44.527344 35.457031 42.277344 38.378906 C 40.027344 41.226562 36.730469 43.851562 33.355469 45.351562 C 30.058594 46.851562 25.859375 47.601562 22.261719 47.375 C 18.589844 47.152344 14.617188 45.875 11.46875 44.003906 C 8.316406 42.128906 5.320312 39.128906 3.445312 35.980469 C 1.570312 32.90625 0.296875 28.859375 0.0742188 25.1875 C -0.152344 21.589844 0.671875 17.464844 2.171875 14.089844 C 3.671875 10.792969 6.21875 7.417969 9.144531 5.171875 C 11.992188 2.921875 15.816406 1.199219 19.414062 0.597656 C 23.011719 -0.078125 27.210938 0.148438 30.730469 1.273438 C 34.179688 2.324219 40.402344 7.121094 40.402344 7.121094 " clip-rule="nonzero"/></clipPath><clipPath id="997780821a"><rect x="0" width="47" y="0" height="48"/></clipPath></defs><g clip-path="url(#6adf59c072)"><g clip-path="url(#2c17a2af3b)"><g transform="matrix(1, 0, 0, 1, 46, -0.000000000000058398)"><g clip-path="url(#a76208a473)"><g clip-path="url(#faacdb68d6)"><g clip-path="url(#d034f4f57a)"><path fill="#f9ffdc" d="M 0.113281 0.890625 L 176.425781 0.890625 L 176.425781 101.640625 L 0.113281 101.640625 Z M 0.113281 0.890625 " fill-opacity="1" fill-rule="nonzero"/></g></g></g></g></g></g><g clip-path="url(#1b24e1278c)"><g clip-path="url(#f9bdd43b6d)"><path stroke-linecap="butt" transform="matrix(0.749634, 0, 0, 0.749634, 46.113077, 0.890142)" fill="none" stroke-linejoin="miter" d="M 177.727601 0.000644434 L 57.60129 0.000644434 L 0.00548345 67.194883 L 57.60129 134.389122 L 177.727601 134.389122 L 235.323407 67.194883 Z M 177.727601 0.000644434 " stroke="#000000" stroke-width="4" stroke-opacity="1" stroke-miterlimit="4"/></g></g><g clip-path="url(#e37e8ce148)"><g transform="matrix(1, 0, 0, 1, 0, -0.000000000000058398)"><g clip-path="url(#354610b4bb)"><g clip-path="url(#8a9798dfdb)"><path fill="#f9ffdc" d="M -12.691406 -1.359375 L 1033.234375 -1.359375 L 1033.234375 73.289062 L -12.691406 73.289062 Z M -12.691406 -1.359375 " fill-opacity="1" fill-rule="nonzero"/></g></g></g></g><g clip-path="url(#d063919e96)"><path stroke-linecap="butt" transform="matrix(0.749634, 0, 0, 0.749634, -12.691297, -1.35876)" fill="none" stroke-linejoin="miter" d="M 0.0988614 -0.00081982 L 1395.133591 -0.00081982 L 1395.133591 99.563377 L 0.0988614 99.563377 Z M 0.0988614 -0.00081982 " stroke="#000000" stroke-width="4" stroke-opacity="1" stroke-miterlimit="4"/></g><g clip-path="url(#e1202d9319)"><g clip-path="url(#4a2c19a0eb)"><g transform="matrix(1, 0, 0, 1, 88, 29)"><g clip-path="url(#25dfc5f756)"><g clip-path="url(#67411aed3f)"><g clip-path="url(#78caac3a9e)"><rect x="-313.39" width="1475.28" fill="#f9ffdc" height="829.44" y="-155.72" fill-opacity="1"/></g></g></g></g></g></g><g clip-path="url(#ae8d0a5069)"><g clip-path="url(#bf06f815a5)"><g transform="matrix(1, 0, 0, 1, 68, 37)"><g clip-path="url(#6c8c23aa06)"><g clip-path="url(#91ad26f121)"><g clip-path="url(#27f28ef95a)"><rect x="-293.39" width="1475.28" fill="#f9ffdc" height="829.44" y="-163.72" fill-opacity="1"/></g></g></g></g></g></g><g clip-path="url(#6f876695c1)"><g clip-path="url(#6eed5c5d17)"><g transform="matrix(1, 0, 0, 1, 62, 31)"><g clip-path="url(#f7d516994a)"><g clip-path="url(#402cc0d386)"><g clip-path="url(#7d5ff77862)"><rect x="-287.39" width="1475.28" fill="#f9ffdc" height="829.44" y="-157.72" fill-opacity="1"/></g></g></g></g></g></g><g clip-path="url(#70f1085f65)"><g clip-path="url(#1494189bd4)"><g transform="matrix(1, 0, 0, 1, 57, 28)"><g clip-path="url(#2e67d96b6b)"><g clip-path="url(#9e961d235d)"><g clip-path="url(#f872555bc4)"><rect x="-282.39" width="1475.28" fill="#f9ffdc" height="829.44" y="-154.72" fill-opacity="1"/></g></g></g></g></g></g><g clip-path="url(#71857e406b)"><g clip-path="url(#bb68d2634d)"><g transform="matrix(1, 0, 0, 1, 160, 27)"><g clip-path="url(#2a94c0a100)"><g clip-path="url(#56a28a87bd)"><g clip-path="url(#305c334fd9)"><rect x="-385.39" width="1475.28" fill="#f9ffdc" height="829.44" y="-153.72" fill-opacity="1"/></g></g></g></g></g></g><g clip-path="url(#fe4937c1ca)"><g clip-path="url(#0f23baebbb)"><g transform="matrix(1, 0, 0, 1, 159, 31)"><g clip-path="url(#64c26084b6)"><g clip-path="url(#9fe973066d)"><g clip-path="url(#a9ceefe692)"><rect x="-384.39" width="1475.28" fill="#f9ffdc" height="829.44" y="-157.72" fill-opacity="1"/></g></g></g></g></g></g><g clip-path="url(#54bfc25401)"><g clip-path="url(#d36bf19cc1)"><g transform="matrix(1, 0, 0, 1, 159, 32)"><g clip-path="url(#a2ae63e56a)"><g clip-path="url(#2d151893be)"><g clip-path="url(#ed6bc1aca4)"><rect x="-384.39" width="1475.28" fill="#f9ffdc" height="829.44" y="-158.72" fill-opacity="1"/></g></g></g></g></g></g><g clip-path="url(#d951e9870f)"><g clip-path="url(#b1c25a821b)"><g transform="matrix(1, 0, 0, 1, 158, 33)"><g clip-path="url(#6712f1f049)"><g clip-path="url(#2b3a38fde8)"><g clip-path="url(#392387973b)"><rect x="-383.39" width="1475.28" fill="#f9ffdc" height="829.44" y="-159.72" fill-opacity="1"/></g></g></g></g></g></g><g clip-path="url(#061e0b17ed)"><g clip-path="url(#10cefe7f07)"><g transform="matrix(1, 0, 0, 1, 157, 34)"><g clip-path="url(#2f89a95241)"><g clip-path="url(#4e6ebf4b34)"><g clip-path="url(#ab072f7fcd)"><rect x="-382.39" width="1475.28" fill="#f9ffdc" height="829.44" y="-160.72" fill-opacity="1"/></g></g></g></g></g></g><g clip-path="url(#4a9031bdd7)"><g clip-path="url(#70660501e2)"><g transform="matrix(1, 0, 0, 1, 158, 33)"><g clip-path="url(#6fc55dd8a2)"><g clip-path="url(#4850f684f7)"><g clip-path="url(#07f857d518)"><rect x="-383.39" width="1475.28" fill="#f9ffdc" height="829.44" y="-159.72" fill-opacity="1"/></g></g></g></g></g></g><g clip-path="url(#38a5813bb3)"><g clip-path="url(#1f5355eda0)"><g transform="matrix(1, 0, 0, 1, 159, 33)"><g clip-path="url(#d89bb5b06d)"><g clip-path="url(#ae36640db4)"><g clip-path="url(#46ba70456b)"><rect x="-384.39" width="1475.28" fill="#f9ffdc" height="829.44" y="-159.72" fill-opacity="1"/></g></g></g></g></g></g><g clip-path="url(#d30dbcbcaf)"><g clip-path="url(#9ad69e90e9)"><g transform="matrix(1, 0, 0, 1, 159, 33)"><g clip-path="url(#49ae0432dc)"><g clip-path="url(#7d11540ebe)"><g clip-path="url(#1df829cb42)"><rect x="-384.39" width="1475.28" fill="#f9ffdc" height="829.44" y="-159.72" fill-opacity="1"/></g></g></g></g></g></g><g clip-path="url(#1f6a60e490)"><g clip-path="url(#118fc41a84)"><g transform="matrix(1, 0, 0, 1, 163, 29)"><g clip-path="url(#8b8bad2bd9)"><g clip-path="url(#cf590c43ac)"><g clip-path="url(#6cfd0acd1c)"><rect x="-388.39" width="1475.28" fill="#f9ffdc" height="829.44" y="-155.72" fill-opacity="1"/></g></g></g></g></g></g><g clip-path="url(#da4e8ea411)"><g clip-path="url(#5a193ee508)"><g transform="matrix(1, 0, 0, 1, 161, 32)"><g clip-path="url(#1b9202c47c)"><g clip-path="url(#2957d38b9a)"><g clip-path="url(#08d4794a69)"><rect x="-386.39" width="1475.28" fill="#f9ffdc" height="829.44" y="-158.72" fill-opacity="1"/></g></g></g></g></g></g><g clip-path="url(#7b4cc6b3be)"><g clip-path="url(#836d31fb39)"><g transform="matrix(1, 0, 0, 1, 161, 31)"><g clip-path="url(#0b8e9408c5)"><g clip-path="url(#e1fa1be1a9)"><g clip-path="url(#c1659e4469)"><rect x="-386.39" width="1475.28" fill="#f9ffdc" height="829.44" y="-157.72" fill-opacity="1"/></g></g></g></g></g></g><g clip-path="url(#8e4795d8fd)"><g clip-path="url(#425d1c7381)"><g transform="matrix(1, 0, 0, 1, 62, 33)"><g clip-path="url(#ef1989c59f)"><g clip-path="url(#8bca9af094)"><g clip-path="url(#e018e99cbc)"><rect x="-287.39" width="1475.28" fill="#f9ffdc" height="829.44" y="-159.72" fill-opacity="1"/></g></g></g></g></g></g><g clip-path="url(#57bd07b3a1)"><g clip-path="url(#92690bebaf)"><g transform="matrix(1, 0, 0, 1, 58, 30)"><g clip-path="url(#4159068a81)"><g clip-path="url(#85170b5834)"><g clip-path="url(#ac5914c05a)"><rect x="-283.39" width="1475.28" fill="#f9ffdc" height="829.44" y="-156.72" fill-opacity="1"/></g></g></g></g></g></g><g clip-path="url(#0e7db0ad2d)"><g clip-path="url(#c2a5de073a)"><g transform="matrix(1, 0, 0, 1, 59, 31)"><g clip-path="url(#7e5511f2ee)"><g clip-path="url(#cdbad14346)"><g clip-path="url(#06ef9d16ef)"><rect x="-284.39" width="1475.28" fill="#f9ffdc" height="829.44" y="-157.72" fill-opacity="1"/></g></g></g></g></g></g><g clip-path="url(#c50ba14a49)"><g clip-path="url(#fc1bee6b74)"><g transform="matrix(1, 0, 0, 1, 59, 32)"><g clip-path="url(#f6517532e6)"><g clip-path="url(#595e0bead3)"><g clip-path="url(#fef6294eaa)"><rect x="-284.39" width="1475.28" fill="#f9ffdc" height="829.44" y="-158.72" fill-opacity="1"/></g></g></g></g></g></g><g clip-path="url(#6a8053de7c)"><g clip-path="url(#cd2e639120)"><g transform="matrix(1, 0, 0, 1, 159, 35)"><g clip-path="url(#997780821a)"><g clip-path="url(#77a6f635f5)"><g clip-path="url(#bd429d3f6d)"><rect x="-384.39" width="1475.28" fill="#f9ffdc" height="829.44" y="-161.72" fill-opacity="1"/></g></g></g></g></g></g></svg>