<svg xmlns="http://www.w3.org/2000/svg" xmlns:xlink="http://www.w3.org/1999/xlink" width="500" zoomAndPan="magnify" viewBox="0 0 375 374.999991" height="500" preserveAspectRatio="xMidYMid meet" version="1.0"><defs><clipPath id="7d0361ec09"><path d="M 80 266 L 153 266 L 153 279.988281 L 80 279.988281 Z M 80 266 " clip-rule="nonzero"/></clipPath><clipPath id="70ec7a3a9c"><path d="M 9.214844 169 L 41 169 L 41 176 L 9.214844 176 Z M 9.214844 169 " clip-rule="nonzero"/></clipPath><clipPath id="d35575ec00"><path d="M 301.46875 180.359375 L 365.464844 180.359375 L 365.464844 191 L 301.46875 191 Z M 301.46875 180.359375 " clip-rule="nonzero"/></clipPath><clipPath id="43bf64c7e7"><path d="M 306 77.488281 L 317 77.488281 L 317 86 L 306 86 Z M 306 77.488281 " clip-rule="nonzero"/></clipPath><clipPath id="60ad59320d"><path d="M 303 77.488281 L 320 77.488281 L 320 83 L 303 83 Z M 303 77.488281 " clip-rule="nonzero"/></clipPath></defs><path fill="#ffffff" d="M 101.613281 155.027344 L 100.425781 163.929688 C 98.128906 162.820312 94.894531 162.058594 90.949219 162.523438 C 88.480469 162.816406 86.449219 163.363281 86.65625 165.101562 C 86.75 165.898438 87.945312 166.140625 89.285156 166.410156 L 94.453125 167.394531 C 99.058594 168.277344 102.1875 170.363281 102.675781 174.496094 C 103.464844 181.164062 97.945312 186.695312 88.832031 187.769531 C 82.230469 188.546875 77.917969 187.34375 75.707031 186.558594 L 77.132812 177.675781 C 79.648438 178.785156 82.8125 179.957031 88.425781 179.292969 C 90.613281 179.035156 92.125 178.335938 91.964844 176.996094 C 91.890625 176.363281 91.332031 175.855469 89.824219 175.605469 L 85.085938 174.808594 C 81.394531 174.199219 77.152344 172.578125 76.535156 167.34375 C 75.707031 160.324219 81.75 155.253906 90.75 154.191406 C 95.519531 153.628906 99.171875 154.125 101.613281 155.027344 " fill-opacity="1" fill-rule="nonzero"/><path fill="#ffffff" d="M 116.527344 160.101562 L 116.265625 167.152344 L 120.519531 166.652344 C 123.457031 166.304688 125.289062 164.898438 124.9375 161.917969 C 124.695312 159.875 123.25 159.308594 120.804688 159.59375 Z M 122.25 174.851562 L 115.929688 175.597656 L 115.578125 184.089844 L 105.589844 185.269531 L 106.875 152.789062 L 123.203125 150.859375 C 130.554688 149.992188 134.386719 153.992188 135.019531 159.347656 C 135.835938 166.273438 131.667969 173.742188 122.25 174.851562 " fill-opacity="1" fill-rule="nonzero"/><path fill="#ffffff" d="M 162.042969 178.609375 L 137.378906 181.515625 L 138.660156 149.039062 L 163.257812 146.132812 L 162.9375 154.3125 L 148.324219 156.039062 L 148.183594 159.863281 L 161.433594 158.300781 L 161.101562 166.410156 L 147.855469 167.972656 L 147.691406 172.230469 L 162.347656 170.5 L 162.042969 178.609375 " fill-opacity="1" fill-rule="nonzero"/><path fill="#ffffff" d="M 183.664062 143.25 C 186.789062 142.882812 189.773438 142.957031 193.234375 144.027344 L 192.144531 152.9375 C 190.066406 152.089844 187.296875 151.628906 184.078125 152.011719 C 178.605469 152.65625 173.714844 155.613281 174.464844 161.976562 C 175.03125 166.765625 179.410156 168.128906 183.804688 167.613281 C 186.222656 167.328125 188.835938 166.257812 191.703125 164.132812 L 192.953125 172.675781 C 188.683594 175.65625 185.121094 176.359375 181.195312 176.824219 C 171.449219 177.972656 163.863281 172.441406 164.25 162.183594 C 164.6875 150.988281 173.449219 144.503906 183.664062 143.25 " fill-opacity="1" fill-rule="nonzero"/><path fill="#ffffff" d="M 205.972656 173.421875 L 195.988281 174.601562 L 197.273438 142.121094 L 207.28125 140.941406 L 205.972656 173.421875 " fill-opacity="1" fill-rule="nonzero"/><path fill="#ffffff" d="M 230.015625 157.757812 L 227.277344 148.105469 L 223.71875 158.5 Z M 221.351562 166.464844 L 219.222656 171.859375 L 208.558594 173.117188 L 221.707031 139.238281 L 233.640625 137.828125 L 244.171875 168.917969 L 233.507812 170.175781 L 231.734375 165.242188 L 221.351562 166.464844 " fill-opacity="1" fill-rule="nonzero"/><path fill="#ffffff" d="M 271.28125 165.71875 L 246.710938 168.617188 L 247.996094 136.136719 L 258 134.957031 L 257.019531 159.328125 L 271.609375 157.609375 L 271.28125 165.71875 " fill-opacity="1" fill-rule="nonzero"/><path fill="#241c00" d="M 298.675781 177.121094 L 38.882812 210.125 L 26.605469 138.523438 L 291.316406 119.234375 L 298.675781 177.121094 " fill-opacity="1" fill-rule="nonzero"/><path fill="#241c00" d="M 318.859375 222.570312 L 97.8125 249.394531 L 93 203.25 L 324.152344 162.476562 L 318.859375 222.570312 " fill-opacity="1" fill-rule="nonzero"/><path fill="#ffb700" d="M 86.933594 193.007812 L 58.585938 196.609375 L 59.734375 159.082031 L 71.28125 157.617188 L 70.398438 185.777344 L 87.230469 183.636719 L 86.933594 193.007812 " fill-opacity="1" fill-rule="nonzero"/><path fill="#ffb700" d="M 101.628906 191.140625 L 90.109375 192.605469 L 91.257812 155.078125 L 102.804688 153.609375 L 101.628906 191.140625 " fill-opacity="1" fill-rule="nonzero"/><path fill="#ffb700" d="M 116.550781 151.863281 L 128.097656 164.492188 L 140.484375 148.824219 L 150.1875 147.589844 L 149.039062 185.117188 L 137.925781 186.53125 L 138.519531 166.9375 L 128.839844 178.984375 L 127.675781 179.132812 L 118.484375 169.457031 L 117.894531 189.074219 L 106.808594 190.484375 L 107.957031 152.957031 L 116.550781 151.863281 " fill-opacity="1" fill-rule="nonzero"/><path fill="#ffb700" d="M 165.738281 183 L 154.21875 184.460938 L 155.371094 146.933594 L 166.914062 145.46875 L 165.738281 183 " fill-opacity="1" fill-rule="nonzero"/><path fill="#ffb700" d="M 179.851562 153.402344 L 169.796875 154.679688 L 170.089844 145.066406 L 202.207031 140.984375 L 201.886719 150.605469 L 191.398438 151.9375 L 190.542969 179.847656 L 178.996094 181.3125 L 179.851562 153.402344 " fill-opacity="1" fill-rule="nonzero"/><path fill="#ffb700" d="M 232.667969 174.496094 L 204.207031 178.109375 L 205.355469 140.585938 L 233.734375 136.980469 L 233.449219 146.429688 L 216.589844 148.570312 L 216.464844 152.992188 L 231.75 151.050781 L 231.457031 160.417969 L 216.167969 162.359375 L 216.023438 167.277344 L 232.933594 165.128906 L 232.667969 174.496094 " fill-opacity="1" fill-rule="nonzero"/><path fill="#ffb700" d="M 248.769531 144.730469 L 248.222656 162.9375 L 253.210938 162.308594 C 258.929688 161.582031 262.125 156.605469 261.308594 150.183594 C 260.707031 145.445312 257.796875 143.582031 253.757812 144.097656 Z M 236.628906 173.992188 L 237.777344 136.464844 L 254.636719 134.324219 C 265.015625 133.003906 271.695312 137.222656 272.945312 147.054688 C 274.734375 161.113281 267.472656 170.074219 253.460938 171.855469 L 236.628906 173.992188 " fill-opacity="1" fill-rule="nonzero"/><path fill="#ffffff" d="M 139.949219 224.730469 C 145.152344 224.070312 148.507812 219.265625 147.769531 213.441406 C 147.238281 209.269531 144.464844 206.757812 140.480469 207.265625 C 135.167969 207.941406 131.71875 212.644531 132.453125 218.414062 C 132.996094 222.695312 135.828125 225.253906 139.949219 224.730469 Z M 140.78125 196.628906 C 150.972656 195.335938 158.179688 201.109375 159.382812 210.589844 C 160.984375 223.160156 152.347656 233.644531 139.582031 235.265625 C 129.335938 236.566406 122.070312 230.773438 120.859375 221.238281 C 119.261719 208.695312 127.988281 198.253906 140.78125 196.628906 " fill-opacity="1" fill-rule="nonzero"/><path fill="#ffffff" d="M 174.402344 230.289062 L 162.878906 231.753906 L 164.03125 194.226562 L 191.515625 190.734375 L 191.222656 200.132812 L 175.285156 202.15625 L 175.140625 206.882812 L 187.609375 205.296875 L 187.320312 214.722656 L 174.851562 216.304688 L 174.402344 230.289062 " fill-opacity="1" fill-rule="nonzero"/><path fill="#ffffff" d="M 205.332031 226.363281 L 193.8125 227.824219 L 194.960938 190.296875 L 222.445312 186.808594 L 222.152344 196.203125 L 206.214844 198.226562 L 206.074219 202.953125 L 218.539062 201.367188 L 218.25 210.792969 L 205.78125 212.375 L 205.332031 226.363281 " fill-opacity="1" fill-rule="nonzero"/><path fill="#ffffff" d="M 253.203125 220.28125 L 224.742188 223.898438 L 225.890625 186.367188 L 254.269531 182.765625 L 253.984375 192.214844 L 237.125 194.355469 L 237 198.777344 L 252.285156 196.832031 L 251.988281 206.203125 L 236.703125 208.144531 L 236.558594 213.0625 L 253.46875 210.914062 L 253.203125 220.28125 " fill-opacity="1" fill-rule="nonzero"/><path fill="#ffffff" d="M 269.410156 190.667969 L 269.167969 198.761719 L 274.15625 198.128906 C 277.519531 197.703125 279.636719 195.945312 279.21875 192.667969 C 278.921875 190.339844 277.238281 189.671875 274.394531 190.035156 Z M 268.878906 207.941406 L 268.574219 218.328125 L 257.160156 219.777344 L 258.3125 182.25 L 277.121094 179.863281 C 285.605469 178.785156 290.035156 183.3125 290.824219 189.515625 C 291.703125 196.398438 288.339844 202.464844 282.265625 205.136719 C 283.445312 206.859375 285.390625 207.628906 288.183594 207.277344 C 289.375 207.125 290.640625 206.882812 291.746094 206.492188 L 291.453125 215.253906 C 290.679688 215.65625 288.699219 216.320312 286.613281 216.585938 C 279.753906 217.457031 275.066406 214.804688 271.804688 207.566406 L 268.878906 207.941406 " fill-opacity="1" fill-rule="nonzero"/><path fill="#241c00" d="M 288.246094 239.914062 L 56.082031 267.847656 L 56.320312 264.207031 L 288.484375 236.273438 L 288.246094 239.914062 " fill-opacity="1" fill-rule="nonzero"/><path fill="#ffb700" d="M 309.863281 128.757812 L 274.019531 133.070312 L 273.886719 130.539062 L 309.730469 126.226562 L 309.863281 128.757812 " fill-opacity="1" fill-rule="nonzero"/><g clip-path="url(#7d0361ec09)"><path fill="#ffb700" d="M 152.695312 271.171875 L 80.332031 279.878906 L 80.488281 274.769531 L 152.851562 266.0625 L 152.695312 271.171875 " fill-opacity="1" fill-rule="nonzero"/></g><g clip-path="url(#70ec7a3a9c)"><path fill="#ffb700" d="M 40.367188 172.074219 L 9.214844 175.824219 L 9.28125 173.625 L 40.433594 169.878906 L 40.367188 172.074219 " fill-opacity="1" fill-rule="nonzero"/></g><path fill="#ffb700" d="M 212.574219 108.566406 L 94.910156 122.726562 L 95.867188 120.246094 L 213.527344 106.085938 L 212.574219 108.566406 " fill-opacity="1" fill-rule="nonzero"/><g clip-path="url(#d35575ec00)"><path fill="#ffb700" d="M 365.109375 183.257812 L 301.527344 190.910156 L 301.890625 188.3125 L 365.472656 180.660156 L 365.109375 183.257812 " fill-opacity="1" fill-rule="nonzero"/></g><path fill="#ffb700" d="M 116.613281 241.84375 L 17.652344 253.75 L 18.21875 249.707031 L 117.183594 237.800781 L 116.613281 241.84375 " fill-opacity="1" fill-rule="nonzero"/><path fill="#241c00" d="M 357.820312 128.8125 C 359.65625 152.332031 342.070312 172.882812 318.539062 174.71875 C 295.007812 176.554688 274.445312 158.976562 272.605469 135.460938 C 270.769531 111.941406 288.359375 91.390625 311.886719 89.554688 C 335.417969 87.722656 355.984375 105.296875 357.820312 128.8125 " fill-opacity="1" fill-rule="nonzero"/><path fill="#ffb700" d="M 352.019531 129.269531 C 353.605469 149.585938 338.414062 167.339844 318.085938 168.925781 C 297.757812 170.507812 279.992188 155.324219 278.40625 135.007812 C 276.820312 114.691406 292.011719 96.9375 312.339844 95.351562 C 332.667969 93.765625 350.433594 108.949219 352.019531 129.269531 " fill-opacity="1" fill-rule="nonzero"/><path fill="#241c00" d="M 315.148438 104.753906 L 311.027344 105.078125 L 310.554688 99.015625 L 314.675781 98.695312 L 315.148438 104.753906 " fill-opacity="1" fill-rule="nonzero"/><path fill="#241c00" d="M 317.273438 131.976562 L 313.152344 132.296875 L 311.382812 109.628906 L 315.503906 109.304688 L 317.273438 131.976562 " fill-opacity="1" fill-rule="nonzero"/><path fill="#241c00" d="M 316.160156 134.179688 L 314.304688 130.460938 L 335.476562 122.132812 L 336.988281 125.976562 L 316.160156 134.179688 " fill-opacity="1" fill-rule="nonzero"/><g clip-path="url(#43bf64c7e7)"><path fill="#241c00" d="M 316.074219 85.246094 L 307.085938 85.945312 L 306.515625 78.617188 L 315.5 77.914062 L 316.074219 85.246094 " fill-opacity="1" fill-rule="nonzero"/></g><path fill="#241c00" d="M 282.695312 98.46875 L 276.835938 105.316406 L 271.242188 100.535156 L 277.101562 93.691406 L 282.695312 98.46875 " fill-opacity="1" fill-rule="nonzero"/><path fill="#241c00" d="M 349.027344 99.484375 L 342.179688 93.628906 L 346.960938 88.042969 L 353.8125 93.894531 L 349.027344 99.484375 " fill-opacity="1" fill-rule="nonzero"/><g clip-path="url(#60ad59320d)"><path fill="#241c00" d="M 319.074219 81.324219 L 303.511719 82.539062 L 303.222656 78.8125 L 318.78125 77.601562 L 319.074219 81.324219 " fill-opacity="1" fill-rule="nonzero"/></g><path fill="#241c00" d="M 295.792969 112.820312 L 293.109375 115.960938 L 288.484375 112.007812 L 291.171875 108.871094 L 295.792969 112.820312 " fill-opacity="1" fill-rule="nonzero"/><path fill="#241c00" d="M 287.816406 132.203125 L 288.136719 136.320312 L 282.070312 136.792969 L 281.75 132.675781 L 287.816406 132.203125 " fill-opacity="1" fill-rule="nonzero"/><path fill="#241c00" d="M 295.886719 151.546875 L 299.027344 154.230469 L 295.074219 158.851562 L 291.933594 156.167969 L 295.886719 151.546875 " fill-opacity="1" fill-rule="nonzero"/><path fill="#241c00" d="M 315.277344 159.519531 L 319.398438 159.199219 L 319.871094 165.257812 L 315.75 165.582031 L 315.277344 159.519531 " fill-opacity="1" fill-rule="nonzero"/><path fill="#241c00" d="M 334.632812 151.453125 L 337.320312 148.316406 L 341.941406 152.265625 L 339.253906 155.40625 L 334.632812 151.453125 " fill-opacity="1" fill-rule="nonzero"/><path fill="#241c00" d="M 342.609375 132.074219 L 342.289062 127.953125 L 348.355469 127.480469 L 348.675781 131.597656 L 342.609375 132.074219 " fill-opacity="1" fill-rule="nonzero"/><path fill="#241c00" d="M 334.539062 112.730469 L 331.398438 110.046875 L 335.351562 105.425781 L 338.492188 108.109375 L 334.539062 112.730469 " fill-opacity="1" fill-rule="nonzero"/><path fill="#241c00" d="M 317.554688 131.953125 C 317.648438 133.167969 316.742188 134.230469 315.523438 134.328125 C 314.308594 134.421875 313.25 133.511719 313.152344 132.296875 C 313.058594 131.082031 313.964844 130.023438 315.183594 129.925781 C 316.394531 129.832031 317.460938 130.742188 317.554688 131.953125 " fill-opacity="1" fill-rule="nonzero"/></svg>