<svg xmlns="http://www.w3.org/2000/svg" xmlns:xlink="http://www.w3.org/1999/xlink" width="2000" zoomAndPan="magnify" viewBox="0 0 1500 1499.999933" height="2000" preserveAspectRatio="xMidYMid meet" version="1.0"><defs><clipPath id="f0127d30c5"><path d="M 325 294 L 1467.382812 294 L 1467.382812 1288 L 325 1288 Z M 325 294 " clip-rule="nonzero"/></clipPath><clipPath id="486a76aaa5"><path d="M 32.632812 265 L 186 265 L 186 356 L 32.632812 356 Z M 32.632812 265 " clip-rule="nonzero"/></clipPath></defs><path fill="#ffffff" d="M 1332.21875 1098.59375 C 1324.480469 1103.015625 1316.453125 1106.285156 1306.839844 1106.238281 C 1294.632812 1106.140625 1282.808594 1104.074219 1270.984375 1101.71875 C 1270.3125 1108.929688 1270.886719 1117.003906 1272.28125 1122.820312 C 1291.554688 1128.828125 1315.683594 1130.992188 1333.132812 1120.367188 C 1334.621094 1113.6875 1335.679688 1106.382812 1332.699219 1100.230469 C 1332.507812 1099.75 1332.410156 1099.171875 1332.21875 1098.59375 " fill-opacity="1" fill-rule="nonzero"/><path fill="#ffffff" d="M 465.652344 1264.996094 C 461.902344 1265.910156 450.703125 1268.9375 449.117188 1269.179688 C 437.101562 1271.246094 425.804688 1268.503906 414.125 1266.535156 C 412.636719 1272.15625 411.242188 1277.734375 410.425781 1283.40625 C 422.394531 1284.558594 434.410156 1286.097656 446.519531 1285.953125 C 454.789062 1285.855469 461.519531 1283.214844 468.054688 1279.703125 C 469.113281 1277.253906 468.582031 1271.871094 467.863281 1268.023438 C 466.949219 1267.109375 466.226562 1266.148438 465.652344 1264.996094 " fill-opacity="1" fill-rule="nonzero"/><path fill="#ffffff" d="M 1025.128906 1083.261719 C 1024.984375 1084.75 1024.554688 1086.339844 1023.832031 1087.875 C 1020.324219 1094.941406 1017.582031 1101.621094 1016.429688 1109.023438 C 1024.890625 1110.804688 1035.273438 1109.601562 1042.816406 1108.878906 C 1055.84375 1107.632812 1065.695312 1100.613281 1076.753906 1094.316406 C 1077.136719 1094.125 1077.519531 1094.027344 1077.859375 1093.882812 C 1078.484375 1090.855469 1079.445312 1087.875 1079.972656 1084.847656 C 1080.164062 1084.175781 1080.261719 1083.550781 1080.40625 1082.878906 C 1080.40625 1082.878906 1080.40625 1082.878906 1080.40625 1082.78125 C 1079.972656 1082.636719 1079.683594 1082.300781 1079.25 1082.058594 C 1061.324219 1085.328125 1043.347656 1083.933594 1025.128906 1083.261719 " fill-opacity="1" fill-rule="nonzero"/><path fill="#ffffff" d="M 629.167969 1290.328125 C 609.800781 1297.96875 590.285156 1300.082031 569.90625 1299.941406 C 568.703125 1301.09375 567.214844 1301.910156 565.53125 1302.390625 C 565.195312 1303.304688 564.90625 1304.21875 564.714844 1305.179688 C 564.617188 1305.179688 564.234375 1307.917969 564.136719 1307.917969 C 563.992188 1310.128906 563.800781 1312.339844 563.800781 1314.550781 C 586.582031 1317.917969 615.132812 1318.925781 629.746094 1299.507812 C 630.273438 1298.929688 630.753906 1298.355469 631.234375 1297.871094 C 631.234375 1297.632812 631.234375 1297.296875 631.332031 1296.816406 C 631.089844 1296.238281 630.417969 1293.5 630.179688 1292.921875 C 629.84375 1291.960938 629.503906 1291.144531 629.167969 1290.328125 " fill-opacity="1" fill-rule="nonzero"/><path fill="#ffffff" d="M 1105.398438 840.964844 C 1099.390625 826.449219 1096.457031 812.125 1094.054688 798.621094 C 1093.046875 804.148438 1091.269531 809.433594 1088.527344 814 C 1083.867188 821.980469 1077.664062 827.507812 1071.945312 831.929688 L 1070.457031 833.082031 C 1070.503906 837.023438 1070.457031 841.636719 1068.003906 847.503906 L 1063.628906 858.171875 L 1054.929688 851.105469 C 1054.640625 853.078125 1054.355469 855.144531 1053.679688 857.113281 C 1053.34375 858.652344 1052.625 859.902344 1052.09375 861.296875 L 1051.230469 863.363281 L 1051.132812 863.605469 L 1051.039062 863.75 L 1050.988281 863.84375 L 1050.414062 864.902344 L 1050.171875 865.238281 L 1049.644531 866.007812 L 1045.703125 871.582031 C 1044.980469 872.738281 1044.066406 873.9375 1043.058594 875.1875 C 1041.664062 901.238281 1037.578125 927.050781 1035.898438 953.054688 C 1035.320312 962.667969 1026.140625 1003.523438 1034.214844 1010.585938 C 1046.757812 1021.785156 1032.628906 1049.328125 1023.59375 1066.246094 C 1024.074219 1067.738281 1024.3125 1069.324219 1024.167969 1070.957031 C 1041.28125 1071.582031 1058.296875 1073.167969 1075.117188 1070.285156 C 1075.308594 1069.46875 1075.550781 1068.746094 1075.886719 1067.929688 C 1075.933594 1067.738281 1075.886719 1067.59375 1075.933594 1067.398438 C 1076.03125 1067.0625 1076.03125 1066.824219 1076.128906 1066.679688 C 1076.128906 1066.4375 1076.128906 1066.101562 1076.128906 1065.527344 C 1076.128906 1064.035156 1076.222656 1062.546875 1076.222656 1061.152344 C 1076.222656 1059.519531 1076.464844 1058.21875 1076.945312 1056.875 C 1077.28125 1045.53125 1081.703125 1035.917969 1086.507812 1025.632812 C 1091.988281 1013.566406 1086.703125 1004.003906 1086.507812 992.035156 C 1086.414062 991.699219 1086.316406 991.457031 1086.222656 991.121094 C 1084.25 982.757812 1084.683594 975.644531 1087.566406 967.519531 C 1091.554688 956.175781 1091.652344 943.777344 1095.691406 932.671875 C 1103.8125 910.5625 1113.234375 888.839844 1121.164062 866.726562 C 1121.261719 866.488281 1121.355469 866.296875 1121.40625 866.152344 C 1120.539062 865.238281 1119.625 864.421875 1118.90625 863.507812 C 1112.800781 856.441406 1108.621094 848.609375 1105.398438 840.964844 " fill-opacity="1" fill-rule="nonzero"/><path fill="#ffffff" d="M 373.269531 504.414062 L 377.066406 497.875 L 371.011719 502.394531 C 360.628906 510.179688 347.171875 514.84375 332.175781 515.902344 C 320.300781 516.429688 311.554688 514.796875 303.527344 510.757812 C 301.558594 509.796875 300.355469 508.929688 299.058594 508.019531 L 297.421875 506.816406 C 295.597656 505.324219 293.722656 503.738281 292.617188 502.347656 C 289.636719 498.789062 287.617188 496.722656 285.550781 495.183594 L 285.117188 494.894531 C 283.53125 493.789062 281.417969 492.972656 279.015625 492.058594 C 277.859375 491.628906 276.660156 491.148438 275.410156 490.617188 L 270.84375 488.695312 L 274.113281 493.789062 C 274.640625 494.65625 275.21875 495.519531 275.792969 496.339844 C 284.972656 508.882812 304.730469 523.015625 319.535156 530.417969 C 324.917969 533.15625 330.15625 534.5 335.25 534.5 C 348.949219 534.5 361.492188 524.550781 373.269531 504.414062 " fill-opacity="1" fill-rule="nonzero"/><path fill="#ffffff" d="M 234.9375 225.585938 C 242.195312 222.316406 249.164062 220.394531 256.664062 220.828125 C 252.722656 205.253906 243.0625 196.941406 223.835938 205.253906 C 214.703125 209.195312 204.609375 212.082031 196.390625 217.847656 C 196.054688 217.992188 195.910156 218.089844 195.574219 218.28125 C 197.304688 218.183594 198.9375 218.183594 200.570312 218.089844 C 204.464844 217.945312 208.214844 217.847656 212.109375 218.519531 C 220.566406 219.820312 227.96875 221.886719 234.9375 225.585938 " fill-opacity="1" fill-rule="nonzero"/><path fill="#ffffff" d="M 217.921875 360.988281 C 218.453125 360.988281 219.078125 360.9375 219.703125 360.890625 C 226.816406 360.023438 229.21875 357.382812 231.863281 352.046875 L 232.777344 351.132812 L 232.007812 350.074219 C 227.824219 344.066406 223.738281 340.992188 219.460938 340.703125 C 214.703125 340.460938 211.578125 341.519531 210.183594 343.585938 L 208.167969 346.519531 L 211.675781 345.988281 C 212.445312 345.847656 213.308594 345.796875 214.125 345.703125 C 215.039062 345.605469 215.90625 345.558594 216.769531 345.414062 C 217.875 345.269531 221.671875 344.980469 222.683594 348.632812 C 223.019531 349.882812 222.683594 351.515625 221.914062 352.71875 C 221.480469 353.34375 220.710938 354.113281 219.605469 354.304688 L 219.125 354.351562 C 217.347656 354.59375 215.617188 354.785156 213.839844 354.929688 L 211.722656 355.121094 L 212.539062 357.09375 C 213.742188 359.882812 215.183594 360.988281 217.921875 360.988281 " fill-opacity="1" fill-rule="nonzero"/><path fill="#ffffff" d="M 291.125 451.203125 C 299.152344 438.613281 317.996094 437.21875 331.644531 438.132812 C 343.566406 438.851562 363.128906 442.648438 365.433594 457.453125 C 367.742188 471.96875 357.214844 478.410156 344.765625 480.523438 C 341.835938 494.945312 313.285156 498.550781 310.449219 479.898438 C 310.351562 479.324219 310.351562 478.554688 310.351562 477.929688 C 297.902344 474.707031 281.800781 465.480469 291.125 451.203125 Z M 275.265625 442.074219 C 276.660156 442.648438 274.738281 449.042969 272.1875 459.328125 C 271.132812 464.328125 269.976562 471.105469 271.949219 476.007812 C 272.1875 476.582031 272.527344 477.0625 272.863281 477.59375 C 273.101562 477.832031 273.726562 478.890625 273.679688 478.554688 C 275.84375 480.378906 275.554688 479.898438 277.523438 480.714844 C 280.40625 481.917969 285.117188 482.589844 290.359375 485.378906 L 290.597656 485.570312 C 290.695312 485.621094 290.789062 485.621094 290.933594 485.714844 C 295.453125 488.359375 298.769531 492.15625 300.882812 494.367188 C 302.183594 495.761719 303.289062 496.386719 304.441406 497.394531 C 306.074219 498.453125 308.046875 499.847656 309.246094 500.183594 C 315.015625 502.972656 323.332031 504.078125 331.40625 503.644531 C 345.441406 502.730469 359.234375 497.730469 367.984375 490.328125 L 368.320312 489.992188 L 369.039062 489.175781 L 370.675781 487.300781 C 370.867188 486.386719 371.203125 486.050781 371.492188 485.042969 C 372.164062 482.832031 372.5 480.378906 372.40625 477.738281 C 372.308594 472.640625 371.203125 467.402344 369.808594 462.789062 L 367.550781 455.050781 L 373.894531 456.300781 C 374.375 456.347656 374.953125 456.203125 375.867188 454.90625 C 376.777344 453.65625 377.257812 451.78125 377.691406 450.148438 C 378.507812 446.6875 378.652344 443.273438 378.75 440.679688 C 378.84375 435.246094 378.171875 432.363281 378.988281 431.882812 C 379.808594 431.304688 382.449219 433.996094 383.988281 439.910156 C 384.804688 442.890625 385.480469 446.496094 385.382812 451.109375 C 385.191406 453.414062 384.996094 455.867188 383.75 458.75 C 383.269531 460.144531 382.113281 461.875 380.574219 463.269531 C 382.066406 467.402344 383.363281 471.824219 383.941406 477.015625 C 383.988281 478.410156 383.988281 479.898438 383.988281 481.390625 C 402.011719 447.503906 392.398438 410.0625 401.773438 372.667969 C 401.964844 372.089844 402.109375 371.609375 402.347656 371.03125 C 402.347656 370.9375 402.347656 370.792969 402.398438 370.597656 C 403.359375 368.050781 404.417969 365.359375 405.667969 362.621094 C 397.589844 363.964844 389.515625 361.996094 384.757812 354.59375 C 384.421875 354.929688 384.085938 355.171875 383.699219 355.507812 C 378.414062 359.449219 372.691406 351.949219 375.242188 347 C 377.257812 343.152344 379.664062 339.550781 381.777344 335.847656 C 382.929688 331.332031 385.238281 327.195312 388.601562 323.929688 C 389.613281 322.535156 390.765625 321.1875 392.160156 320.035156 C 399.851562 313.882812 409.414062 316.09375 418.355469 317.921875 C 418.164062 316.574219 417.875 315.277344 417.488281 313.882812 C 412.730469 297.78125 407.589844 280.1875 400.1875 265.046875 C 399.851562 264.230469 399.65625 263.460938 399.371094 262.742188 C 398.984375 262.066406 398.648438 261.445312 398.3125 260.769531 C 395.140625 253.03125 378.558594 251.011719 371.730469 248.945312 C 361.542969 245.964844 352.023438 242.363281 343.949219 235.34375 C 343.710938 235.105469 343.566406 234.960938 343.421875 234.71875 C 343.324219 234.71875 343.324219 234.71875 343.230469 234.621094 C 329.144531 222.460938 307.804688 246.976562 293.578125 249.523438 C 279.6875 251.972656 261.421875 242.84375 248.445312 246.6875 C 248.347656 246.878906 248.253906 247.023438 248.203125 247.214844 C 244.167969 253.464844 239.070312 257.984375 233.113281 262.355469 C 230.996094 263.894531 229.121094 265.242188 227.96875 266.105469 C 226.671875 267.257812 225.566406 268.269531 224.652344 269.230469 C 219.171875 289.707031 212.683594 309.941406 210.378906 331.089844 C 212.828125 330.175781 215.472656 329.742188 218.019531 329.9375 C 229.507812 330.5625 237.679688 338.203125 243.351562 347.769531 C 243.351562 347.863281 243.351562 347.914062 243.351562 347.914062 C 243.589844 348.152344 243.925781 348.34375 244.167969 348.585938 C 248.683594 352.382812 245.082031 358.054688 240.464844 358.679688 C 235.128906 368.148438 225.757812 373.242188 214.558594 371.753906 C 216.914062 375.644531 219.992188 378.914062 223.929688 381.078125 C 226.863281 382.761719 228.59375 385.066406 229.410156 387.566406 C 229.988281 388.480469 230.515625 389.34375 230.902344 390.5 C 238.640625 411.648438 242.339844 429.574219 254.742188 448.800781 C 257.816406 453.558594 260.269531 458.992188 262.574219 464.613281 C 263.296875 461.730469 264.402344 459.230469 265.21875 457.019531 C 270.027344 446.589844 274.0625 441.734375 275.265625 442.074219 " fill-opacity="1" fill-rule="nonzero"/><path fill="#ffffff" d="M 115.304688 288.648438 C 136.933594 304.269531 161.6875 318.496094 186.824219 321.042969 C 188.554688 309.363281 191.390625 297.925781 194.417969 286.4375 C 169.234375 287.589844 140.730469 292.589844 115.304688 288.648438 " fill-opacity="1" fill-rule="nonzero"/><path fill="#ffffff" d="M 401.820312 335.03125 C 402.832031 334.695312 403.839844 334.503906 405.28125 334.40625 C 406.820312 334.308594 408.164062 334.886719 408.933594 336.089844 C 409.847656 337.484375 409.847656 339.597656 409.03125 341.230469 C 408.5 342.289062 407.394531 343.539062 405.136719 343.683594 L 404.417969 343.636719 L 403.984375 344.117188 C 402.878906 344.546875 401.820312 344.210938 401.101562 343.875 C 399.851562 343.25 398.839844 342.046875 398.457031 340.847656 C 397.640625 337.867188 399.753906 335.847656 401.820312 335.03125 Z M 391.871094 344.117188 L 391.96875 344.644531 C 392.253906 345.941406 392.738281 347.191406 393.457031 348.394531 L 393.503906 348.441406 C 395.234375 351.085938 398.070312 352.429688 401.628906 352.429688 C 403.3125 352.429688 405.136719 352.140625 407.058594 351.515625 L 407.972656 351.230469 L 408.164062 350.363281 C 408.453125 348.585938 409.75 346.566406 412.394531 346.230469 C 413.355469 346.132812 413.980469 345.796875 414.558594 345.507812 L 415.085938 345.222656 L 416.046875 342.722656 C 416.480469 341.519531 416.914062 340.367188 417.296875 339.164062 L 417.394531 338.875 L 417.347656 338.539062 C 417.058594 335.65625 415.757812 332.628906 414.125 331.136719 C 409.367188 326.523438 401.820312 326.285156 397.160156 330.800781 L 396.628906 331.472656 C 396.054688 332.148438 395.667969 332.820312 395.1875 333.636719 C 394.324219 335.558594 393.167969 337.433594 392.0625 339.210938 L 391.582031 339.980469 L 392.0625 340.800781 C 392.253906 341.230469 392.398438 341.710938 392.398438 342.097656 C 392.398438 342.625 392.304688 343.152344 392.0625 343.683594 L 391.871094 344.117188 " fill-opacity="1" fill-rule="nonzero"/><path fill="#ffffff" d="M 316.839844 466.824219 C 318.089844 466.875 319.003906 467.304688 319.820312 467.789062 C 321.601562 468.363281 323.1875 469.519531 323.8125 471.824219 C 324.628906 474.613281 325.0625 477.496094 325.300781 480.378906 C 326.117188 480.714844 326.933594 480.859375 328.039062 480.8125 C 330.589844 480.523438 332.800781 478.074219 332.800781 478.074219 C 332.800781 476.34375 333.472656 475.046875 334.289062 474.035156 C 334.816406 471.441406 336.644531 469.132812 340.007812 468.84375 C 343.132812 468.554688 355.964844 467.210938 353.613281 460.722656 C 352.363281 457.453125 350.199219 455.242188 347.171875 453.753906 C 341.402344 451.109375 335.011719 450.292969 328.761719 450.386719 C 326.453125 450.386719 319.148438 450.386719 312.226562 451.347656 C 303.625 452.597656 295.597656 455.289062 298.914062 461.394531 C 301.078125 465.335938 313.042969 466.488281 316.839844 466.824219 " fill-opacity="1" fill-rule="nonzero"/><path fill="#ffffff" d="M 442.628906 312.96875 C 442.867188 314.796875 443.0625 316.671875 443.109375 318.402344 C 443.203125 324.3125 442.484375 329.839844 441.332031 335.078125 C 472.910156 319.554688 509.632812 304.75 533.566406 280.910156 C 554.429688 260.195312 578.21875 219.433594 568.269531 188.335938 C 565.820312 180.5 559.378906 181.992188 551.496094 187.855469 C 534.242188 212.175781 529.097656 245.484375 508.238281 267.691406 C 490.308594 286.773438 463.824219 297.445312 442.628906 312.96875 " fill-opacity="1" fill-rule="nonzero"/><path fill="#ffffff" d="M 1339.285156 1034.425781 C 1339.285156 1034.042969 1339.378906 1033.804688 1339.378906 1033.464844 C 1339.378906 1033.035156 1339.285156 1032.746094 1339.285156 1032.410156 C 1337.746094 989.246094 1333.707031 946.566406 1332.890625 903.210938 C 1332.410156 879.226562 1329.191406 856.875 1326.738281 833.898438 C 1325.34375 832.503906 1324 831.113281 1322.703125 829.71875 C 1323.132812 832.363281 1323.421875 835.003906 1323.519531 837.792969 C 1323.710938 845.578125 1322.847656 853.894531 1321.453125 862.019531 L 1318.039062 882.347656 L 1304.871094 867.066406 L 1303.714844 865.816406 C 1300.160156 861.679688 1297.179688 857.597656 1294.726562 853.558594 C 1294.632812 858.558594 1294.246094 863.84375 1293.046875 869.417969 C 1291.601562 875.1875 1289.921875 882.011719 1283.046875 888.359375 L 1274.25 896.480469 L 1268.582031 885.714844 C 1268.339844 885.328125 1268.195312 884.800781 1267.957031 884.417969 C 1267.523438 884.898438 1267.1875 885.378906 1266.800781 885.859375 C 1270.167969 901.238281 1279.539062 913.351562 1283.335938 928.394531 C 1287.519531 944.640625 1286.699219 958.53125 1285.308594 975.257812 C 1283.960938 992.035156 1286.125 1008.136719 1285.882812 1024.816406 C 1285.59375 1036.589844 1278.386719 1048.511719 1274.828125 1059.710938 L 1274.828125 1059.757812 C 1274.828125 1060.09375 1274.925781 1060.335938 1274.925781 1060.574219 C 1275.261719 1061.488281 1275.40625 1061.96875 1275.40625 1062.066406 C 1276.511719 1064.707031 1276.894531 1067.496094 1276.558594 1070.140625 C 1280.019531 1074.5625 1280.933594 1080.953125 1276.078125 1086.339844 C 1275.164062 1087.25 1274.445312 1088.453125 1273.769531 1089.847656 C 1282.902344 1091.914062 1292.085938 1093.789062 1301.3125 1093.882812 C 1313.808594 1093.980469 1322.316406 1090.085938 1331.640625 1084.511719 C 1331.160156 1079.082031 1333.613281 1073.410156 1340.148438 1071.199219 C 1346.398438 1068.988281 1349.089844 1060 1345.628906 1054.664062 C 1341.589844 1048.367188 1338.898438 1042.117188 1339.285156 1034.425781 " fill-opacity="1" fill-rule="nonzero"/><g clip-path="url(#f0127d30c5)"><path fill="#ffffff" d="M 1218.207031 404.917969 L 1217.871094 405.78125 L 1217.773438 406.070312 L 1217.773438 406.121094 L 1217.726562 406.214844 L 1217.199219 406.9375 L 1216.957031 407.175781 C 1216.957031 407.273438 1215.371094 408.617188 1214.652344 408.859375 C 1212.441406 409.675781 1210.804688 409.820312 1209.125 410.0625 C 1196.242188 411.40625 1189.511719 411.070312 1189.273438 410.253906 C 1188.839844 408.90625 1196.097656 407.128906 1207.921875 404.148438 C 1209.21875 403.765625 1210.710938 403.234375 1211.71875 402.753906 L 1211.71875 402.851562 L 1211.863281 402.753906 L 1211.765625 402.660156 C 1211.960938 402.179688 1211.863281 401.699219 1211.71875 401.21875 C 1211.527344 399.246094 1209.410156 396.410156 1206.289062 393.960938 C 1203.257812 391.410156 1199.367188 389.054688 1195.183594 386.558594 C 1193.070312 385.257812 1190.8125 383.960938 1188.503906 382.617188 C 1186.148438 380.886719 1183.9375 380.164062 1180.621094 376.222656 L 1174.851562 369.300781 L 1184.5625 367.90625 C 1186.246094 367.667969 1188.40625 366.320312 1190.136719 364.445312 C 1190.332031 364.207031 1190.570312 363.964844 1190.714844 363.726562 C 1184.660156 362.140625 1179.035156 359.015625 1174.46875 356.082031 C 1172.785156 354.976562 1171.199219 353.921875 1169.519531 352.960938 C 1167.980469 352.046875 1166.632812 351.132812 1164.664062 350.125 C 1161.058594 348.34375 1157.355469 346.421875 1153.65625 344.644531 C 1149.859375 342.578125 1146.445312 341.085938 1143.128906 339.597656 C 1141.253906 338.972656 1138.996094 338.300781 1136.976562 337.625 C 1135.390625 337.097656 1133.515625 337.144531 1131.691406 336.808594 C 1124.289062 335.894531 1115.589844 337.386719 1105.160156 337 L 1091.027344 336.472656 L 1098.574219 328.589844 C 1095.691406 327.292969 1092.949219 325.996094 1090.355469 324.648438 L 1085.835938 322.34375 L 1082.183594 320.804688 C 1079.730469 319.890625 1077.183594 319.074219 1074.542969 318.832031 C 1069.398438 318.015625 1063.871094 318.257812 1058.296875 319.167969 C 1055.507812 319.554688 1052.863281 319.988281 1049.882812 320.613281 L 1047.769531 321.042969 C 1047.578125 321.140625 1047.097656 321.1875 1046.953125 321.1875 L 1045.941406 321.523438 L 1042 322.773438 C 1021.1875 328.925781 1002.875 338.972656 987.015625 345.796875 C 971.058594 352.765625 958.558594 358.292969 950.4375 362.621094 C 942.265625 367.667969 937.746094 370.597656 937.121094 369.78125 C 936.59375 369.15625 939.8125 364.878906 947.121094 358.4375 C 955.097656 352.140625 967.597656 345.125 982.738281 337.144531 C 998.019531 329.167969 1015.515625 318.257812 1038.394531 310.613281 L 1042.675781 309.125 L 1043.730469 308.789062 L 1045.078125 308.449219 L 1047.191406 307.96875 C 1049.980469 307.296875 1053.105469 306.625 1056.226562 306.097656 C 1062.476562 304.992188 1069.398438 304.414062 1076.464844 305.421875 C 1079.972656 305.757812 1083.578125 306.816406 1087.085938 307.96875 L 1092.132812 310.179688 L 1096.265625 312.25 C 1102.179688 315.226562 1107.800781 317.582031 1113.472656 320.132812 L 1119.625 322.824219 C 1124 322.679688 1128.566406 322.582031 1133.421875 323.160156 C 1135.96875 323.6875 1138.515625 323.734375 1141.0625 324.648438 C 1143.128906 325.320312 1145.101562 325.898438 1147.265625 326.714844 C 1151.878906 328.6875 1156.109375 330.753906 1159.710938 332.773438 C 1163.460938 334.789062 1167.164062 336.664062 1170.769531 338.636719 C 1172.496094 339.550781 1174.46875 340.847656 1176.34375 342 C 1178.074219 343.152344 1179.707031 344.308594 1181.34375 345.460938 C 1187.78125 349.835938 1193.261719 352.765625 1198.789062 352.960938 L 1205.132812 353.105469 L 1204.703125 358.871094 C 1204.414062 365.214844 1201.335938 369.207031 1198.164062 372.425781 C 1197.300781 373.339844 1196.339844 374.058594 1195.328125 374.828125 C 1197.058594 376.03125 1198.789062 377.183594 1200.421875 378.339844 C 1204.605469 381.316406 1208.59375 384.203125 1212.054688 387.664062 C 1215.371094 390.980469 1218.929688 395.207031 1218.929688 400.929688 C 1219.023438 402.417969 1218.6875 403.667969 1218.207031 404.917969 Z M 1147.984375 629.09375 C 1145.246094 632.410156 1143.128906 633.371094 1142.648438 632.890625 C 1141.160156 631.640625 1146.640625 625.054688 1145.101562 612.175781 C 1144.523438 605.734375 1142.554688 597.949219 1139.910156 589.007812 C 1138.613281 584.488281 1137.121094 579.683594 1135.824219 574.445312 C 1134.476562 569.109375 1133.085938 563.484375 1133.179688 556.660156 L 1133.277344 545.414062 L 1143.324219 551.085938 C 1144.714844 551.804688 1146.0625 552.71875 1147.503906 553.535156 C 1144.859375 542.433594 1140.34375 531.425781 1135.824219 522.148438 C 1130.632812 511.476562 1124.816406 502.632812 1119.097656 496 C 1113.523438 489.320312 1107.707031 485.140625 1103.667969 482.734375 C 1099.582031 480.1875 1096.363281 479.128906 1096.746094 478.074219 C 1097.035156 477.351562 1099.773438 476.4375 1105.398438 477.6875 C 1111.167969 478.792969 1118.617188 482.445312 1126.019531 489.082031 C 1133.515625 495.664062 1140.824219 504.941406 1147.167969 516.140625 C 1153.320312 527.484375 1159.136719 539.886719 1162.210938 555.457031 C 1162.453125 558.054688 1163.367188 559.878906 1161.972656 565.167969 C 1161.203125 566.800781 1160.242188 568.773438 1157.695312 570.070312 C 1156.394531 570.742188 1155.386719 570.886719 1154.472656 570.984375 C 1153.511719 571.078125 1152.40625 571.078125 1152.023438 570.886719 C 1150.773438 570.742188 1149.617188 570.40625 1149.042969 570.070312 C 1148.5625 569.925781 1148.226562 569.734375 1147.886719 569.589844 C 1148.898438 575.164062 1150.292969 580.933594 1151.253906 586.21875 C 1153.175781 595.640625 1154.378906 604.4375 1153.753906 612.078125 C 1153.175781 619.722656 1150.867188 625.824219 1147.984375 629.09375 Z M 1074.300781 618.566406 C 1074.058594 619.480469 1073.722656 620.492188 1073.4375 621.453125 C 1072.90625 622.507812 1072.1875 623.855469 1071.03125 625.007812 C 1068.292969 627.890625 1064.109375 628.230469 1061.996094 627.796875 C 1060.84375 627.554688 1059.929688 627.316406 1059.015625 626.980469 C 1059.542969 628.277344 1059.929688 629.621094 1060.410156 631.015625 C 1062.574219 637.410156 1063.246094 646.0625 1060.167969 652.933594 C 1059.59375 654.855469 1059.015625 655.914062 1058.34375 657.308594 C 1057.71875 658.460938 1057.621094 658.941406 1056.421875 660.625 C 1055.410156 661.488281 1055.171875 662.164062 1053.296875 662.980469 C 1052.285156 663.414062 1051.230469 663.652344 1050.21875 663.75 C 1048.96875 663.796875 1049.066406 663.558594 1048.394531 663.460938 C 1044.453125 662.308594 1044.789062 661.96875 1043.492188 661.488281 L 1042 661.007812 L 1039.933594 660.335938 C 1037.914062 659.710938 1035.992188 659.039062 1034.023438 658.367188 C 1034.453125 664.039062 1033.78125 669.324219 1032.964844 673.9375 C 1031.570312 681.339844 1028.925781 687.253906 1026.570312 691.820312 C 1021.523438 701.144531 1016.621094 704.84375 1015.851562 704.171875 C 1014.796875 703.355469 1017.726562 698.5 1020.515625 689.367188 C 1021.863281 684.753906 1023.449219 679.082031 1023.832031 672.59375 C 1024.265625 666.199219 1024.265625 658.605469 1021.523438 652.070312 L 1017.199219 641.6875 L 1028.496094 644.570312 C 1033.398438 645.820312 1038.394531 647.117188 1043.636719 648.511719 L 1045.558594 648.992188 L 1047.527344 649.570312 C 1047.671875 649.183594 1047.863281 648.65625 1047.914062 648.367188 C 1049.402344 644.425781 1049.164062 640.292969 1047.433594 635.101562 C 1045.796875 629.960938 1042.675781 624 1041.28125 616.261719 L 1039.453125 606.167969 L 1049.5 608.328125 C 1052.09375 608.859375 1054.402344 609.773438 1056.46875 610.683594 L 1061.082031 612.847656 C 1061.082031 611.117188 1060.988281 609.53125 1060.988281 607.898438 C 1060.410156 600.253906 1058.4375 592.421875 1056.132812 585.304688 C 1051.375 570.984375 1045.125 558.582031 1038.636719 549.210938 C 1032.148438 539.835938 1025.226562 533.636719 1020.035156 530.511719 C 1018.738281 529.695312 1017.582031 529.070312 1016.621094 528.398438 C 1015.371094 527.964844 1014.316406 527.582031 1013.5 527.148438 C 1011.816406 526.425781 1011 525.851562 1011.09375 525.371094 C 1011.191406 524.839844 1012.152344 524.601562 1013.980469 524.457031 C 1014.890625 524.359375 1015.996094 524.359375 1017.34375 524.359375 C 1018.640625 524.601562 1020.324219 525.03125 1022.101562 525.511719 C 1029.167969 527.675781 1038.15625 533.589844 1046.375 543.203125 C 1054.59375 552.71875 1062.285156 565.648438 1068.148438 581.078125 C 1071.128906 588.910156 1073.578125 597.226562 1074.542969 606.839844 C 1074.636719 609.195312 1074.878906 611.839844 1074.734375 614.144531 C 1074.828125 615.058594 1074.542969 616.886719 1074.300781 618.566406 Z M 962.308594 769.058594 C 959.714844 770.789062 956.972656 772.472656 953.847656 774.058594 C 950.917969 775.789062 947.503906 777.328125 943.851562 778.816406 C 940.152344 780.546875 936.738281 781.21875 933.039062 782.375 C 930.585938 783.191406 928.855469 783.191406 926.644531 783.625 C 924.53125 783.910156 922.367188 784.25 920.25 784.25 C 905.207031 785.257812 889.972656 781.125 875.117188 777.328125 C 874.925781 778.097656 874.6875 778.816406 874.445312 779.488281 C 874.0625 780.882812 872.234375 783.046875 870.984375 783.910156 C 869.6875 784.824219 868.101562 785.640625 867.285156 785.835938 C 865.074219 786.554688 863.726562 788.382812 862.1875 788.671875 L 861.851562 790.496094 L 861.613281 790.496094 C 854.355469 790.496094 848.058594 787.132812 843.011719 784.96875 C 840.414062 784.007812 837.964844 782.132812 835.65625 781.027344 C 833.253906 780.066406 831.140625 778.578125 829.554688 778.242188 C 829.457031 778.191406 829.3125 778.191406 829.214844 778.097656 C 829.070312 778.671875 828.976562 779.394531 828.976562 780.066406 C 828.734375 784.34375 828.832031 789.34375 827.582031 794.535156 L 826.332031 799.484375 L 821.574219 798.910156 C 811.960938 797.753906 804.222656 794.4375 797.636719 791.3125 C 791.148438 788.191406 785.957031 784.730469 781.777344 781.941406 C 773.558594 776.222656 769.375 772.328125 769.953125 771.367188 C 770.527344 770.261719 775.960938 772.328125 784.996094 776.269531 C 792.832031 779.488281 803.789062 784.921875 816.816406 786.988281 C 816.816406 784.730469 816.71875 782.375 816.71875 779.585938 C 816.960938 777.039062 816.382812 774.15625 819.171875 769.347656 C 820.660156 766.898438 824.121094 765.023438 826.523438 764.828125 C 829.121094 764.445312 830.753906 764.925781 832.53125 765.167969 C 835.898438 765.984375 838.347656 767.136719 840.65625 767.953125 C 843.011719 768.964844 845.414062 769.875 847.722656 770.695312 C 851.855469 772.328125 855.605469 773 858.96875 773.242188 C 858.96875 773 858.96875 772.808594 858.96875 772.570312 L 858.96875 759.734375 L 868.871094 761.800781 L 869.976562 761.996094 C 888.335938 766.417969 904.871094 771.847656 919.433594 771.414062 C 921.308594 771.605469 923.183594 771.367188 924.914062 771.175781 C 926.597656 770.933594 928.808594 770.933594 929.914062 770.550781 C 933.566406 769.636719 937.507812 769.058594 940.246094 767.90625 C 943.273438 766.898438 946.207031 765.839844 949.089844 764.542969 C 952.070312 763.292969 954.761719 761.898438 957.308594 760.601562 C 967.691406 755.167969 975.910156 749.832031 981.824219 746.515625 C 987.832031 743.25 991.339844 741.757812 991.917969 742.574219 C 992.445312 743.296875 989.945312 746.277344 985.042969 750.890625 C 979.996094 755.457031 972.691406 762.042969 962.308594 769.058594 Z M 749.476562 493.886719 C 749.140625 494.945312 748.753906 495.90625 748.417969 496.914062 L 748.082031 497.636719 L 747.84375 498.308594 C 747.746094 498.453125 747.554688 498.691406 747.554688 498.691406 L 746.929688 499.847656 C 745.917969 501.527344 745.4375 502.828125 744.238281 504.558594 C 742.796875 506.191406 741.59375 507.921875 740.105469 509.21875 C 734.09375 514.601562 727.175781 515.707031 722.414062 516.476562 C 718.667969 516.957031 715.589844 517.390625 712.898438 517.726562 C 713.1875 518.785156 713.570312 519.601562 713.765625 520.324219 C 714.390625 521.476562 714.582031 522.246094 714.4375 522.628906 C 714.195312 522.964844 713.378906 522.820312 711.984375 521.8125 C 710.734375 520.898438 709.199219 518.832031 707.707031 517.054688 L 705.832031 514.84375 L 709.003906 513.496094 C 712.128906 512.296875 716.261719 510.949219 720.78125 509.554688 C 725.445312 508.066406 730.296875 506.335938 733.613281 502.585938 C 734.335938 501.671875 734.914062 500.617188 735.679688 499.703125 C 736.402344 498.691406 737.027344 496.722656 737.796875 495.28125 C 738.710938 493.695312 739.191406 490.570312 739.285156 489.417969 C 739.191406 489.417969 738.949219 489.320312 738.277344 489.175781 C 737.027344 488.9375 735.152344 488.695312 733.039062 488.503906 C 728.90625 488.023438 723.570312 487.207031 718.378906 483.9375 L 710.496094 478.890625 L 718.90625 473.316406 C 721.503906 471.585938 725.15625 468.027344 727.460938 464.855469 C 728.085938 463.941406 728.664062 462.933594 729 462.117188 C 726.210938 461.296875 720.925781 461.152344 716.261719 461.203125 C 711.070312 461.296875 705.640625 461.777344 699.96875 462.117188 C 696.988281 462.308594 694.441406 462.597656 690.546875 462.355469 L 665.027344 460.960938 L 688.050781 449.28125 C 689.203125 448.65625 690.453125 447.839844 691.507812 447.023438 C 678.773438 447.984375 666.371094 447.984375 654.835938 446.398438 C 651.375 445.773438 648.011719 445.101562 644.839844 444.476562 L 642.339844 443.945312 L 641.761719 443.800781 L 640.703125 443.5625 L 639.550781 443.226562 C 638.0625 442.792969 636.570312 442.410156 635.175781 441.976562 C 629.457031 440.4375 624.074219 439.285156 619.21875 438.851562 C 599.65625 437.074219 587.738281 443.226562 587.015625 441.0625 C 586.679688 440.34375 589.226562 438.273438 594.417969 435.632812 C 599.847656 433.035156 608.355469 430.152344 619.554688 429.960938 C 647.867188 429.625 672.1875 437.121094 701.121094 432.460938 L 707.371094 431.449219 L 708.621094 437.121094 C 708.957031 438.613281 709.199219 440.246094 709.246094 441.832031 C 709.101562 443.273438 708.859375 444.765625 708.523438 446.253906 C 708.285156 446.734375 708.042969 447.261719 707.898438 447.742188 C 710.589844 447.601562 713.28125 447.503906 716.023438 447.40625 C 718.90625 447.40625 721.789062 447.40625 724.820312 447.742188 C 727.847656 447.984375 730.777344 448.226562 734.574219 449.8125 C 735.488281 450.148438 736.5 450.53125 737.605469 451.347656 L 739.191406 452.597656 C 739.765625 453.078125 740.34375 453.847656 740.824219 454.570312 C 741.304688 455.484375 741.640625 455.625 742.171875 457.164062 L 742.410156 458.175781 C 742.746094 459.472656 742.796875 462.117188 742.554688 462.933594 C 741.640625 467.644531 739.671875 470.191406 737.988281 472.640625 C 736.738281 474.132812 735.585938 475.429688 734.433594 476.679688 C 734.574219 476.679688 734.671875 476.679688 734.769531 476.777344 C 736.738281 477.0625 738.855469 477.351562 741.402344 478.074219 C 742.652344 478.503906 744.238281 479.082031 745.773438 480.140625 C 747.363281 481.199219 748.804688 483.023438 749.574219 484.996094 C 750.964844 489.082031 749.859375 491.484375 749.476562 493.886719 Z M 663.054688 674.757812 C 661.851562 674.996094 660.027344 671.054688 656.566406 664.804688 C 652.960938 658.703125 647.386719 650.003906 637.484375 644.570312 L 613.164062 631.160156 L 641.042969 634.1875 C 644.550781 634.523438 649.019531 633.613281 649.066406 632.988281 C 649.019531 632.988281 649.066406 633.132812 649.019531 631.640625 C 648.828125 630.34375 648.203125 628.46875 647.386719 626.546875 C 643.734375 618.664062 637.339844 610.109375 630.753906 601.410156 C 627.871094 597.609375 625.324219 594.582031 622.199219 589.96875 L 615.039062 579.058594 L 628.113281 579.441406 C 630.996094 579.539062 633.542969 579.636719 635.707031 579.539062 C 632.871094 574.445312 628.449219 569.734375 624.074219 565.984375 C 617.921875 560.554688 611.578125 556.179688 606.480469 552.476562 C 595.957031 545.074219 590.140625 539.644531 591.148438 538.347656 C 592.015625 537.097656 598.9375 539.886719 610.664062 545.316406 C 616.527344 548.105469 623.59375 551.660156 631.089844 557.09375 C 634.890625 559.734375 638.734375 563.003906 642.339844 567.136719 C 645.945312 571.128906 649.40625 576.320312 650.992188 582.808594 L 652.191406 587.613281 L 647.867188 590.066406 C 645.65625 591.316406 643.394531 591.941406 641.328125 592.421875 C 641.425781 592.613281 641.617188 592.757812 641.761719 592.949219 C 648.585938 602.082031 655.171875 610.878906 659.546875 621.546875 C 660.507812 624.238281 661.46875 627.125 661.757812 630.585938 C 662.140625 633.949219 660.988281 639.234375 657.335938 642.265625 C 655.988281 643.226562 654.644531 643.898438 653.441406 644.476562 C 658.535156 650.914062 661.179688 657.546875 662.476562 662.402344 C 664.449219 670.046875 664.0625 674.515625 663.054688 674.757812 Z M 560.292969 877.496094 C 558.175781 877.640625 558.367188 866.871094 547.84375 854.710938 C 545.296875 851.683594 542.171875 848.367188 538.757812 844.617188 C 535.632812 841.15625 531.355469 837.214844 527.558594 832.503906 C 525.492188 830.292969 523.523438 826.929688 521.648438 823.949219 C 520.972656 822.554688 520.347656 821.164062 519.675781 819.769531 L 518.714844 817.652344 L 518.425781 816.835938 L 518.425781 816.742188 L 518.332031 816.5 L 518.1875 815.492188 L 517.851562 814.097656 C 517.226562 811.070312 516.9375 808.183594 516.792969 805.398438 C 515.300781 805.78125 513.667969 805.972656 511.503906 805.636719 C 508.667969 805.0625 506.699219 803.234375 505.351562 801.742188 C 504.152344 800.207031 503.382812 798.714844 502.804688 797.515625 C 501.75 794.871094 501.269531 792.5625 500.738281 790.351562 C 500.257812 787.46875 499.921875 784.730469 499.679688 782.132812 C 499.632812 782.277344 499.441406 782.375 499.34375 782.519531 L 495.117188 786.074219 L 490.980469 782.519531 C 485.644531 777.855469 482.523438 772.425781 480.023438 767.234375 C 477.667969 761.996094 475.9375 756.898438 474.878906 752.042969 C 472.574219 742.335938 472.140625 733.539062 472.667969 726.28125 C 473.148438 719.070312 474.542969 713.542969 476.273438 709.746094 C 477.90625 706.046875 479.492188 704.652344 480.117188 704.84375 C 480.839844 705.085938 480.601562 707.296875 480.359375 710.902344 C 480.117188 714.363281 480.023438 719.695312 480.601562 726.234375 C 481.273438 732.769531 482.617188 741.421875 485.453125 749.882812 C 487.617188 756.226562 490.742188 762.476562 495.257812 768.820312 C 496.507812 766.417969 497.710938 763.773438 499.105469 761.464844 L 507.421875 747.816406 L 511.3125 762.617188 C 512.707031 768.484375 512.609375 771.847656 512.996094 776.125 C 513.429688 780.164062 513.765625 784.152344 514.4375 787.804688 C 514.628906 788.957031 514.917969 790.015625 515.160156 790.929688 C 515.976562 790.257812 516.695312 789.535156 517.515625 788.671875 L 527.222656 778.671875 L 529.289062 792.082031 C 530.539062 800.207031 529.53125 806.695312 530.539062 811.550781 L 530.683594 812.558594 L 530.78125 813.039062 L 530.441406 813.28125 L 531.261719 814.816406 C 531.835938 816.308594 532.414062 817.703125 532.992188 819.144531 C 534.480469 821.164062 535.296875 823.085938 536.933594 825.296875 C 540.054688 829.71875 543.515625 833.515625 546.738281 837.839844 C 549.863281 841.878906 552.746094 845.773438 555.101562 849.617188 C 559.859375 857.355469 561.925781 864.804688 561.925781 869.949219 C 561.925781 874.949219 561.011719 877.496094 560.292969 877.496094 Z M 471.417969 635.679688 C 471.417969 644.476562 470.84375 652.453125 469.6875 658.941406 C 467.285156 672.113281 462.625 678.601562 461.613281 678.121094 C 459.980469 677.542969 461.949219 670.382812 462.046875 658.222656 C 461.949219 652.117188 461.519531 644.714844 460.796875 636.113281 C 460.125 627.363281 459.164062 617.460938 460.074219 606.167969 L 461.230469 592.035156 L 468.152344 599.4375 C 468.054688 598.09375 467.957031 596.699219 467.863281 595.304688 C 467.140625 588 465.652344 580.164062 464.113281 572.039062 C 463.777344 569.828125 463.34375 568.097656 462.910156 565.167969 L 459.882812 543.007812 L 475.121094 559.878906 C 475.695312 560.554688 476.320312 561.179688 476.898438 561.851562 C 476.320312 555.746094 475.359375 549.785156 473.773438 544.113281 C 470.410156 531.761719 465.746094 521.089844 461.230469 512.34375 C 456.472656 503.738281 452.242188 497.394531 449.070312 492.878906 C 445.511719 488.359375 443.878906 485.621094 444.453125 484.898438 C 445.128906 484.226562 447.964844 485.714844 452.578125 489.03125 C 454.886719 490.667969 457.433594 493.359375 460.460938 496.339844 C 463.34375 499.460938 466.226562 503.164062 469.351562 507.441406 C 475.265625 516.042969 481.367188 527.050781 485.886719 540.558594 C 488.097656 547.238281 489.730469 554.640625 490.597656 562.570312 C 490.644531 565.167969 490.644531 567.425781 489.683594 570.839844 C 489.011719 572.472656 488 574.683594 485.453125 576.414062 C 483.578125 577.808594 481.128906 578.242188 479.300781 578.144531 C 480.117188 583.480469 480.9375 588.816406 481.367188 594.152344 C 481.609375 598.429688 482.042969 602.320312 480.839844 607.753906 C 480.550781 609.050781 480.117188 610.683594 478.53125 612.847656 C 478.101562 613.425781 477.570312 613.90625 477.089844 614.386719 C 476.320312 614.867188 475.503906 615.394531 474.6875 615.683594 C 473.871094 616.019531 472.910156 616.210938 471.898438 616.261719 C 471.46875 623.039062 471.5625 629.621094 471.417969 635.679688 Z M 422.585938 742.574219 C 420.855469 743.152344 417.296875 734.691406 409.992188 722.484375 C 408.214844 719.214844 406.050781 715.851562 404.175781 711.671875 C 403.167969 709.507812 402.15625 707.390625 401.101562 705.179688 C 400.042969 702.441406 399.464844 700.566406 398.550781 698.019531 C 397.640625 695.808594 397.0625 693.070312 396.535156 690.183594 C 395.957031 687.398438 395.1875 684.367188 395.042969 681.582031 C 394.753906 679.753906 394.707031 677.929688 394.515625 676.148438 C 394.035156 676.054688 393.648438 675.957031 393.21875 675.910156 C 391.148438 675.332031 389.613281 674.417969 388.316406 673.507812 C 385.574219 671.632812 383.507812 669.371094 381.875 666.34375 L 381.296875 665.191406 L 380.816406 663.796875 L 380.238281 662.308594 C 379.902344 661.25 379.566406 660.335938 379.328125 658.796875 C 377.691406 651.058594 378.171875 645.53125 378.507812 639.621094 C 378.558594 638.464844 378.652344 637.3125 378.75 636.207031 C 378.027344 636.253906 377.257812 636.496094 376.441406 636.496094 C 373.75 636.449219 370.867188 635.4375 369.136719 633.902344 C 365.433594 630.824219 364.378906 627.699219 363.273438 625.007812 C 362.359375 622.21875 361.878906 619.722656 361.492188 617.269531 C 360.003906 607.5625 360.339844 599.339844 360.675781 592.515625 C 361.636719 578.960938 363.5625 571.222656 365.003906 571.222656 C 366.683594 571.222656 367.550781 579.296875 368.992188 592.371094 C 369.714844 598.859375 370.433594 606.839844 372.5 614.960938 C 372.980469 616.933594 373.65625 619 374.375 620.730469 C 374.953125 622.21875 375.867188 623.421875 376.347656 623.855469 C 376.441406 623.757812 376.632812 623.710938 377.117188 623.421875 C 378.269531 622.796875 379.902344 621.113281 381.394531 619.480469 L 392.738281 607.5625 L 392.832031 624 C 392.878906 629.765625 392.398438 635.101562 392.160156 640.4375 C 391.582031 648.992188 392.59375 671.199219 406.722656 659.757812 C 406.867188 669.132812 407.539062 678.265625 408.5 687.589844 C 408.644531 689.894531 409.03125 692.25 409.75 694.703125 C 410.425781 697.011719 410.953125 699.316406 411.480469 701.480469 C 412.203125 703.59375 412.925781 705.660156 413.597656 707.632812 C 414.847656 711.574219 416.578125 715.46875 417.777344 718.785156 C 423.5 733.203125 423.882812 742.09375 422.585938 742.574219 Z M 1466.847656 388.527344 C 1465.597656 383.625 1463.726562 378.097656 1461.320312 373.722656 C 1460.746094 372.523438 1460.410156 371.464844 1459.589844 370.117188 L 1456.851562 366.175781 L 1455.554688 364.109375 L 1455.21875 363.628906 L 1454.59375 362.957031 L 1451.707031 359.832031 C 1447.863281 355.746094 1442.960938 352.191406 1437.722656 348.824219 C 1427.097656 342.097656 1413.402344 336.425781 1400.472656 326.285156 C 1399.652344 325.660156 1398.835938 325.082031 1398.117188 324.503906 L 1385.378906 314.699219 L 1400.328125 308.210938 C 1403.933594 306.625 1407.25 305.902344 1410.179688 305.421875 C 1397.105469 298.980469 1382.734375 295.859375 1369.613281 294.800781 C 1367.160156 294.65625 1364.46875 294.65625 1361.921875 294.464844 L 1358.558594 294.367188 L 1354.953125 294.558594 C 1350.148438 294.65625 1345.628906 294.898438 1341.304688 295.570312 C 1336.832031 295.953125 1332.890625 296.867188 1329.09375 297.683594 C 1325.394531 298.261719 1321.308594 299.992188 1317.605469 301.050781 C 1304.675781 306 1293.621094 313.738281 1285.019531 317.152344 C 1280.691406 318.832031 1277.375 319.699219 1275.019531 320.035156 C 1263.195312 326.621094 1250.988281 332.484375 1237.433594 334.789062 C 1210.46875 339.210938 1182.929688 322.199219 1159.328125 312.054688 C 1060.363281 269.566406 963.511719 324.890625 873.386719 363.390625 C 799.609375 394.96875 723.328125 427.605469 641.328125 419.191406 C 622.441406 417.222656 605.90625 407.464844 587.496094 404.675781 C 567.742188 401.699219 553.945312 410.398438 535.203125 411.550781 C 532.894531 411.742188 530.78125 411.742188 528.808594 411.648438 C 529.097656 412.703125 529.625 413.761719 529.867188 414.914062 L 531.355469 420.921875 L 525.925781 422.652344 C 524.097656 423.230469 522.273438 423.710938 520.398438 424.238281 L 520.0625 424.238281 C 524.003906 429.625 527.992188 435.488281 529.960938 442.890625 C 530.828125 445.4375 530.585938 448.320312 530.585938 451.203125 L 530.105469 452.167969 C 530.105469 452.359375 530.539062 452.984375 530.539062 452.984375 L 530.78125 453.222656 L 530.78125 453.558594 L 530.585938 455.144531 C 530.585938 455.484375 530.300781 456.683594 530.011719 457.597656 C 529.722656 458.511719 529.480469 459.328125 528.617188 460.480469 C 527.894531 461.539062 527.222656 462.546875 525.925781 463.367188 C 525.011719 463.988281 524.003906 464.421875 523.183594 464.613281 C 527.511719 471.105469 531.597656 476.679688 534.480469 481.101562 C 538.757812 487.636719 540.632812 491.722656 539.71875 492.445312 C 538.757812 493.214844 535.058594 490.667969 529.386719 485.476562 C 523.714844 480.285156 515.496094 472.738281 507.324219 461.203125 L 500.113281 451.011719 L 513.1875 452.40625 C 514.917969 452.648438 516.648438 452.839844 518.042969 452.933594 L 518.1875 451.78125 L 519.773438 451.445312 L 519.003906 451.011719 C 518.859375 449.617188 518.332031 448.128906 517.707031 446.589844 C 515.832031 440.148438 509.726562 433.324219 503.863281 425.105469 L 501.75 422.269531 L 495.835938 413.617188 L 505.640625 411.792969 C 507.421875 411.503906 509.292969 411.167969 511.023438 410.972656 L 513.1875 410.925781 C 511.9375 409.195312 510.398438 407.511719 508.765625 405.976562 C 504.535156 403.667969 500.257812 400.785156 495.257812 397.277344 C 492.566406 395.351562 489.828125 393.476562 487.089844 391.75 C 484.539062 390.449219 482.089844 389.296875 479.878906 388.191406 C 467.71875 382.519531 459.882812 379.730469 460.21875 378 C 460.21875 377.953125 460.414062 377.855469 460.460938 377.761719 C 450.605469 373.914062 440.175781 371.464844 428.640625 370.550781 C 427.824219 372.761719 427.007812 374.972656 426.191406 377.183594 C 425.996094 377.714844 425.851562 378 425.613281 378.433594 C 425.613281 378.769531 425.613281 379.011719 425.515625 379.25 C 414.652344 422.992188 427.246094 463.703125 400.042969 502.585938 C 399.800781 503.546875 399.464844 504.558594 398.984375 505.519531 C 387.546875 527.964844 375.867188 549.355469 348.277344 555.699219 C 339.769531 557.574219 332.367188 557.429688 325.636719 556.082031 C 330.15625 576.847656 334.53125 597.949219 341.59375 617.703125 C 348.46875 636.832031 363.707031 653.847656 369.375 673.167969 C 376.539062 698.019531 376.347656 722.339844 386.726562 746.710938 C 393.457031 762.714844 401.964844 777.757812 409.222656 793.574219 C 410.136719 795.496094 410.472656 797.515625 410.425781 799.390625 C 429.074219 830.726562 454.308594 838.945312 454.066406 880.761719 C 453.875 937.433594 405.472656 1008.328125 434.890625 1062.835938 C 435.371094 1063.699219 435.804688 1064.707031 436.042969 1065.621094 C 437.964844 1068.265625 438.878906 1071.535156 438.207031 1075.378906 C 434.167969 1098.59375 434.3125 1123.15625 428.0625 1145.9375 C 422.679688 1165.933594 407.109375 1186.792969 415.566406 1207.605469 C 416.144531 1209 416.433594 1210.296875 416.480469 1211.644531 C 418.308594 1214.816406 418.691406 1218.949219 416.433594 1223.226562 C 412.539062 1230.4375 410.664062 1239.234375 409.511719 1247.546875 C 409.847656 1247.980469 410.230469 1248.367188 410.710938 1249.039062 C 410.953125 1249.421875 411.242188 1249.757812 411.480469 1250.191406 C 412.875 1251.347656 414.125 1252.738281 414.847656 1254.46875 C 426.191406 1256.585938 437.871094 1259.566406 449.070312 1256.535156 C 452.914062 1255.429688 458.824219 1253.414062 464.355469 1252.980469 C 464.355469 1244.855469 464.355469 1234.332031 464.355469 1226.253906 C 464.355469 1221.257812 466.804688 1217.796875 470.167969 1215.96875 C 470.410156 1215.25 470.746094 1214.574219 471.179688 1213.855469 C 498.625 1168.050781 473.054688 1110.324219 471.5625 1060.816406 C 471.46875 1060.574219 471.5625 1060.335938 471.5625 1060.191406 C 471.273438 1058.460938 471.324219 1056.488281 471.996094 1054.421875 C 479.878906 1028.515625 494.683594 1001.40625 494.683594 973.671875 C 494.585938 955.601562 493.671875 938.25 498.527344 920.898438 L 497.230469 919.839844 L 494.105469 916.957031 C 488.339844 911.863281 482.90625 904.941406 480.023438 896.722656 C 479.636719 895.472656 479.398438 894.171875 479.0625 892.972656 L 474.878906 895.472656 L 469.929688 889.75 C 463.25 882.207031 459.308594 874.035156 456.183594 866.246094 C 453.058594 858.316406 451.183594 850.867188 449.933594 843.128906 C 447.820312 828.757812 448.445312 815.683594 448.25 805.972656 C 448.15625 796.121094 446.664062 788.671875 445.609375 783.625 C 443.925781 778.242188 443.300781 775.066406 444.261719 774.539062 C 445.175781 774.058594 447.625 776.222656 451.039062 780.789062 C 454.308594 785.882812 457.816406 794.199219 459.644531 804.820312 C 461.613281 815.492188 462.285156 827.316406 465.410156 840.386719 C 467.621094 849.519531 471.46875 860.046875 477.1875 869.035156 C 477.523438 868.601562 477.8125 868.121094 478.148438 867.691406 L 488.675781 853.414062 L 494.105469 870.09375 C 494.828125 872.398438 495.5 874.707031 496.078125 877.015625 L 496.75 882.6875 L 497.230469 886.964844 C 497.46875 887.828125 497.808594 888.695312 497.855469 889.558594 L 498.144531 890.230469 C 499.777344 894.605469 502.757812 898.546875 507.179688 902.585938 L 507.5625 902.96875 C 507.660156 902.824219 507.660156 902.632812 507.757812 902.488281 L 509.488281 897.632812 C 510.542969 895.472656 511.890625 893.546875 513.1875 891.625 L 520.011719 882.207031 L 527.703125 891.867188 C 533.136719 898.789062 537.507812 905.132812 542.027344 908.882812 C 544.335938 910.707031 546.640625 912.292969 549.429688 913.253906 L 551.496094 914.074219 L 554.523438 915.226562 L 557.167969 916.234375 L 560.4375 917.917969 C 564.808594 920.226562 568.125 923.109375 570.867188 926.183594 L 571.972656 927.242188 L 572.453125 927.820312 C 572.546875 927.867188 573.269531 928.78125 573.269531 928.78125 C 573.367188 928.875 573.507812 929.214844 573.507812 929.214844 L 574.855469 931.328125 C 575.769531 932.914062 576.632812 933.875 577.5 935.894531 C 578.269531 937.578125 579.039062 939.257812 579.757812 940.894531 C 580.285156 939.402344 580.671875 937.914062 581.105469 936.421875 C 582.59375 930.941406 583.316406 925.753906 584.226562 921.617188 C 585.957031 913.160156 587.929688 908.496094 589.226562 908.738281 C 590.574219 908.882812 591.199219 913.59375 591.773438 922.148438 C 592.015625 926.472656 592.351562 931.761719 591.773438 938.152344 C 591.148438 944.59375 590.285156 952.378906 584.949219 960.597656 L 579.949219 968.242188 L 573.992188 960.695312 C 572.066406 958.148438 570.335938 955.265625 568.847656 952.574219 C 571.058594 968.195312 570.144531 984.054688 567.933594 1000.15625 C 565.625 1017.171875 557.886719 1037.886719 558.753906 1054.902344 C 559.714844 1073.3125 567.695312 1087.394531 576.730469 1102.871094 C 577.308594 1103.832031 577.644531 1104.746094 577.980469 1105.707031 C 579.519531 1107.632812 580.429688 1110.082031 580.429688 1113.207031 C 580.527344 1147.574219 582.160156 1183.765625 573.75 1217.363281 C 569.90625 1232.984375 559.378906 1249.855469 566.683594 1266.054688 C 570.050781 1273.457031 571.296875 1277.253906 572.066406 1284.460938 C 572.644531 1285.375 573.171875 1286.289062 573.507812 1287.347656 C 573.507812 1287.441406 573.507812 1287.539062 573.507812 1287.585938 C 591.4375 1287.585938 609.03125 1285.617188 626.042969 1278.453125 C 626.574219 1275.761719 628.113281 1273.3125 630.179688 1271.390625 C 632.582031 1255.046875 638.398438 1237.597656 634.359375 1221.351562 C 633.925781 1219.765625 633.925781 1218.375 634.023438 1217.027344 C 633.925781 1216.402344 633.878906 1215.730469 633.878906 1214.914062 C 634.695312 1192.464844 639.117188 1169.683594 638.398438 1147.140625 C 637.820312 1126.183594 632.003906 1107.292969 629.167969 1086.675781 C 625.226562 1057.546875 642.53125 1041.828125 644.261719 1014.578125 C 644.453125 1010.347656 646.375 1007.320312 649.066406 1005.347656 C 656.132812 978.769531 650.414062 955.121094 650.414062 927.484375 C 650.414062 915.996094 654.257812 904.460938 658.875 893.210938 C 658.96875 889.65625 659.257812 885.859375 659.835938 881.773438 C 661.421875 870.527344 665.265625 857.597656 668.003906 844.089844 C 669.160156 838.128906 669.160156 831.351562 668.488281 823.660156 C 667.8125 816.019531 666.898438 807.03125 668.003906 797.082031 C 668.003906 797.082031 669.496094 788.527344 669.496094 788.429688 C 669.734375 786.988281 682.617188 790.832031 683.675781 790.6875 C 683.769531 790.59375 683.867188 790.496094 683.914062 790.402344 C 688.722656 786.21875 677.761719 773.816406 675.550781 770.453125 C 674.398438 768.628906 673.246094 766.847656 672.089844 765.023438 C 670.9375 762.859375 669.878906 760.070312 668.917969 757.714844 L 662.71875 742.335938 L 679.347656 746.132812 C 680.792969 746.421875 682.136719 746.949219 683.289062 747.429688 C 683.289062 746.949219 683.386719 746.371094 683.386719 745.84375 C 683.289062 743.296875 682.953125 740.941406 682.808594 738.441406 C 681.558594 728.828125 678.097656 720.800781 674.640625 714.265625 C 667.332031 701.769531 659.59375 695.230469 661.179688 693.40625 C 661.851562 692.589844 664.304688 693.261719 668.246094 695.136719 C 672.089844 697.011719 678.050781 701.382812 683.675781 707.777344 C 689.203125 714.363281 694.96875 723.6875 697.949219 735.558594 C 698.429688 738.632812 699.152344 741.664062 699.488281 744.882812 C 699.585938 746.515625 699.632812 748.152344 699.730469 749.832031 L 699.824219 752.285156 L 699.871094 753.582031 L 699.871094 754.496094 L 699.824219 755.3125 C 699.632812 756.5625 699.871094 758.917969 697.949219 762.957031 C 697.179688 764.109375 696.699219 765.117188 695.066406 766.320312 L 696.699219 769.539062 L 697.855469 772.570312 L 699.007812 775.546875 L 699.96875 779.296875 C 700.691406 781.84375 701.121094 784.25 701.460938 786.652344 C 701.890625 789.101562 701.941406 791.554688 702.085938 794.054688 L 702.179688 795.929688 L 702.085938 797.898438 C 702.085938 798.621094 702.035156 800.78125 701.601562 802.851562 C 701.363281 803.667969 701.121094 804.578125 700.882812 805.398438 C 700.304688 806.695312 699.585938 807.992188 698.429688 809.433594 C 694.875 813.519531 688.480469 813.425781 686.558594 812.558594 C 686.511719 812.558594 686.414062 812.460938 686.222656 812.460938 C 686.558594 823.660156 687.90625 835.964844 684.589844 847.886719 C 683.769531 850.675781 682.953125 853.222656 682.136719 855.867188 C 704.824219 843.847656 727.941406 847.550781 752.9375 853.175781 C 776.25 858.414062 799.03125 864.179688 821.8125 852.835938 C 829.214844 849.136719 836.617188 845.820312 844.117188 842.886719 C 843.445312 842.550781 842.820312 842.214844 842.144531 841.878906 C 834.839844 837.695312 829.890625 832.167969 827.917969 827.410156 C 826.667969 825.054688 826.765625 823.46875 826.667969 822.171875 C 826.765625 820.921875 827.101562 820.105469 827.628906 819.769531 C 828.207031 819.433594 829.070312 819.671875 830.128906 820.34375 C 831.1875 820.921875 832.53125 822.316406 834.070312 823.132812 C 836.953125 825.054688 841.375 827.507812 847.722656 829.285156 C 854.066406 831.304688 862.332031 832.503906 872.476562 835.292969 C 876.703125 836.542969 881.414062 838.371094 886.222656 840.964844 C 890.210938 846.109375 893.671875 850.960938 896.84375 856.152344 C 900.207031 861.679688 903.523438 867.546875 906.890625 874.082031 C 910.351562 880.667969 913.761719 887.636719 918.570312 895.808594 C 924.097656 887.925781 925.828125 878.792969 925.730469 869.707031 C 925.492188 860.625 922.800781 851.347656 917.753906 843.175781 C 917.222656 842.3125 916.550781 841.492188 915.925781 840.582031 C 915.734375 838.851562 915.6875 837.457031 916.023438 836.640625 C 915.203125 835.148438 914.339844 833.660156 913.523438 832.410156 C 911.9375 830.488281 910.589844 828.757812 909.628906 827.171875 C 907.660156 824.046875 906.890625 821.835938 907.851562 820.824219 C 908.667969 819.769531 910.976562 820.007812 914.386719 821.355469 C 914.722656 821.449219 915.15625 821.691406 915.542969 821.835938 C 917.609375 823.132812 919.628906 824.527344 921.695312 826.015625 C 928.757812 831.398438 934.816406 838.226562 940.054688 846.011719 C 940.726562 847.261719 941.351562 848.511719 942.023438 849.808594 C 943.851562 853.316406 945.824219 857.113281 947.792969 861.054688 C 948.609375 862.210938 949.332031 863.363281 950.050781 864.566406 C 952.214844 870.285156 954.042969 876.535156 955.484375 883.503906 C 962.886719 871.96875 964.375 856.632812 960.722656 842.597656 C 960.386719 841.253906 959.761719 840.003906 959.328125 838.65625 C 959.425781 838.273438 959.472656 837.792969 959.570312 837.457031 C 958.800781 835.964844 958.078125 834.332031 957.40625 832.84375 C 956.15625 829.574219 954.425781 826.882812 952.695312 824.335938 C 952.070312 823.324219 951.496094 822.414062 950.820312 821.449219 C 950.339844 820.683594 949.714844 819.816406 949.234375 819.046875 C 943.371094 811.214844 937.988281 805.300781 933.804688 801.742188 C 929.863281 797.996094 927.894531 795.449219 928.375 794.628906 C 928.855469 793.8125 931.738281 794.679688 937.027344 797.226562 C 942.457031 799.53125 949.332031 804.628906 957.261719 812.320312 C 960.578125 816.546875 965.191406 820.824219 968.316406 826.691406 C 969.953125 829.574219 971.96875 832.503906 973.507812 835.628906 C 974.902344 838.945312 976.390625 842.359375 977.785156 845.820312 C 981.726562 856.539062 984.324219 868.699219 985.621094 881.722656 C 984.179688 886.148438 982.398438 890.761719 980.09375 895.808594 C 990.476562 894.75 999.464844 888.214844 1005.808594 879.65625 C 1012.105469 871.007812 1015.277344 860.289062 1015.710938 850.050781 C 1015.851562 846.636719 1015.660156 843.273438 1015.277344 840.003906 L 1021.765625 829.285156 L 1027.964844 849.808594 C 1029.023438 853.222656 1029.746094 856.441406 1030.417969 859.566406 L 1033.6875 854.953125 L 1034.214844 854.230469 C 1034.023438 854.230469 1034.359375 853.558594 1034.359375 853.558594 C 1034.597656 852.933594 1035.078125 852.164062 1035.175781 851.492188 C 1036.136719 848.800781 1036.136719 845.917969 1035.898438 841.78125 C 1035.703125 837.695312 1035.175781 832.601562 1035.703125 827.171875 L 1036.808594 813.761719 L 1048.921875 819.527344 C 1050.414062 820.199219 1051.710938 821.019531 1052.863281 821.835938 C 1052.910156 819.625 1053.007812 817.460938 1053.007812 815.441406 C 1053.824219 802.511719 1055.652344 791.792969 1051.230469 779.394531 C 1050.652344 778 1050.074219 776.511719 1049.59375 775.117188 C 1049.066406 773.480469 1048.488281 772.089844 1047.671875 771.03125 C 1046.183594 768.820312 1045.460938 766.320312 1042.675781 763.964844 C 1041.519531 762.8125 1040.367188 761.65625 1039.214844 760.503906 L 1038.394531 759.6875 L 1038.203125 759.445312 C 1038.058594 759.253906 1036.328125 757.859375 1036.328125 757.859375 C 1031.8125 754.0625 1027.628906 751.035156 1023.929688 748.34375 C 1020.324219 745.796875 1017.199219 743.730469 1014.605469 741.902344 C 1008.691406 739.019531 1005.664062 737.046875 1006 736.085938 C 1006.242188 735.078125 1009.941406 735.175781 1016.382812 736.328125 C 1019.554688 737.386719 1023.734375 738.777344 1028.253906 740.84375 C 1032.628906 743.007812 1037.628906 745.507812 1042.769531 748.824219 L 1044.789062 750.074219 L 1045.269531 750.363281 L 1046.183594 751.132812 L 1047.097656 751.851562 C 1048.34375 752.863281 1049.59375 753.824219 1050.894531 754.878906 C 1053.441406 756.464844 1056.132812 760.167969 1058.871094 763.722656 C 1060.363281 765.503906 1061.226562 767.328125 1062.042969 769.300781 C 1062.957031 771.269531 1063.871094 773.242188 1064.785156 775.210938 C 1065.601562 777.277344 1065.984375 779.394531 1066.609375 781.558594 L 1067.378906 784.730469 L 1067.8125 786.410156 L 1067.90625 786.796875 L 1068.050781 787.804688 L 1068.148438 788.527344 C 1068.390625 792.226562 1068.820312 795.929688 1069.109375 799.726562 C 1069.976562 801.9375 1070.695312 804.242188 1071.128906 806.695312 C 1071.417969 806.117188 1071.847656 805.542969 1072.089844 804.964844 C 1074.734375 799.820312 1075.886719 794.054688 1075.550781 787.226562 L 1075.117188 783.429688 L 1075.070312 782.421875 L 1074.542969 782.179688 L 1074.300781 780.210938 C 1073.578125 777.421875 1073.097656 774.394531 1072.234375 771.75 C 1071.367188 769.636719 1070.601562 767.570312 1069.78125 765.453125 C 1069.0625 763.292969 1067.570312 761.226562 1066.609375 759.207031 C 1061.898438 751.035156 1056.226562 744.210938 1050.796875 738.683594 C 1040.03125 727.628906 1032.628906 720.371094 1034.214844 718.0625 C 1035.609375 715.996094 1045.460938 718.878906 1059.6875 728.203125 C 1066.753906 732.769531 1074.734375 739.789062 1081.65625 749.496094 C 1083.289062 752.042969 1085.164062 754.398438 1086.558594 757.378906 C 1087.328125 758.917969 1088.046875 760.601562 1088.816406 762.234375 C 1088.527344 760.648438 1088.289062 759.015625 1088.046875 757.476562 C 1087.566406 754.59375 1087.085938 751.707031 1086.652344 748.921875 C 1085.882812 745.941406 1085.257812 743.152344 1084.585938 740.363281 C 1083.960938 737.578125 1083.289062 734.835938 1082.617188 732.144531 C 1081.800781 729.933594 1080.980469 727.773438 1080.164062 725.609375 C 1072.8125 707.488281 1060.746094 695.617188 1053.296875 686.675781 C 1045.558594 677.6875 1042.097656 672.207031 1042.960938 671.296875 C 1043.875 670.285156 1049.164062 674.324219 1058.296875 681.484375 C 1062.859375 685.089844 1068.484375 689.703125 1074.542969 695.855469 C 1080.789062 701.863281 1086.988281 710.082031 1092.132812 720.035156 C 1092.757812 721.378906 1093.382812 722.582031 1093.960938 723.925781 L 1094.96875 725.898438 L 1095.351562 726.859375 L 1095.640625 727.339844 L 1095.929688 728.347656 C 1096.84375 730.992188 1097.660156 733.683594 1098.476562 736.421875 C 1099.390625 739.210938 1100.304688 741.902344 1101.121094 744.882812 C 1101.792969 747.910156 1102.515625 751.035156 1103.285156 754.160156 C 1106.214844 766.898438 1108.1875 779.828125 1110.832031 793.378906 C 1113.617188 806.789062 1116.886719 820.777344 1122.605469 833.613281 C 1126.355469 842.117188 1131.449219 850.050781 1138.035156 855.433594 C 1138.613281 852.742188 1139.429688 850.050781 1140.726562 847.164062 C 1142.074219 844.425781 1143.707031 841.976562 1145.535156 839.667969 L 1150.964844 833.035156 L 1158.175781 837.839844 C 1165.382812 842.695312 1169.949219 849.039062 1173.460938 855.046875 C 1177.015625 861.105469 1179.5625 867.207031 1181.773438 873.121094 C 1182.640625 875.378906 1183.265625 877.496094 1184.035156 879.707031 C 1183.265625 892.78125 1181.101562 906.140625 1176.96875 920.417969 C 1190.042969 910.417969 1198.695312 895.277344 1203.164062 878.984375 C 1207.679688 862.644531 1207.730469 845.148438 1204.269531 828.804688 C 1202.875 822.171875 1200.855469 815.777344 1198.453125 809.53125 C 1197.589844 803.425781 1196.53125 797.5625 1195.425781 792.226562 C 1188.792969 762.570312 1182.542969 745.125 1184.800781 744.304688 C 1186.484375 743.585938 1196.484375 759.253906 1206.527344 789.296875 C 1211.285156 804.148438 1216.046875 822.796875 1216.238281 844.90625 C 1216.285156 845.195312 1216.382812 845.433594 1216.476562 845.773438 C 1217.199219 848.800781 1218.207031 852.261719 1218.59375 856.058594 C 1218.785156 857.933594 1219.023438 859.902344 1219.265625 862.019531 C 1219.363281 864.085938 1219.363281 866.246094 1219.410156 868.457031 C 1219.410156 868.796875 1219.410156 869.179688 1219.363281 869.515625 C 1219.984375 867.546875 1220.515625 865.574219 1220.753906 863.265625 L 1222.871094 843.367188 L 1236.28125 858.414062 C 1242.289062 865.140625 1243.683594 871.96875 1245.558594 877.496094 C 1245.652344 877.832031 1245.84375 878.167969 1245.894531 878.503906 C 1247.238281 877.253906 1248.777344 876.195312 1250.410156 875.429688 C 1252.476562 872.738281 1254.351562 869.949219 1255.746094 867.066406 C 1256.757812 865.140625 1257.238281 863.265625 1258.007812 861.394531 L 1265.070312 841.300781 L 1275.117188 857.980469 C 1275.308594 858.414062 1275.597656 858.75 1275.839844 859.183594 C 1276.078125 856.875 1276.320312 854.566406 1276.511719 852.164062 C 1276.894531 843.128906 1276.511719 833.996094 1275.597656 825.632812 C 1275.308594 823.566406 1275.117188 821.402344 1274.78125 819.625 C 1274.347656 817.460938 1273.964844 815.441406 1273.628906 813.28125 C 1272.953125 809.003906 1271.800781 805.878906 1270.984375 802.175781 C 1269.925781 798.621094 1268.867188 795.207031 1267.761719 791.792969 C 1266.511719 788.527344 1265.40625 785.304688 1264.351562 782.277344 C 1254.351562 758.195312 1247.863281 743.007812 1250.171875 741.808594 C 1252.238281 740.84375 1262.285156 753.246094 1275.742188 776.941406 C 1277.328125 779.96875 1278.960938 783.191406 1280.691406 786.554688 C 1282.183594 790.113281 1283.816406 793.621094 1285.308594 797.5625 C 1286.605469 801.457031 1288.429688 805.972656 1289.34375 810.011719 C 1289.824219 811.980469 1290.304688 814 1290.882812 816.066406 C 1291.890625 817.125 1292.851562 818.375 1293.910156 819.671875 C 1297.753906 824.285156 1301.648438 830.199219 1305.832031 836.398438 C 1306.359375 830.488281 1306.503906 825.199219 1306.070312 820.777344 C 1305.445312 813.761719 1303.8125 808.425781 1304.101562 805.542969 C 1302.128906 802.417969 1300.398438 799.53125 1298.859375 796.984375 C 1293.527344 787.226562 1291.363281 781.21875 1292.660156 780.210938 C 1294.101562 779.25 1298.910156 783.527344 1306.503906 791.554688 C 1309.820312 794.871094 1313.714844 799.148438 1318.085938 803.761719 C 1315.78125 798.234375 1312.992188 792.46875 1309.867188 786.554688 L 1300.976562 769.683594 L 1319 772.808594 C 1318.808594 772.230469 1318.761719 771.605469 1318.617188 771.03125 C 1314.242188 754.496094 1305.832031 738.058594 1296.648438 726.378906 C 1295.496094 724.984375 1294.4375 723.492188 1293.191406 722.195312 C 1291.796875 720.707031 1290.402344 719.214844 1289.007812 717.824219 C 1286.21875 714.601562 1283.722656 713.160156 1281.269531 710.851562 C 1275.980469 706.625 1270.3125 702.921875 1265.121094 699.652344 C 1254.546875 693.261719 1245.507812 687.734375 1239.742188 683.214844 C 1233.972656 678.601562 1231.378906 675.476562 1232.097656 674.324219 C 1232.722656 673.265625 1236.761719 674.179688 1243.347656 676.628906 C 1245.414062 677.304688 1247.71875 678.121094 1250.265625 679.082031 C 1244.933594 674.179688 1240.316406 669.371094 1236.28125 665.144531 C 1222.484375 649.808594 1214.410156 641.300781 1215.660156 639.378906 C 1216.476562 638.179688 1222.003906 640.582031 1230.417969 646.253906 C 1233.925781 651.734375 1237.820312 656.972656 1242.191406 661.777344 C 1252.816406 673.410156 1265.695312 682.976562 1279.78125 689.414062 C 1293.910156 695.855469 1309.148438 699.75 1324.625 698.933594 C 1312.175781 689.894531 1300.589844 681.773438 1289.921875 672.929688 C 1279.15625 664.277344 1269.445312 655.050781 1260.359375 645.195312 C 1258.292969 642.984375 1256.46875 640.582031 1254.496094 638.273438 C 1250.316406 628.660156 1246.855469 619.480469 1243.875 610.683594 C 1240.65625 601.648438 1237.675781 592.996094 1234.886719 584.96875 C 1231.859375 576.414062 1229.984375 568.675781 1227.964844 561.753906 C 1224.359375 548.054688 1220.515625 537.097656 1217.152344 530.847656 C 1215.804688 527.386719 1213.449219 524.839844 1212.441406 522.871094 C 1211.382812 520.898438 1211.046875 519.699219 1211.527344 519.167969 C 1211.960938 518.6875 1213.160156 519.023438 1215.179688 520.082031 C 1217.152344 521.234375 1219.9375 522.484375 1222.871094 525.996094 C 1229.550781 532.675781 1235.464844 543.539062 1241.039062 557.332031 C 1243.875 564.0625 1246.566406 571.703125 1249.882812 579.058594 C 1253.488281 587.035156 1256.757812 595.398438 1260.554688 604.292969 C 1264.160156 613.089844 1267.957031 622.363281 1272.183594 631.402344 C 1274.203125 636.207031 1276.75 640.535156 1279.203125 644.957031 C 1280.453125 647.214844 1281.652344 649.472656 1282.902344 651.78125 L 1283.335938 652.550781 C 1283.382812 652.695312 1284.730469 654.375 1284.730469 654.375 L 1287.179688 657.644531 C 1287.519531 657.980469 1287.902344 658.367188 1288.238281 658.796875 C 1288.144531 657.980469 1288 657.308594 1287.902344 656.585938 C 1286.988281 650.242188 1285.882812 643.851562 1286.21875 635.4375 C 1286.605469 626.882812 1288.238281 619.144531 1289.730469 611.261719 C 1291.121094 603.476562 1292.613281 595.496094 1291.890625 588.429688 L 1291.601562 585.113281 L 1291.121094 582.472656 C 1290.785156 580.691406 1290.546875 578.960938 1289.921875 576.992188 C 1288.910156 573.144531 1287.421875 569.253906 1285.789062 565.3125 C 1282.421875 557.429688 1278 549.691406 1273.675781 541.855469 C 1269.253906 533.394531 1265.792969 526.1875 1262.089844 518.6875 C 1255.84375 503.066406 1250.84375 488.023438 1248.96875 475.671875 C 1246.085938 463.367188 1245.652344 453.175781 1245.558594 446.109375 C 1245.558594 439.042969 1246.132812 435.054688 1247.480469 434.910156 C 1248.777344 434.765625 1250.746094 438.273438 1253.054688 444.765625 C 1254.496094 448.898438 1256.082031 454.234375 1258.054688 460.386719 C 1263.246094 492.925781 1275.695312 520.753906 1295.402344 543.058594 C 1299.390625 547.527344 1303.714844 551.851562 1308.234375 555.890625 C 1309.4375 556.898438 1310.878906 557.429688 1312.320312 557.429688 C 1314 557.429688 1315.683594 556.707031 1316.933594 555.363281 C 1319.191406 552.816406 1318.953125 548.921875 1316.40625 546.664062 C 1312.222656 542.960938 1308.28125 539.019531 1304.628906 534.886719 C 1293.8125 522.628906 1285.402344 508.5 1279.296875 492.683594 C 1277.039062 476.632812 1275.886719 461.828125 1273.433594 449.042969 C 1271.078125 436.160156 1267.1875 425.441406 1261.996094 417.65625 C 1260.9375 415.492188 1259.449219 413.859375 1258.148438 412.128906 C 1256.757812 410.589844 1255.699219 408.667969 1254.304688 407.511719 C 1251.421875 405.0625 1249.59375 402.371094 1247.046875 400.640625 C 1242.289062 396.9375 1239.980469 394.296875 1240.65625 393.140625 C 1241.230469 391.890625 1244.691406 392.230469 1250.507812 393.910156 C 1253.390625 394.535156 1256.851562 396.84375 1261.035156 399.054688 C 1263.195312 400.160156 1264.832031 401.84375 1266.945312 403.523438 C 1267.28125 403.8125 1267.667969 404.148438 1268.097656 404.484375 C 1267.667969 403.234375 1267.1875 402.035156 1266.800781 401.023438 C 1264.398438 395.929688 1263.101562 392.996094 1263.917969 392.421875 C 1264.640625 391.890625 1267.1875 393.621094 1271.128906 397.902344 C 1275.019531 402.660156 1279.347656 410.398438 1283.722656 419.960938 C 1288.335938 429.382812 1292.949219 440.484375 1303.378906 448.5625 C 1310.109375 453.511719 1319.671875 458.269531 1330.152344 461.539062 C 1329.863281 460.914062 1329.527344 460.144531 1329.191406 459.425781 C 1326.644531 453.753906 1323.277344 447.601562 1321.882812 438.707031 L 1319.960938 426.355469 L 1332.554688 428.566406 C 1346.109375 430.96875 1357.308594 437.3125 1367.738281 442.3125 C 1372.882812 444.957031 1378.359375 447.261719 1382.542969 448.417969 C 1385.570312 449.136719 1388.648438 449.8125 1391.675781 450.53125 C 1394.414062 450.917969 1397.203125 451.347656 1399.894531 451.78125 C 1407.25 452.359375 1414.9375 452.742188 1422.195312 452.503906 C 1420.464844 449.378906 1418.304688 446.253906 1416.1875 443.128906 C 1411.476562 436.402344 1406.335938 430.152344 1401.238281 423.085938 L 1392.492188 411.070312 L 1406.910156 408.90625 C 1418.207031 407.273438 1428.011719 410.0625 1436.425781 413.425781 C 1439.546875 414.769531 1442.335938 416.308594 1445.125 417.894531 C 1444.882812 416.886719 1444.738281 415.925781 1444.449219 415.011719 C 1443.058594 409.4375 1441.039062 403.667969 1438.921875 399.824219 C 1435.894531 394.535156 1433.589844 391.265625 1430.511719 387.808594 C 1427.578125 384.347656 1424.40625 381.558594 1421.425781 379.105469 C 1409.460938 369.300781 1400.902344 365.359375 1401.625 363.628906 C 1402.105469 362.476562 1411.671875 363.390625 1426.523438 371.753906 C 1430.128906 373.914062 1434.164062 376.609375 1438.152344 380.164062 C 1442.09375 383.433594 1446.421875 388.527344 1449.449219 392.902344 C 1452.527344 397.417969 1454.59375 401.84375 1456.46875 406.695312 C 1458.199219 409.484375 1459.832031 412.703125 1461.5625 415.925781 C 1463.773438 411.167969 1465.839844 406.457031 1467.089844 401.792969 C 1467.234375 400.785156 1467.425781 399.871094 1467.617188 398.957031 C 1467.90625 397.902344 1467.90625 396.265625 1467.953125 394.871094 C 1467.570312 392.804688 1467.1875 390.691406 1466.847656 388.527344 " fill-opacity="1" fill-rule="nonzero"/></g><path fill="#ffffff" d="M 508.382812 239.09375 C 510.640625 235.199219 512.609375 231.257812 514.582031 227.222656 C 509.054688 233.710938 504.777344 238.757812 502.757812 240.054688 C 479.398438 254.617188 453.585938 258.65625 427.726562 265.722656 C 432.199219 275.574219 436.570312 286.4375 439.503906 297.109375 C 465.171875 279.132812 492.28125 267.355469 508.382812 239.09375 " fill-opacity="1" fill-rule="nonzero"/><path fill="#ffffff" d="M 530.105469 813.375 C 530.300781 813.375 530.539062 813.710938 530.347656 813.28125 L 530.105469 813.375 " fill-opacity="1" fill-rule="nonzero"/><g clip-path="url(#486a76aaa5)"><path fill="#ffffff" d="M 72.910156 273.460938 C 59.164062 267.691406 44.792969 263.171875 32.679688 266.585938 C 33.113281 290.28125 37.101562 306.144531 59.164062 320.707031 C 70.460938 328.109375 81.464844 336.425781 93.289062 342.816406 C 119.484375 357.140625 153.851562 357.863281 183.507812 352.863281 C 183.316406 349.980469 183.21875 347.191406 183.414062 344.453125 C 183.558594 342.335938 184.132812 340.511719 185.046875 338.875 C 185.144531 337.820312 185.144531 336.761719 185.191406 335.65625 C 161.445312 332.964844 141.644531 322.4375 121.3125 309.507812 C 106.941406 300.375 90.167969 284.035156 72.910156 273.460938 " fill-opacity="1" fill-rule="nonzero"/></g><path fill="#ffffff" d="M 361.253906 217.847656 C 361.351562 217.847656 361.351562 217.847656 361.398438 217.945312 C 366.058594 221.980469 372.261719 224.097656 378.652344 225.777344 C 378.652344 217.847656 379.757812 209.871094 385.671875 203.863281 C 390.332031 199.101562 396.582031 196.074219 402.6875 193.046875 C 389.851562 187.757812 376.875 186.269531 365.484375 188.816406 C 352.9375 191.699219 347.746094 198.621094 347.363281 209.050781 C 351.785156 210.6875 356.207031 213.332031 360.675781 217.222656 C 360.917969 217.464844 361.0625 217.609375 361.253906 217.847656 " fill-opacity="1" fill-rule="nonzero"/></svg>