<svg xmlns="http://www.w3.org/2000/svg" xmlns:xlink="http://www.w3.org/1999/xlink" width="2000" zoomAndPan="magnify" viewBox="0 0 1500 1499.999933" height="2000" preserveAspectRatio="xMidYMid meet" version="1.0"><defs><clipPath id="1579dd27d7"><path d="M 21.816406 1 L 1475 1 L 1475 1460 L 21.816406 1460 Z M 21.816406 1 " clip-rule="nonzero"/></clipPath></defs><g clip-path="url(#1579dd27d7)"><path fill="#ffffff" d="M 1409.90625 180.875 C 1396.671875 169.746094 1381.335938 161.953125 1365.195312 155.707031 C 1365.007812 155.644531 1364.824219 155.707031 1364.699219 155.832031 C 1364.511719 156.015625 1364.574219 156.324219 1364.761719 156.449219 C 1383.066406 169.558594 1411.761719 196.210938 1418.4375 218.289062 C 1418.5625 218.660156 1418.4375 219.03125 1418.191406 219.277344 C 1417.820312 219.648438 1417.203125 219.589844 1416.894531 219.21875 C 1370.882812 167.457031 1307.1875 128.496094 1237.183594 124.910156 C 1181.585938 122.066406 1147.636719 144.574219 1108.492188 179.949219 C 1074.476562 210.621094 1044.855469 244.386719 1021.789062 284.089844 C 1021.664062 284.273438 1021.417969 284.398438 1021.234375 284.335938 C 1020.925781 284.273438 1020.738281 284.027344 1020.738281 283.71875 C 1028.097656 238.328125 1053.515625 196.769531 1087.21875 165.910156 C 1131.371094 125.527344 1183.628906 105.367188 1242.75 101.039062 C 1311.144531 96.03125 1386.589844 119.898438 1433.035156 173.765625 C 1433.15625 173.886719 1433.28125 173.949219 1433.34375 173.824219 C 1433.40625 173.765625 1433.40625 173.703125 1433.40625 173.640625 C 1433.40625 173.515625 1433.40625 173.453125 1433.28125 173.269531 C 1370.078125 83.910156 1270.824219 66.777344 1170.023438 93.679688 C 1047.082031 126.578125 958.15625 244.695312 977.015625 374.5 C 977.140625 375.242188 976.894531 375.800781 976.335938 376.230469 C 939.230469 405.421875 910.226562 444.441406 912.703125 494.164062 C 912.765625 494.78125 912.269531 495.339844 911.652344 495.460938 C 882.585938 499.851562 856.117188 510.550781 832.308594 527.558594 C 830.515625 528.855469 829.464844 528.917969 827.359375 528.546875 C 800.089844 523.96875 772.695312 522.484375 745.234375 524.15625 C 725.015625 525.394531 698.609375 529.96875 675.292969 532.441406 C 620.378906 538.195312 567.503906 516.550781 520.445312 486.679688 C 482.347656 462.5 456.871094 437.023438 434.238281 398.925781 C 409.808594 357.863281 387.484375 315.628906 367.199219 272.339844 C 350.320312 236.222656 335.722656 209.011719 312.285156 180.628906 C 312.164062 180.503906 312.101562 180.320312 312.164062 180.132812 C 312.164062 179.761719 312.535156 179.453125 312.90625 179.515625 C 353.96875 182.484375 378.023438 156.882812 378.207031 117.242188 C 378.269531 102.152344 364.417969 109.820312 357.246094 112.914062 C 339.371094 120.640625 334.179688 101.472656 336.09375 88.546875 C 337.765625 77.476562 342.960938 49.894531 323.972656 50.761719 C 315.378906 51.132812 308.144531 60.222656 299.792969 58.492188 C 284.644531 55.460938 301.09375 22.066406 285.136719 11.988281 C 284.457031 11.554688 283.53125 11.679688 283.035156 12.359375 C 277.964844 18.605469 264.855469 40.742188 253.042969 36.785156 C 244.507812 33.941406 246.796875 13.039062 246.488281 7.101562 C 246.488281 6.359375 246.238281 5.742188 245.808594 5.183594 C 242.34375 0.609375 238.570312 0.300781 234.488281 4.132812 C 227.871094 10.441406 198.003906 49.585938 187.304688 38.023438 C 182.046875 32.394531 182.789062 23.550781 176.296875 18.851562 C 162.011719 8.523438 150.820312 38.828125 146.675781 47.113281 C 144.078125 52.308594 141.109375 55.894531 136.410156 58.492188 C 136.410156 58.492188 136.347656 58.492188 136.347656 58.554688 C 134.738281 59.359375 132.824219 58.738281 131.957031 57.132812 C 127.382812 48.101562 122.496094 37.835938 112.972656 52.121094 C 102.460938 67.832031 90.832031 82.734375 78.09375 96.773438 C 59.542969 117.117188 61.953125 142.65625 88.296875 154.964844 C 88.484375 155.089844 88.667969 155.210938 88.730469 155.460938 C 88.855469 155.890625 88.605469 156.261719 88.234375 156.386719 C 58.058594 165.042969 30.289062 185.019531 22.003906 216.683594 C 21.757812 217.546875 22.066406 217.855469 22.871094 217.484375 C 42.226562 209.136719 84.894531 197.511719 104.003906 209.632812 C 105.796875 210.808594 106.601562 213.03125 105.984375 215.074219 C 92.5625 257.867188 82.484375 313.894531 124.414062 345.683594 C 127.011719 347.660156 133.75 351.0625 144.757812 355.886719 C 144.757812 355.886719 144.820312 355.886719 144.820312 355.886719 C 145.4375 356.195312 145.6875 356.9375 145.375 357.554688 C 131.894531 385.507812 122.867188 407.710938 118.351562 424.160156 C 97.820312 498.554688 98.5 571.527344 120.453125 643.015625 C 138.699219 702.566406 163.621094 762.304688 195.097656 822.230469 C 211.855469 854.140625 228.800781 878.195312 254.277344 901.324219 C 288.042969 931.9375 320.015625 948.199219 364.851562 972.8125 C 385.691406 984.253906 403.070312 996.375 415.992188 1013.320312 C 441.226562 1046.464844 456.5 1071.015625 489.460938 1085.921875 C 518.589844 1099.03125 534.914062 1123.769531 543.015625 1154.625 C 549.136719 1178.0625 553.714844 1200.761719 576.347656 1213.871094 C 581.109375 1216.652344 583.148438 1219.375 583.644531 1224.628906 C 586.367188 1256.355469 579.007812 1298.964844 571.523438 1332.914062 C 561.816406 1377.132812 540.292969 1383.191406 502.078125 1398.09375 C 498.800781 1399.394531 497.253906 1401.929688 498.613281 1405.207031 C 498.859375 1405.761719 499.417969 1406.195312 500.035156 1406.257812 C 519.886719 1407.558594 534.667969 1398.40625 550.128906 1389.128906 C 550.4375 1388.941406 550.871094 1388.878906 551.242188 1389.003906 C 551.921875 1389.25 552.230469 1389.992188 551.984375 1390.613281 C 539.179688 1427.160156 487.542969 1421.78125 460.519531 1410.09375 C 460.332031 1410.03125 460.148438 1409.84375 460.023438 1409.660156 C 459.714844 1409.164062 459.902344 1408.546875 460.394531 1408.238281 C 460.644531 1408.050781 461.015625 1407.929688 461.507812 1407.742188 C 461.878906 1407.617188 462.25 1407.558594 462.683594 1407.617188 C 472.332031 1409.226562 481.792969 1408.730469 491.253906 1406.257812 C 491.933594 1406.074219 492.429688 1405.578125 492.675781 1404.960938 C 493.976562 1401.558594 493.417969 1398.527344 490.945312 1395.808594 C 490.574219 1395.375 490.078125 1395.125 489.523438 1395.066406 C 477.773438 1393.890625 466.207031 1397.105469 454.460938 1398.652344 C 432.753906 1401.558594 422.859375 1404.527344 410.242188 1420.789062 C 407.707031 1424.007812 408.449219 1425.242188 412.53125 1424.5 C 435.78125 1419.925781 463.488281 1426.417969 485.007812 1435.324219 C 485.195312 1435.386719 485.378906 1435.507812 485.503906 1435.695312 C 485.875 1436.1875 485.6875 1436.871094 485.195312 1437.179688 C 478.699219 1441.632812 462.929688 1448.308594 467.136719 1458.265625 C 467.382812 1458.886719 467.816406 1459.195312 468.433594 1459.195312 C 472.640625 1459.378906 475.917969 1459.9375 479.753906 1457.585938 C 487.976562 1452.453125 495.582031 1445.898438 506.21875 1446.515625 C 506.898438 1446.578125 507.582031 1446.332031 508.136719 1445.898438 C 515.742188 1439.960938 517.105469 1436.4375 527.492188 1436.066406 C 527.679688 1436.066406 527.863281 1436.003906 528.050781 1436.003906 C 529.84375 1435.632812 530.957031 1433.839844 530.523438 1432.046875 C 527.617188 1418.9375 555.199219 1429.820312 555.878906 1411.019531 C 555.878906 1410.339844 556.1875 1409.660156 556.746094 1409.226562 C 573.316406 1395.375 578.757812 1374.101562 582.53125 1351.46875 C 589.644531 1309.105469 595.148438 1261.921875 602.199219 1217.828125 C 602.320312 1216.960938 602.753906 1216.777344 603.496094 1217.273438 C 612.214844 1223.148438 623.222656 1240.214844 633.179688 1239.472656 C 633.367188 1239.472656 633.550781 1239.472656 633.675781 1239.535156 C 634.292969 1239.78125 634.539062 1240.460938 634.292969 1241.082031 C 617.347656 1282.636719 608.875 1325.863281 608.753906 1370.824219 C 608.753906 1371.441406 608.503906 1371.9375 607.949219 1372.308594 C 601.578125 1376.265625 604.484375 1381.335938 608.503906 1386.097656 C 617.96875 1397.292969 621.675781 1413.371094 640.414062 1414.546875 C 641.464844 1414.605469 641.960938 1415.164062 641.898438 1416.214844 L 641.527344 1421.160156 C 641.21875 1425.554688 639.054688 1426.914062 634.910156 1425.304688 C 626.4375 1421.964844 618.769531 1417.453125 611.90625 1411.761719 C 607.949219 1408.484375 604.671875 1408.730469 602.074219 1412.378906 C 598.300781 1417.699219 605.535156 1426.171875 608.503906 1430.253906 C 608.9375 1430.808594 609.125 1431.488281 609.0625 1432.167969 C 608.566406 1438.167969 607.824219 1445.714844 611.101562 1450.785156 C 613.761719 1454.867188 620.132812 1460.308594 625.015625 1456.472656 C 625.574219 1456.039062 625.820312 1455.546875 625.820312 1454.867188 C 625.695312 1448.433594 624.460938 1442.25 622.109375 1436.25 C 622.046875 1436.066406 622.046875 1435.878906 622.109375 1435.757812 C 622.234375 1435.324219 622.667969 1435.078125 623.101562 1435.199219 C 645.671875 1442.25 670.285156 1440.703125 686.488281 1422.089844 C 686.671875 1421.84375 686.796875 1421.53125 686.734375 1421.222656 C 686.671875 1420.605469 686.117188 1420.109375 685.496094 1420.171875 C 670.46875 1421.101562 656.246094 1418.316406 642.765625 1411.824219 C 642.085938 1411.515625 641.714844 1410.835938 641.652344 1410.152344 C 641.40625 1401.1875 637.878906 1393.828125 631.078125 1388.199219 C 630.828125 1387.953125 630.707031 1387.582031 630.828125 1387.273438 C 631.015625 1386.902344 631.449219 1386.714844 631.820312 1386.839844 C 654.082031 1396.054688 688.652344 1393.394531 696.195312 1366.183594 C 696.257812 1365.875 696.257812 1365.628906 696.132812 1365.320312 C 695.886719 1364.640625 695.082031 1364.390625 694.464844 1364.640625 C 672.945312 1373.667969 659.957031 1368.722656 645.425781 1351.777344 C 616.914062 1318.445312 632.253906 1271.382812 656.183594 1239.164062 C 656.617188 1238.605469 657.175781 1238.296875 657.855469 1238.175781 C 662.925781 1237.617188 667.070312 1235.824219 670.347656 1232.671875 C 691.25 1212.511719 716.234375 1183.628906 723.160156 1153.945312 C 725.878906 1142.382812 725.445312 1127.476562 726.128906 1114.492188 C 726.1875 1113.8125 726.558594 1113.378906 727.242188 1113.316406 C 750.679688 1109.855469 761.128906 1093.464844 776.898438 1078.5 C 777.394531 1078.003906 778.011719 1077.695312 778.691406 1077.574219 C 785.867188 1076.148438 793.039062 1074.664062 800.210938 1073.121094 C 855.746094 1061.308594 884.441406 1013.382812 898.105469 962.484375 C 898.292969 961.742188 898.726562 961.25 899.46875 961.0625 C 904.722656 959.394531 911.03125 958.34375 915.421875 956.734375 C 935.273438 949.5625 954.257812 940.839844 972.316406 930.574219 C 972.75 930.328125 973.304688 930.328125 973.738281 930.574219 C 974.417969 930.945312 974.667969 931.8125 974.296875 932.554688 C 968.855469 942.265625 963.351562 951.726562 957.722656 960.941406 C 954.9375 965.453125 950.363281 974.359375 955.867188 978.441406 C 956.363281 978.8125 957.042969 979.058594 957.722656 978.996094 C 979.675781 977.761719 1007.441406 948.015625 1019.8125 931.195312 C 1042.136719 900.890625 1055.554688 871.890625 1068.664062 838.988281 C 1068.851562 838.617188 1069.285156 838.371094 1069.714844 838.433594 C 1070.273438 838.496094 1070.644531 839.050781 1070.582031 839.546875 C 1068.972656 847.027344 1063.964844 877.886719 1084.25 863.847656 C 1111.890625 844.742188 1121.847656 794.585938 1120.734375 762.675781 C 1120.734375 761.933594 1121.042969 761.378906 1121.726562 761.070312 C 1137.433594 753.710938 1143.308594 728.046875 1144.234375 712.710938 C 1144.234375 712.402344 1144.421875 712.152344 1144.667969 711.96875 C 1145.101562 711.71875 1145.65625 711.78125 1145.964844 712.214844 C 1167.363281 744.371094 1165.816406 783.519531 1144.914062 816.109375 C 1139.226562 825.011719 1133.164062 833.734375 1126.859375 842.203125 C 1119.003906 852.65625 1119.746094 868.921875 1136.503906 866.757812 C 1155.550781 864.28125 1174.167969 840.597656 1184.246094 824.953125 C 1205.582031 791.742188 1223.761719 747.710938 1225.867188 707.949219 C 1226.296875 700.464844 1226.917969 700.464844 1227.722656 707.886719 C 1229.636719 725.574219 1228.339844 744.992188 1223.761719 766.078125 C 1220.113281 782.898438 1211.332031 806.027344 1208.054688 823.714844 C 1205.644531 837.011719 1204.28125 850.617188 1204.097656 864.46875 C 1204.097656 864.652344 1204.222656 864.839844 1204.40625 864.902344 C 1204.652344 865.023438 1204.964844 864.960938 1205.148438 864.652344 C 1217.949219 837.382812 1231.679688 810.542969 1246.335938 784.074219 C 1256.292969 766.140625 1262.847656 753.523438 1266 746.226562 C 1293.210938 684.015625 1303.910156 618.710938 1287.398438 552.664062 C 1273.730469 497.996094 1246.644531 451.429688 1206.199219 413.089844 C 1206.015625 412.902344 1205.890625 412.59375 1205.953125 412.347656 C 1206.078125 411.914062 1206.507812 411.667969 1206.878906 411.789062 C 1271.195312 427.375 1304.652344 485.503906 1312.382812 547.097656 C 1315.164062 569.363281 1317.144531 591.6875 1318.316406 614.136719 C 1318.566406 619.328125 1319.058594 639.613281 1326.914062 639.488281 C 1346.703125 639.242188 1360.308594 557.796875 1362.101562 542.214844 C 1369.152344 480.804688 1370.574219 418.964844 1360 358.175781 C 1354.1875 324.78125 1341.695312 294.972656 1322.523438 268.628906 C 1287.089844 219.898438 1236.132812 207.46875 1178.617188 210.746094 C 1178.371094 210.746094 1178.1875 210.621094 1178.125 210.375 C 1178 210.066406 1178.125 209.753906 1178.433594 209.632812 C 1276.882812 175.867188 1352.515625 225.03125 1386.28125 316.183594 C 1388.445312 322.058594 1391.785156 334.179688 1396.238281 352.546875 C 1399.824219 367.140625 1422.210938 455.636719 1448.246094 441.535156 C 1467.789062 430.960938 1458.511719 384.085938 1458.078125 365.285156 C 1458.078125 364.605469 1458.386719 364.109375 1459.007812 363.863281 C 1469.644531 359.410156 1472.859375 342.960938 1473.664062 333.066406 C 1478.238281 275.429688 1454.121094 218.105469 1409.90625 180.875 Z M 648.640625 1373.730469 C 648.703125 1373.792969 648.703125 1373.914062 648.640625 1374.039062 C 646.289062 1376.265625 639.550781 1372.988281 633.488281 1366.742188 L 633.242188 1366.496094 C 627.242188 1360.25 624.214844 1353.324219 626.5625 1351.035156 C 626.625 1350.972656 626.75 1350.972656 626.871094 1351.035156 Z M 612.09375 896.007812 C 542.953125 893.472656 484.453125 868.117188 434.609375 821.425781 C 391.070312 780.671875 321.871094 723.039062 316.304688 659.710938 C 316.304688 659.527344 316.367188 659.339844 316.554688 659.277344 C 316.800781 659.15625 317.046875 659.21875 317.171875 659.464844 C 344.753906 707.269531 380.683594 747.277344 424.960938 779.5 C 432.875 785.25 439.554688 790.753906 445.058594 795.949219 C 468.496094 818.210938 489.957031 837.9375 520.195312 855.128906 C 549.445312 871.765625 580.121094 885.183594 612.152344 895.328125 C 612.339844 895.386719 612.464844 895.574219 612.464844 895.757812 C 612.464844 895.945312 612.277344 896.070312 612.09375 896.007812 Z M 1067.429688 641.28125 C 1038.363281 612.402344 1014.554688 585.316406 974.667969 566.515625 C 956.113281 557.796875 921.175781 548.769531 901.445312 556.3125 C 900.457031 556.683594 900.457031 557.054688 901.507812 557.304688 C 921.234375 562.683594 942.078125 568.433594 960.257812 577.710938 C 1007.441406 601.703125 1034.035156 657.421875 1039.351562 707.824219 C 1045.476562 766.203125 1042.878906 831.320312 1008.988281 881.90625 C 1008.742188 882.277344 1008.308594 882.464844 1007.875 882.339844 C 1007.320312 882.15625 1007.007812 881.597656 1007.195312 881.042969 C 1018.328125 844.183594 1024.015625 803.988281 1020.304688 765.523438 C 1013.625 696.199219 984.746094 611.042969 910.351562 587.296875 C 899.589844 583.894531 889.078125 582.285156 878.75 582.535156 C 874.667969 582.65625 874.546875 583.398438 878.316406 584.882812 C 916.101562 599.601562 947.457031 619.824219 969.410156 656 C 1008.925781 721.058594 1015.976562 799.289062 977.203125 867.621094 C 977.015625 867.929688 976.707031 868.054688 976.335938 867.992188 C 975.902344 867.871094 975.65625 867.5 975.71875 867.066406 C 982.335938 839.792969 984.4375 811.964844 982.027344 783.640625 C 974.667969 695.703125 911.527344 610.488281 817.835938 603.621094 C 817.652344 603.621094 817.464844 603.746094 817.34375 603.929688 C 817.21875 604.179688 817.28125 604.488281 817.589844 604.671875 C 839.730469 615.496094 861.3125 627.492188 882.335938 640.726562 C 925.6875 667.9375 954.9375 722.109375 964.03125 772.078125 C 972.253906 817.53125 966.195312 881.597656 937.871094 920.0625 C 937.625 920.433594 937.128906 920.621094 936.695312 920.558594 C 936.015625 920.433594 935.519531 919.816406 935.644531 919.136719 C 943.746094 856.179688 950.917969 800.089844 920.0625 742.828125 C 902.621094 710.421875 889.757812 684.449219 862.425781 663.917969 C 824.824219 635.65625 785.125 615.621094 739.113281 611.722656 C 733.855469 611.289062 733.671875 612.03125 738.617188 614.011719 C 765.023438 624.460938 790.8125 637.632812 816.042969 653.652344 C 844.304688 671.585938 863.660156 685.5 880.113281 711.347656 C 898.847656 740.785156 912.390625 772.449219 920.863281 806.277344 C 925.503906 824.890625 928.71875 857.976562 912.019531 872.136719 C 911.835938 872.320312 911.527344 872.445312 911.28125 872.382812 C 910.660156 872.382812 910.167969 871.828125 910.167969 871.207031 C 911.03125 818.582031 891.242188 770.222656 857.476562 730.273438 C 857.476562 730.273438 857.414062 730.273438 857.414062 730.273438 C 857.355469 730.273438 857.355469 730.335938 857.355469 730.394531 C 867.992188 749.011719 885.988281 783.023438 885.058594 804.605469 C 885.058594 805.410156 884.503906 806.152344 883.761719 806.460938 C 882.707031 806.832031 881.535156 806.335938 881.164062 805.285156 C 855.746094 741.34375 791.800781 674.738281 730.457031 643.449219 C 729.15625 642.765625 729.035156 642.953125 730.085938 644.003906 C 769.726562 682.902344 805.035156 723.46875 829.773438 774.117188 C 832.925781 780.613281 834.96875 787.042969 835.832031 793.535156 C 836.019531 795.019531 835.648438 795.144531 834.71875 794.03125 C 828.101562 786.238281 821.546875 777.148438 815.238281 770.347656 C 797.367188 751.050781 778.878906 732.3125 759.832031 714.195312 C 725.199219 681.355469 688.464844 646.847656 639.117188 638.128906 C 638.871094 638.066406 638.621094 638.191406 638.4375 638.4375 C 638.25 638.746094 638.375 639.117188 638.683594 639.304688 C 664.71875 653.03125 687.042969 667.070312 709.800781 687.355469 C 744.988281 718.644531 778.570312 751.484375 810.664062 785.929688 C 829.957031 806.644531 843.6875 825.324219 859.394531 848.449219 C 861.992188 852.285156 863.910156 855.6875 865.085938 858.714844 C 865.144531 858.964844 865.085938 859.210938 864.960938 859.398438 C 864.714844 859.644531 864.34375 859.644531 864.09375 859.398438 C 816.230469 810.171875 760.632812 768.058594 695.332031 744.992188 C 695.144531 744.929688 694.898438 744.929688 694.710938 745.050781 C 694.339844 745.238281 694.15625 745.734375 694.402344 746.105469 C 709.988281 778.445312 731.691406 804.542969 739.792969 840.722656 C 740.351562 843.257812 739.484375 844 737.074219 843.007812 C 736.703125 842.824219 736.023438 842.082031 735.03125 840.722656 C 695.515625 786.855469 656.988281 741.835938 595.269531 712.152344 C 594.898438 711.96875 594.46875 712.089844 594.21875 712.402344 C 593.910156 712.773438 593.972656 713.328125 594.34375 713.574219 C 637.632812 746.90625 677.707031 790.691406 700.152344 840.535156 C 702.9375 846.65625 712.953125 873.558594 704.730469 876.898438 C 703.988281 877.207031 703.371094 877.082031 702.8125 876.464844 C 650.679688 822.414062 598.734375 772.570312 527.246094 746.414062 C 526.875 746.226562 526.441406 746.351562 526.257812 746.722656 C 526.007812 747.09375 526.070312 747.589844 526.441406 747.835938 C 561.691406 776.097656 591.808594 809.121094 616.792969 847.027344 C 624.582031 858.777344 630.027344 870.464844 633.796875 883.269531 C 633.921875 883.640625 633.921875 884.007812 633.796875 884.378906 C 633.488281 885.371094 632.4375 885.863281 631.511719 885.554688 C 590.757812 872.445312 552.414062 854.820312 516.175781 832.371094 C 485.253906 813.203125 465.15625 788.652344 433.617188 765.894531 C 403.070312 743.878906 376.539062 717.65625 353.96875 687.230469 C 335.847656 662.867188 325.457031 635.65625 322.675781 605.601562 C 322.675781 605.351562 322.800781 605.105469 323.046875 604.980469 C 323.417969 604.796875 323.789062 604.921875 323.972656 605.292969 C 342.960938 646.910156 366.210938 680.675781 403.75 706.898438 C 438.132812 730.890625 475.359375 753.585938 508.324219 780.550781 C 508.570312 780.734375 508.878906 780.796875 509.1875 780.734375 C 509.683594 780.613281 509.992188 780.054688 509.867188 779.558594 C 504.796875 763.789062 479.691406 741.15625 466.640625 731.015625 C 439.246094 709.679688 410.984375 692.550781 389.339844 663.609375 C 388.597656 662.554688 388.785156 662.246094 390.019531 662.554688 C 398.988281 664.96875 407.398438 668.308594 416.363281 669.667969 C 462.746094 676.53125 505.847656 696.199219 546.167969 719.203125 C 546.355469 719.328125 546.664062 719.328125 546.789062 719.078125 C 546.910156 718.894531 546.910156 718.585938 546.664062 718.460938 C 513.765625 686.796875 475.855469 663.855469 433 649.695312 C 418.035156 644.746094 392.125 640.355469 377.714844 633.738281 C 349.328125 620.628906 331.332031 598.796875 323.789062 568.25 C 318.46875 546.667969 313.460938 525.082031 308.824219 503.378906 C 307.523438 497.191406 305.296875 491.75 302.761719 486.0625 C 302.515625 485.503906 302.082031 484.949219 301.585938 484.640625 C 299.980469 483.527344 297.816406 483.960938 296.703125 485.503906 C 294.042969 489.402344 293.054688 495.460938 293.238281 500.78125 C 294.476562 534.667969 295.03125 562.683594 294.910156 584.820312 C 294.910156 589.335938 293.054688 593.109375 289.34375 596.015625 C 288.785156 596.449219 288.105469 596.632812 287.425781 596.570312 C 271.160156 595.148438 244.011719 569.113281 231.460938 558.355469 C 226.203125 553.839844 225.214844 554.644531 228.429688 560.765625 C 235.851562 574.804688 250.320312 588.78125 261.515625 600.097656 C 265.65625 604.300781 276.851562 621.492188 265.535156 622.792969 C 254.277344 624.089844 223.792969 606.40625 213.648438 600.28125 C 213.277344 600.097656 212.84375 600.097656 212.472656 600.34375 C 211.980469 600.652344 211.855469 601.332031 212.164062 601.828125 C 223.171875 617.535156 240.488281 631.757812 254.773438 644.5 C 257.617188 647.035156 258.609375 649.695312 257.804688 652.539062 C 257.679688 652.972656 257.433594 653.402344 257.1875 653.773438 C 255.949219 655.320312 253.660156 655.570312 252.113281 654.332031 C 231.027344 637.261719 212.289062 617.90625 195.839844 596.324219 C 192.871094 592.429688 192.003906 592.863281 193.367188 597.5625 C 197.386719 611.96875 203.382812 626.996094 211.363281 642.519531 C 212.722656 645.242188 213.09375 647.40625 212.472656 649.136719 C 212.351562 649.507812 212.101562 649.878906 211.792969 650.125 C 210.679688 651.175781 209.011719 651.175781 207.960938 650.066406 C 186.253906 627.679688 168.9375 602.261719 156.011719 573.8125 C 155.890625 573.503906 155.582031 573.382812 155.269531 573.441406 C 154.960938 573.503906 154.777344 573.875 154.839844 574.183594 C 158.734375 594.035156 165.785156 612.527344 171.96875 631.699219 C 172.339844 632.933594 172.03125 634.542969 172.09375 635.71875 C 172.152344 636.460938 171.84375 637.140625 171.289062 637.632812 C 170.300781 638.5 168.875 638.375 168.011719 637.386719 C 165.414062 634.417969 163.1875 630.894531 161.332031 626.875 C 152.921875 608.261719 145.5 589.210938 139.070312 569.855469 C 113.097656 491.441406 134.988281 419.582031 176.234375 351.929688 C 179.574219 346.484375 187.242188 343.765625 191.203125 339.683594 C 209.257812 321.316406 215.070312 299.425781 208.640625 274.132812 C 204.929688 259.539062 195.222656 247.480469 196.273438 231.894531 C 196.335938 231.460938 196.582031 231.089844 196.953125 230.90625 C 197.570312 230.535156 198.375 230.78125 198.746094 231.398438 L 225.648438 282.355469 C 225.769531 282.605469 226.019531 282.789062 226.328125 282.851562 C 226.761719 282.851562 227.191406 282.542969 227.191406 282.046875 C 228.863281 263.125 222.863281 247.539062 209.136719 235.234375 C 209.011719 235.109375 208.886719 234.925781 208.824219 234.738281 C 208.703125 234.246094 209.074219 233.75 209.566406 233.6875 C 223.542969 231.089844 243.828125 219.464844 232.015625 202.273438 C 219.773438 184.460938 205.175781 199.367188 192.808594 205.304688 C 149.335938 226.082031 143.894531 157.871094 106.910156 170.796875 C 106.046875 171.105469 105.984375 171.476562 106.910156 171.847656 C 114.269531 175 121.074219 179.144531 127.195312 184.339844 C 127.382812 184.523438 127.503906 184.710938 127.503906 185.019531 C 127.503906 185.453125 127.132812 185.824219 126.640625 185.824219 C 125.585938 185.824219 124.414062 185.636719 123.113281 185.390625 C 106.726562 182.296875 91.082031 180.011719 76.363281 178.527344 C 72.589844 178.15625 72.34375 177.042969 75.683594 175.25 C 86.875 169.25 98.378906 165.292969 110.25 163.4375 C 116.375 162.445312 124.289062 157.066406 127.8125 150.636719 C 135.296875 136.78125 145.066406 121.632812 161.765625 117.921875 C 189.777344 111.675781 214.640625 123.796875 236.160156 140.800781 C 265.164062 163.746094 297.628906 190.460938 315.5625 221.074219 C 354.523438 287.550781 384.949219 358.113281 427.621094 422.738281 C 460.085938 471.898438 507.703125 508.015625 561.691406 533.492188 C 600.652344 551.859375 640.414062 560.085938 680.921875 558.167969 C 705.597656 556.992188 741.585938 549.882812 771.519531 550.746094 C 800.707031 551.613281 828.785156 557.613281 855.746094 568.929688 C 855.933594 568.992188 856.117188 569.050781 856.304688 568.992188 C 856.859375 568.867188 857.167969 568.371094 857.105469 567.816406 C 855.066406 556.933594 850.179688 542.152344 861.558594 534.175781 C 904.414062 504.304688 972.933594 517.105469 1015.421875 541.222656 C 1044.855469 557.921875 1079.734375 588.65625 1086.105469 624.832031 C 1087.960938 635.222656 1080.539062 654.332031 1067.429688 641.28125 Z M 1112.015625 491.8125 C 1071.078125 485.132812 1028.902344 485.566406 988.023438 492.925781 C 986.789062 493.113281 986.601562 492.800781 987.46875 491.875 C 989.386719 489.835938 991.550781 488.164062 993.960938 486.867188 C 1029.953125 467.695312 1076.394531 475.921875 1112.386719 490.699219 C 1112.574219 490.824219 1112.695312 491.007812 1112.695312 491.257812 C 1112.574219 491.566406 1112.324219 491.8125 1112.015625 491.8125 Z M 1221.289062 526.878906 C 1221.414062 527.1875 1221.226562 527.496094 1220.980469 527.679688 C 1220.671875 527.867188 1220.238281 527.742188 1220.050781 527.371094 C 1162.417969 420.695312 1024.695312 400.164062 941.953125 490.453125 C 941.707031 490.699219 941.335938 490.824219 941.023438 490.699219 C 940.53125 490.578125 940.28125 490.019531 940.46875 489.585938 C 945.230469 474.125 952.714844 460.335938 962.980469 448.214844 C 1005.957031 397.445312 1072.5 392.25 1129.269531 422.675781 C 1168.351562 443.578125 1208.984375 482.847656 1221.289062 526.878906 Z M 1261.484375 385.507812 C 1256.230469 385.941406 1250.847656 384.890625 1245.34375 382.417969 C 1203.292969 363.246094 1170.269531 351.0625 1123.148438 364.359375 C 1113.253906 367.140625 1103.480469 369.492188 1093.835938 371.46875 C 1093.402344 371.59375 1092.96875 371.410156 1092.660156 371.097656 C 1092.164062 370.605469 1092.226562 369.800781 1092.722656 369.367188 C 1137.308594 326.078125 1203.046875 337.519531 1250.167969 368.253906 C 1255.117188 371.46875 1259.570312 375.367188 1263.652344 379.878906 C 1264.144531 380.4375 1264.453125 381.117188 1264.515625 381.859375 C 1264.703125 383.714844 1263.339844 385.324219 1261.484375 385.507812 Z M 1239.410156 257.929688 C 1287.210938 283.964844 1320.730469 329.234375 1338.355469 379.820312 C 1339.839844 384.085938 1340.765625 388.230469 1341.199219 392.371094 C 1341.199219 392.621094 1341.074219 392.867188 1340.890625 392.992188 C 1340.582031 393.175781 1340.148438 393.113281 1339.960938 392.742188 C 1309.226562 340.488281 1261.484375 298.929688 1201.625 287.984375 C 1148.378906 278.277344 1097.359375 295.527344 1060.070312 335.046875 C 1051.96875 343.578125 1043.929688 352.238281 1035.828125 360.894531 C 1032.921875 363.988281 1030.261719 364.542969 1027.851562 362.503906 C 1026.859375 361.699219 1026.550781 360.339844 1026.984375 359.164062 C 1056.914062 276.171875 1152.089844 210.375 1239.410156 257.929688 Z M 1239.410156 257.929688 " fill-opacity="1" fill-rule="nonzero"/></g><path fill="#ffffff" d="M 150.386719 148.964844 C 135.171875 169.0625 184.894531 215.320312 207.773438 173.703125 C 210.496094 168.753906 211.175781 163.746094 209.753906 158.738281 C 202.023438 130.351562 167.453125 126.457031 150.386719 148.964844 Z M 197.261719 159.292969 C 197.261719 163.746094 193.613281 167.332031 189.160156 167.332031 L 188.976562 167.332031 C 187.738281 167.332031 186.6875 166.28125 186.6875 165.042969 L 186.75 152.984375 C 186.75 151.75 187.800781 150.695312 189.035156 150.695312 L 189.222656 150.695312 C 193.675781 150.695312 197.261719 154.347656 197.261719 158.738281 Z M 197.261719 159.292969 " fill-opacity="1" fill-rule="nonzero"/><path fill="#ffffff" d="M 300.289062 257.621094 C 299.175781 255.457031 298.867188 255.578125 299.359375 257.929688 C 306.472656 293.054688 317.976562 330.160156 340.734375 357.492188 C 343.390625 360.710938 344.074219 360.339844 342.648438 356.382812 C 330.652344 322.492188 316.492188 289.59375 300.289062 257.621094 Z M 300.289062 257.621094 " fill-opacity="1" fill-rule="nonzero"/><path fill="#ffffff" d="M 338.691406 296.519531 C 338.570312 296.332031 338.382812 296.210938 338.136719 296.269531 C 337.886719 296.332031 337.765625 296.582031 337.886719 296.828125 C 355.636719 356.566406 390.640625 416.550781 429.476562 465.097656 C 429.722656 465.40625 430.03125 465.714844 430.339844 465.902344 C 430.589844 466.085938 430.835938 466.273438 431.019531 466.457031 L 432.320312 467.757812 C 432.445312 467.941406 432.753906 468.003906 432.9375 467.820312 C 433.125 467.695312 433.1875 467.386719 433 467.199219 C 398.554688 411.542969 369.179688 354.402344 338.691406 296.519531 Z M 338.691406 296.519531 " fill-opacity="1" fill-rule="nonzero"/><path fill="#ffffff" d="M 203.199219 356.257812 C 198.128906 389.898438 192.375 422.921875 191.015625 456.625 C 191.015625 456.871094 191.140625 457.058594 191.324219 457.183594 C 191.632812 457.304688 191.941406 457.183594 192.066406 456.933594 C 208.578125 425.828125 205.054688 389.464844 204.683594 356.382812 C 204.558594 350.320312 204.125 350.320312 203.199219 356.257812 Z M 203.199219 356.257812 " fill-opacity="1" fill-rule="nonzero"/><path fill="#ffffff" d="M 195.40625 366.089844 C 195.34375 366.027344 195.222656 366.027344 195.160156 366.089844 C 179.390625 392.558594 163.929688 416.367188 156.136719 447.164062 C 155.953125 447.84375 156.074219 448.523438 156.382812 449.082031 C 157.125 450.316406 158.671875 450.8125 159.972656 450.070312 C 161.332031 449.328125 162.570312 447.78125 163.804688 445.433594 C 176.914062 419.953125 187.492188 393.546875 195.46875 366.152344 C 195.46875 366.152344 195.40625 366.089844 195.40625 366.089844 Z M 195.40625 366.089844 " fill-opacity="1" fill-rule="nonzero"/><path fill="#ffffff" d="M 680.488281 1479.046875 C 661.566406 1478.242188 647.09375 1470.386719 632.191406 1459.441406 C 631.695312 1459.070312 631.140625 1458.886719 630.519531 1458.824219 C 628.789062 1458.761719 627.367188 1460.058594 627.242188 1461.792969 C 626.871094 1468.59375 633.738281 1474.40625 637.878906 1478.796875 C 638.128906 1479.105469 638.3125 1479.476562 638.3125 1479.847656 C 638.375 1480.777344 637.632812 1481.519531 636.703125 1481.582031 C 604.734375 1482.941406 592.179688 1450.722656 580.863281 1427.160156 C 580.800781 1427.035156 580.738281 1426.914062 580.675781 1426.789062 C 579.5625 1424.996094 577.152344 1424.441406 575.359375 1425.550781 C 558.785156 1435.816406 541.839844 1450.164062 524.03125 1458.699219 C 517.535156 1461.792969 510.734375 1460.679688 503.683594 1460.679688 C 503.003906 1460.679688 502.386719 1460.988281 501.953125 1461.484375 L 496.386719 1467.605469 C 495.953125 1468.097656 495.335938 1468.46875 494.65625 1468.53125 C 478.699219 1470.882812 462.992188 1469.769531 447.53125 1465.316406 C 447.285156 1465.253906 447.039062 1465.070312 446.914062 1464.820312 C 446.605469 1464.328125 446.789062 1463.707031 447.285156 1463.398438 C 451.121094 1461.113281 460.703125 1458.761719 456.996094 1452.269531 C 456.3125 1451.09375 455.078125 1450.289062 453.71875 1450.164062 C 429.105469 1447.878906 405.234375 1465.253906 402.265625 1491.042969 C 402.140625 1491.910156 402.449219 1492.09375 403.191406 1491.597656 C 416.921875 1482.015625 432.195312 1478.613281 449.078125 1481.332031 C 473.566406 1485.351562 501.890625 1487.148438 525.207031 1477.128906 C 531.203125 1474.53125 540.417969 1470.265625 552.785156 1464.265625 C 562.433594 1459.566406 571.832031 1458.761719 579.128906 1466.675781 C 590.695312 1479.292969 599.105469 1490.980469 617.96875 1495.1875 C 638.375 1499.699219 666.265625 1496.980469 680.921875 1480.160156 C 681.046875 1480.035156 681.046875 1479.910156 681.105469 1479.789062 C 681.167969 1479.417969 680.859375 1479.105469 680.488281 1479.046875 Z M 680.488281 1479.046875 " fill-opacity="1" fill-rule="nonzero"/></svg>